Playpen-Th18LongFast.ufo
<glyph name="dollar" format="2">
  <advance width="853"/>
  <unicode hex="0024"/>
  <outline>
    <contour>
      <point x="426" y="-15" type="curve" smooth="yes"/>
      <point x="641" y="-15"/>
      <point x="806" y="148"/>
      <point x="806" y="341" type="curve" smooth="yes"/>
      <point x="806" y="495"/>
      <point x="689" y="571"/>
      <point x="573" y="643" type="curve" smooth="yes"/>
      <point x="457" y="715"/>
      <point x="379" y="776"/>
      <point x="379" y="904" type="curve" smooth="yes"/>
      <point x="379" y="1058"/>
      <point x="506" y="1182"/>
      <point x="662" y="1182" type="curve" smooth="yes"/>
      <point x="793" y="1182"/>
      <point x="861" y="1117"/>
      <point x="929" y="1042" type="curve" smooth="yes"/>
      <point x="937" y="1034"/>
      <point x="944" y="1033"/>
      <point x="950" y="1038" type="curve" smooth="yes"/>
      <point x="957" y="1044"/>
      <point x="960" y="1049"/>
      <point x="953" y="1058" type="curve" smooth="yes"/>
      <point x="874" y="1150"/>
      <point x="797" y="1212"/>
      <point x="662" y="1212" type="curve" smooth="yes"/>
      <point x="483" y="1212"/>
      <point x="347" y="1077"/>
      <point x="347" y="901" type="curve" smooth="yes"/>
      <point x="347" y="755"/>
      <point x="452" y="685"/>
      <point x="548" y="621" type="curve" smooth="yes"/>
      <point x="684" y="535"/>
      <point x="774" y="477"/>
      <point x="774" y="341" type="curve" smooth="yes"/>
      <point x="774" y="164"/>
      <point x="622" y="15"/>
      <point x="426" y="15" type="curve" smooth="yes"/>
      <point x="279" y="15"/>
      <point x="183" y="97"/>
      <point x="128" y="178" type="curve" smooth="yes"/>
      <point x="125" y="182"/>
      <point x="120" y="188"/>
      <point x="109" y="180" type="curve" smooth="yes"/>
      <point x="100" y="174"/>
      <point x="101" y="168"/>
      <point x="105" y="161" type="curve" smooth="yes"/>
      <point x="138" y="109"/>
      <point x="236" y="-15"/>
    </contour>
    <contour>
      <point x="319" y="-101" type="curve" smooth="yes"/>
      <point x="330" y="-101"/>
      <point x="335" y="-98"/>
      <point x="338" y="-89" type="curve" smooth="yes"/>
      <point x="788" y="1297" type="line" smooth="yes"/>
      <point x="791" y="1306"/>
      <point x="787" y="1309"/>
      <point x="777" y="1309" type="curve" smooth="yes"/>
      <point x="766" y="1309"/>
      <point x="761" y="1306"/>
      <point x="758" y="1297" type="curve" smooth="yes"/>
      <point x="308" y="-89" type="line" smooth="yes"/>
      <point x="305" y="-98"/>
      <point x="308" y="-101"/>
    </contour>
  </outline>
</glyph>
<glyph name="ampersand" format="2">
  <advance width="1057"/>
  <unicode hex="0026"/>
  <outline>
    <contour>
      <point x="145" y="262" type="curve" smooth="yes"/>
      <point x="145" y="101"/>
      <point x="255" y="-15"/>
      <point x="408" y="-15" type="curve" smooth="yes"/>
      <point x="662" y="-15"/>
      <point x="888" y="221"/>
      <point x="1013" y="609" type="curve" smooth="yes"/>
      <point x="1016" y="617"/>
      <point x="1010" y="622"/>
      <point x="1000" y="622" type="curve" smooth="yes"/>
      <point x="988" y="622"/>
      <point x="984" y="619"/>
      <point x="981" y="610" type="curve" smooth="yes"/>
      <point x="860" y="240"/>
      <point x="644" y="15"/>
      <point x="412" y="15" type="curve" smooth="yes"/>
      <point x="276" y="15"/>
      <point x="177" y="119"/>
      <point x="177" y="262" type="curve" smooth="yes"/>
      <point x="177" y="723"/>
      <point x="918" y="612"/>
      <point x="918" y="1019" type="curve" smooth="yes"/>
      <point x="918" y="1136"/>
      <point x="833" y="1212"/>
      <point x="728" y="1212" type="curve" smooth="yes"/>
      <point x="560" y="1212"/>
      <point x="439" y="1078"/>
      <point x="439" y="892" type="curve" smooth="yes"/>
      <point x="439" y="784"/>
      <point x="473" y="702"/>
      <point x="521" y="617" type="curve" smooth="yes"/>
      <point x="868" y="-4" type="line" smooth="yes"/>
      <point x="872" y="-11"/>
      <point x="880" y="-12"/>
      <point x="889" y="-7" type="curve" smooth="yes"/>
      <point x="896" y="-2"/>
      <point x="898" y="4"/>
      <point x="894" y="11" type="curve" smooth="yes"/>
      <point x="547" y="632" type="line" smooth="yes"/>
      <point x="501" y="715"/>
      <point x="469" y="793"/>
      <point x="469" y="891" type="curve" smooth="yes"/>
      <point x="469" y="1060"/>
      <point x="575" y="1182"/>
      <point x="721" y="1182" type="curve" smooth="yes"/>
      <point x="820" y="1182"/>
      <point x="889" y="1116"/>
      <point x="889" y="1019" type="curve" smooth="yes"/>
      <point x="889" y="636"/>
      <point x="145" y="742"/>
    </contour>
  </outline>
</glyph>
<glyph name="quotesingle" format="2">
	<unicode hex="0027"/>
	<advance width="135"/>
	<outline>
		<contour>
			<point x="325" y="988" type="curve" smooth="yes"/>
			<point x="336" y="988"/>
			<point x="341" y="993"/>
			<point x="345" y="1003" type="curve" smooth="yes"/>
			<point x="415" y="1193" type="line" smooth="yes"/>
			<point x="419" y="1204"/>
			<point x="414" y="1215"/>
			<point x="395" y="1215" type="curve" smooth="yes"/>
			<point x="378" y="1215"/>
			<point x="370" y="1206"/>
			<point x="367" y="1195" type="curve" smooth="yes"/>
			<point x="313" y="1004" type="line" smooth="yes"/>
			<point x="310" y="995"/>
			<point x="313" y="988"/>
		</contour>
	</outline>
</glyph>
<glyph name="parenright" format="2">
	<unicode hex="0029"/>
	<advance width="389"/>
	<outline>
		<contour>
			<point x="75" y="-38" type="curve" smooth="yes"/>
			<point x="68" y="-47"/>
			<point x="70" y="-55"/>
			<point x="79" y="-60" type="curve" smooth="yes"/>
			<point x="87" y="-64"/>
			<point x="91" y="-63"/>
			<point x="97" y="-55" type="curve" smooth="yes"/>
			<point x="308" y="212"/>
			<point x="425" y="523"/>
			<point x="425" y="859" type="curve" smooth="yes"/>
			<point x="425" y="981"/>
			<point x="411" y="1131"/>
			<point x="376" y="1252" type="curve" smooth="yes"/>
			<point x="374" y="1259"/>
			<point x="369" y="1262"/>
			<point x="359" y="1260" type="curve" smooth="yes"/>
			<point x="349" y="1258"/>
			<point x="344" y="1253"/>
			<point x="347" y="1244" type="curve" smooth="yes"/>
			<point x="386" y="1126"/>
			<point x="395" y="980"/>
			<point x="395" y="859" type="curve" smooth="yes"/>
			<point x="395" y="538"/>
			<point x="276" y="221"/>
		</contour>
	</outline>
</glyph>
<glyph name="hyphen" format="2">
  <advance width="460"/>
  <unicode hex="002D"/>
  <outline>
    <contour>
      <point x="123" y="260" type="curve" smooth="yes"/>
      <point x="377" y="260" type="line" smooth="yes"/>
      <point x="387" y="260"/>
      <point x="391" y="263"/>
      <point x="394" y="274" type="curve" smooth="yes"/>
      <point x="396" y="283"/>
      <point x="396" y="288"/>
      <point x="385" y="288" type="curve" smooth="yes"/>
      <point x="131" y="288" type="line" smooth="yes"/>
      <point x="121" y="288"/>
      <point x="117" y="285"/>
      <point x="114" y="275" type="curve" smooth="yes"/>
      <point x="111" y="265"/>
      <point x="112" y="260"/>
    </contour>
  </outline>
</glyph>
<glyph name="slash" format="2">
  <advance width="420"/>
  <unicode hex="002F"/>
  <outline>
    <contour>
      <point x="-34" y="-60" type="curve"/>
      <point x="-24" y="-63"/>
      <point x="-19" y="-61"/>
      <point x="-14" y="-52" type="curve" smooth="yes"/>
      <point x="721" y="1245" type="line"/>
      <point x="725" y="1253"/>
      <point x="722" y="1257"/>
      <point x="714" y="1260" type="curve"/>
      <point x="704" y="1263"/>
      <point x="699" y="1261"/>
      <point x="694" y="1252" type="curve" smooth="yes"/>
      <point x="-41" y="-45" type="line"/>
      <point x="-45" y="-53"/>
      <point x="-43" y="-57"/>
    </contour>
  </outline>
</glyph>
<glyph name="one" format="2">
  <advance width="696"/>
  <unicode hex="0031"/>
  <outline>
    <contour>
      <point x="300" y="-14" type="curve" smooth="yes"/>
      <point x="314" y="-14"/>
      <point x="319" y="-10"/>
      <point x="323" y="1" type="curve" smooth="yes"/>
      <point x="808" y="1496" type="line" smooth="yes"/>
      <point x="813" y="1510"/>
      <point x="805" y="1515"/>
      <point x="791" y="1515" type="curve" smooth="yes"/>
      <point x="778" y="1515"/>
      <point x="770" y="1513"/>
      <point x="759" y="1503" type="curve" smooth="yes"/>
      <point x="641" y="1401"/>
      <point x="501" y="1303"/>
      <point x="389" y="1244" type="curve" smooth="yes"/>
      <point x="376" y="1238"/>
      <point x="375" y="1229"/>
      <point x="379" y="1220" type="curve" smooth="yes"/>
      <point x="383" y="1210"/>
      <point x="391" y="1206"/>
      <point x="404" y="1213" type="curve" smooth="yes"/>
      <point x="503" y="1264"/>
      <point x="646" y="1365"/>
      <point x="756" y="1455" type="curve"/>
      <point x="285" y="5" type="line" smooth="yes"/>
      <point x="281" y="-6"/>
      <point x="286" y="-14"/>
    </contour>
  </outline>
</glyph>
<glyph name="three" format="2">
	<unicode hex="0033"/>
	<advance width="901"/>
	<outline>
		<contour>
			<point x="432" y="-15" type="curve" smooth="yes"/>
			<point x="661" y="-15"/>
			<point x="828" y="150"/>
			<point x="828" y="363" type="curve" smooth="yes"/>
			<point x="828" y="487"/>
			<point x="760" y="604"/>
			<point x="629" y="633" type="curve"/>
			<point x="832" y="652"/>
			<point x="939" y="800"/>
			<point x="939" y="957" type="curve" smooth="yes"/>
			<point x="939" y="1116"/>
			<point x="833" y="1212"/>
			<point x="669" y="1212" type="curve" smooth="yes"/>
			<point x="566" y="1212"/>
			<point x="444" y="1162"/>
			<point x="347" y="1080" type="curve" smooth="yes"/>
			<point x="334" y="1069"/>
			<point x="335" y="1064"/>
			<point x="343" y="1056" type="curve" smooth="yes"/>
			<point x="349" y="1050"/>
			<point x="354" y="1048"/>
			<point x="366" y="1058" type="curve" smooth="yes"/>
			<point x="463" y="1135"/>
			<point x="578" y="1182"/>
			<point x="669" y="1182" type="curve" smooth="yes"/>
			<point x="811" y="1182"/>
			<point x="906" y="1097"/>
			<point x="906" y="957" type="curve" smooth="yes"/>
			<point x="906" y="767"/>
			<point x="749" y="650"/>
			<point x="545" y="650" type="curve" smooth="yes"/>
			<point x="448" y="650" type="line" smooth="yes"/>
			<point x="441" y="650"/>
			<point x="434" y="646"/>
			<point x="432" y="636" type="curve" smooth="yes"/>
			<point x="430" y="626"/>
			<point x="435" y="622"/>
			<point x="440" y="622" type="curve" smooth="yes"/>
			<point x="529" y="622" type="line" smooth="yes"/>
			<point x="694" y="622"/>
			<point x="795" y="511"/>
			<point x="795" y="363" type="curve" smooth="yes"/>
			<point x="795" y="161"/>
			<point x="632" y="15"/>
			<point x="432" y="15" type="curve" smooth="yes"/>
			<point x="260" y="15"/>
			<point x="156" y="103"/>
			<point x="124" y="224" type="curve" smooth="yes"/>
			<point x="121" y="234"/>
			<point x="118" y="239"/>
			<point x="105" y="235" type="curve" smooth="yes"/>
			<point x="95" y="232"/>
			<point x="93" y="226"/>
			<point x="96" y="214" type="curve" smooth="yes"/>
			<point x="132" y="74"/>
			<point x="258" y="-15"/>
		</contour>
	</outline>
</glyph>
<glyph name="four" format="2">
	<unicode hex="0034"/>
	<advance width="918"/>
	<outline>
		<contour>
			<point x="147" y="371" type="curve" smooth="yes"/>
			<point x="905" y="371" type="line" smooth="yes"/>
			<point x="914" y="371"/>
			<point x="918" y="374"/>
			<point x="921" y="385" type="curve" smooth="yes"/>
			<point x="924" y="396"/>
			<point x="922" y="399"/>
			<point x="913" y="399" type="curve" smooth="yes"/>
			<point x="185" y="399" type="line"/>
			<point x="865" y="1188" type="line" smooth="yes"/>
			<point x="871" y="1195"/>
			<point x="870" y="1202"/>
			<point x="863" y="1208" type="curve" smooth="yes"/>
			<point x="856" y="1214"/>
			<point x="849" y="1214"/>
			<point x="842" y="1206" type="curve" smooth="yes"/>
			<point x="142" y="392" type="line" smooth="yes"/>
			<point x="130" y="378"/>
			<point x="136" y="371"/>
		</contour>
		<contour>
			<point x="614" y="-11" type="curve" smooth="yes"/>
			<point x="625" y="-11"/>
			<point x="630" y="-8"/>
			<point x="633" y="1" type="curve" smooth="yes"/>
			<point x="912" y="858" type="line" smooth="yes"/>
			<point x="915" y="867"/>
			<point x="911" y="870"/>
			<point x="900" y="870" type="curve" smooth="yes"/>
			<point x="889" y="870"/>
			<point x="884" y="867"/>
			<point x="881" y="858" type="curve" smooth="yes"/>
			<point x="602" y="1" type="line" smooth="yes"/>
			<point x="599" y="-8"/>
			<point x="603" y="-11"/>
		</contour>
	</outline>
</glyph>
<glyph name="five" format="2">
	<unicode hex="0035"/>
	<advance width="901"/>
	<outline>
		<contour>
			<point x="448" y="-15" type="curve" smooth="yes"/>
			<point x="676" y="-15"/>
			<point x="863" y="153"/>
			<point x="863" y="432" type="curve" smooth="yes"/>
			<point x="863" y="619"/>
			<point x="756" y="725"/>
			<point x="592" y="725" type="curve" smooth="yes"/>
			<point x="477" y="725"/>
			<point x="364" y="660"/>
			<point x="294" y="595" type="curve"/>
			<point x="489" y="1162" type="line"/>
			<point x="1016" y="1162" type="line" smooth="yes"/>
			<point x="1026" y="1162"/>
			<point x="1031" y="1170"/>
			<point x="1031" y="1181" type="curve" smooth="yes"/>
			<point x="1031" y="1187"/>
			<point x="1028" y="1190"/>
			<point x="1023" y="1190" type="curve" smooth="yes"/>
			<point x="482" y="1190" type="line" smooth="yes"/>
			<point x="471" y="1190"/>
			<point x="466" y="1187"/>
			<point x="463" y="1178" type="curve" smooth="yes"/>
			<point x="249" y="553" type="line" smooth="yes"/>
			<point x="245" y="541"/>
			<point x="263" y="533"/>
			<point x="274" y="543" type="curve" smooth="yes"/>
			<point x="363" y="626"/>
			<point x="474" y="695"/>
			<point x="592" y="695" type="curve" smooth="yes"/>
			<point x="738" y="695"/>
			<point x="830" y="599"/>
			<point x="830" y="432" type="curve" smooth="yes"/>
			<point x="830" y="175"/>
			<point x="659" y="15"/>
			<point x="448" y="15" type="curve" smooth="yes"/>
			<point x="278" y="15"/>
			<point x="154" y="118"/>
			<point x="122" y="239" type="curve" smooth="yes"/>
			<point x="119" y="249"/>
			<point x="116" y="254"/>
			<point x="103" y="250" type="curve" smooth="yes"/>
			<point x="93" y="247"/>
			<point x="91" y="241"/>
			<point x="94" y="229" type="curve" smooth="yes"/>
			<point x="130" y="89"/>
			<point x="276" y="-15"/>
		</contour>
	</outline>
</glyph>
<glyph name="six" format="2">
  <advance width="968"/>
  <unicode hex="0036"/>
  <outline>
    <contour>
      <point x="526" y="-15" type="curve" smooth="yes"/>
      <point x="751" y="-15"/>
      <point x="928" y="160"/>
      <point x="928" y="413" type="curve" smooth="yes"/>
      <point x="928" y="606"/>
      <point x="814" y="705"/>
      <point x="665" y="705" type="curve" smooth="yes"/>
      <point x="508" y="705"/>
      <point x="343" y="582"/>
      <point x="245" y="428" type="curve"/>
      <point x="245" y="379" type="line"/>
      <point x="322" y="508"/>
      <point x="486" y="679"/>
      <point x="665" y="675" type="curve" smooth="yes"/>
      <point x="792" y="672"/>
      <point x="895" y="597"/>
      <point x="895" y="413" type="curve" smooth="yes"/>
      <point x="895" y="187"/>
      <point x="740" y="15"/>
      <point x="526" y="15" type="curve" smooth="yes"/>
      <point x="362" y="15"/>
      <point x="249" y="114"/>
      <point x="249" y="379" type="curve" smooth="yes"/>
      <point x="249" y="832"/>
      <point x="587" y="1144"/>
      <point x="978" y="1186" type="curve" smooth="yes"/>
      <point x="989" y="1187"/>
      <point x="994" y="1190"/>
      <point x="993" y="1201" type="curve" smooth="yes"/>
      <point x="992" y="1212"/>
      <point x="987" y="1213"/>
      <point x="971" y="1211" type="curve" smooth="yes"/>
      <point x="518" y="1167"/>
      <point x="218" y="810"/>
      <point x="218" y="379" type="curve" smooth="yes"/>
      <point x="218" y="91"/>
      <point x="344" y="-15"/>
    </contour>
  </outline>
</glyph>
<glyph name="seven" format="2">
	<unicode hex="0037"/>
	<advance width="731"/>
	<outline>
		<contour>
			<point x="122" y="-10" type="curve" smooth="yes"/>
			<point x="135" y="-14"/>
			<point x="140" y="-10"/>
			<point x="148" y="2" type="curve" smooth="yes"/>
			<point x="973" y="1175" type="line" smooth="yes"/>
			<point x="980" y="1185"/>
			<point x="973" y="1190"/>
			<point x="966" y="1190" type="curve" smooth="yes"/>
			<point x="373" y="1190" type="line" smooth="yes"/>
			<point x="368" y="1190"/>
			<point x="361" y="1187"/>
			<point x="358" y="1177" type="curve" smooth="yes"/>
			<point x="355" y="1167"/>
			<point x="359" y="1162"/>
			<point x="364" y="1162" type="curve" smooth="yes"/>
			<point x="929" y="1162" type="line"/>
			<point x="119" y="10" type="line" smooth="yes"/>
			<point x="112" y="0"/>
			<point x="112" y="-7"/>
		</contour>
	</outline>
</glyph>
<glyph name="eight" format="2">
	<unicode hex="0038"/>
	<advance width="901"/>
	<outline>
		<contour>
			<point x="455" y="-15" type="curve" smooth="yes"/>
			<point x="691" y="-15"/>
			<point x="860" y="117"/>
			<point x="860" y="300" type="curve" smooth="yes"/>
			<point x="860" y="428"/>
			<point x="775" y="542"/>
			<point x="620" y="641" type="curve"/>
			<point x="831" y="716"/>
			<point x="957" y="837"/>
			<point x="957" y="971" type="curve" smooth="yes"/>
			<point x="957" y="1110"/>
			<point x="839" y="1212"/>
			<point x="683" y="1212" type="curve" smooth="yes"/>
			<point x="485" y="1212"/>
			<point x="344" y="1103"/>
			<point x="344" y="951" type="curve" smooth="yes"/>
			<point x="344" y="838"/>
			<point x="417" y="735"/>
			<point x="552" y="647" type="curve"/>
			<point x="298" y="548"/>
			<point x="143" y="396"/>
			<point x="143" y="244" type="curve" smooth="yes"/>
			<point x="143" y="94"/>
			<point x="274" y="-15"/>
		</contour>
		<contour>
			<point x="459" y="15" type="curve" smooth="yes"/>
			<point x="295" y="15"/>
			<point x="176" y="111"/>
			<point x="176" y="244" type="curve" smooth="yes"/>
			<point x="176" y="386"/>
			<point x="330" y="532"/>
			<point x="585" y="626" type="curve"/>
			<point x="743" y="530"/>
			<point x="827" y="420"/>
			<point x="827" y="300" type="curve" smooth="yes"/>
			<point x="827" y="135"/>
			<point x="673" y="15"/>
		</contour>
		<contour>
			<point x="587" y="659" type="curve"/>
			<point x="449" y="752"/>
			<point x="377" y="850"/>
			<point x="377" y="951" type="curve" smooth="yes"/>
			<point x="377" y="1085"/>
			<point x="504" y="1182"/>
			<point x="679" y="1182" type="curve" smooth="yes"/>
			<point x="819" y="1182"/>
			<point x="924" y="1094"/>
			<point x="924" y="971" type="curve" smooth="yes"/>
			<point x="924" y="847"/>
			<point x="799" y="730"/>
		</contour>
	</outline>
</glyph>
<glyph name="less" format="2">
	<unicode hex="003C"/>
	<advance width="610"/>
	<outline>
		<contour>
			<point x="494" y="143" type="line" smooth="yes"/>
			<point x="502" y="139"/>
			<point x="509" y="140"/>
			<point x="514" y="149" type="curve" smooth="yes"/>
			<point x="519" y="157"/>
			<point x="515" y="164"/>
			<point x="509" y="167" type="curve" smooth="yes"/>
			<point x="165" y="346" type="line"/>
			<point x="637" y="529" type="line" smooth="yes"/>
			<point x="647" y="533"/>
			<point x="648" y="538"/>
			<point x="645" y="548" type="curve" smooth="yes"/>
			<point x="642" y="558"/>
			<point x="638" y="559"/>
			<point x="628" y="555" type="curve" smooth="yes"/>
			<point x="162" y="374" type="line" smooth="yes"/>
			<point x="142" y="366"/>
			<point x="134" y="363"/>
			<point x="129" y="349" type="curve" smooth="yes"/>
			<point x="125" y="336"/>
			<point x="130" y="332"/>
			<point x="146" y="324" type="curve" smooth="yes"/>
		</contour>
	</outline>
</glyph>
<glyph name="question" format="2">
	<unicode hex="003F"/>
	<advance width="677"/>
	<outline>
		<contour>
			<point x="251" y="173" type="curve" smooth="yes"/>
			<point x="262" y="173"/>
			<point x="267" y="176"/>
			<point x="270" y="185" type="curve" smooth="yes"/>
			<point x="378" y="516" type="line"/>
			<point x="674" y="590"/>
			<point x="889" y="804"/>
			<point x="889" y="1025" type="curve" smooth="yes"/>
			<point x="889" y="1141"/>
			<point x="802" y="1212"/>
			<point x="660" y="1212" type="curve" smooth="yes"/>
			<point x="545" y="1212"/>
			<point x="406" y="1159"/>
			<point x="293" y="1078" type="curve" smooth="yes"/>
			<point x="286" y="1073"/>
			<point x="284" y="1066"/>
			<point x="288" y="1059" type="curve" smooth="yes"/>
			<point x="294" y="1049"/>
			<point x="301" y="1048"/>
			<point x="308" y="1053" type="curve" smooth="yes"/>
			<point x="415" y="1130"/>
			<point x="545" y="1182"/>
			<point x="656" y="1182" type="curve" smooth="yes"/>
			<point x="780" y="1182"/>
			<point x="856" y="1123"/>
			<point x="856" y="1025" type="curve" smooth="yes"/>
			<point x="856" y="817"/>
			<point x="651" y="615"/>
			<point x="367" y="544" type="curve" smooth="yes"/>
			<point x="360" y="542"/>
			<point x="355" y="540"/>
			<point x="352" y="530" type="curve" smooth="yes"/>
			<point x="239" y="185" type="line" smooth="yes"/>
			<point x="236" y="176"/>
			<point x="240" y="173"/>
		</contour>
		<contour>
			<point x="197" y="-11" type="curve" smooth="yes"/>
			<point x="221" y="-11"/>
			<point x="238" y="9"/>
			<point x="238" y="37" type="curve" smooth="yes"/>
			<point x="238" y="52"/>
			<point x="227" y="61"/>
			<point x="209" y="61" type="curve" smooth="yes"/>
			<point x="185" y="61"/>
			<point x="168" y="41"/>
			<point x="168" y="13" type="curve" smooth="yes"/>
			<point x="168" y="-2"/>
			<point x="179" y="-11"/>
		</contour>
	</outline>
</glyph>
<glyph name="A" format="2">
	<unicode hex="0041"/>
	<advance width="929"/>
	<outline>
		<contour>
			<point x="-4" y="-11" type="curve" smooth="yes"/>
			<point x="5" y="-11"/>
			<point x="10" y="-8"/>
			<point x="16" y="1" type="curve" smooth="yes"/>
			<point x="257" y="380" type="line"/>
			<point x="773" y="380" type="line"/>
			<point x="787" y="3" type="line" smooth="yes"/>
			<point x="787" y="-8"/>
			<point x="792" y="-11"/>
			<point x="802" y="-11" type="curve" smooth="yes"/>
			<point x="813" y="-11"/>
			<point x="816" y="-8"/>
			<point x="816" y="4" type="curve" smooth="yes"/>
			<point x="770" y="1200" type="line" smooth="yes"/>
			<point x="770" y="1208"/>
			<point x="766" y="1212"/>
			<point x="756" y="1212" type="curve" smooth="yes"/>
			<point x="746" y="1212"/>
			<point x="743" y="1210"/>
			<point x="738" y="1202" type="curve" smooth="yes"/>
			<point x="-14" y="8" type="line" smooth="yes"/>
			<point x="-22" y="-5"/>
			<point x="-16" y="-11"/>
		</contour>
		<contour>
			<point x="274" y="408" type="line"/>
			<point x="746" y="1166" type="line"/>
			<point x="771" y="408" type="line"/>
		</contour>
	</outline>
	<anchor name="bottom" x="400" y="0"/>
	<anchor name="ogonek" x="823" y="0"/>
	<anchor name="top" x="722" y="1139"/>
</glyph>
<glyph name="B" format="2">
	<unicode hex="0042"/>
	<advance width="900"/>
	<outline>
		<contour>
			<point x="144" y="0" type="curve" smooth="yes"/>
			<point x="389" y="0" type="line" smooth="yes"/>
			<point x="649" y="0"/>
			<point x="892" y="162"/>
			<point x="892" y="430" type="curve" smooth="yes"/>
			<point x="892" y="564"/>
			<point x="805" y="624"/>
			<point x="682" y="629" type="curve"/>
			<point x="684" y="635" type="line"/>
			<point x="894" y="662"/>
			<point x="1029" y="810"/>
			<point x="1029" y="997" type="curve" smooth="yes"/>
			<point x="1029" y="1114"/>
			<point x="948" y="1190"/>
			<point x="766" y="1190" type="curve" smooth="yes"/>
			<point x="530" y="1190" type="line" smooth="yes"/>
			<point x="519" y="1190"/>
			<point x="513" y="1187"/>
			<point x="510" y="1178" type="curve" smooth="yes"/>
			<point x="133" y="12" type="line" smooth="yes"/>
			<point x="130" y="3"/>
			<point x="133" y="0"/>
		</contour>
		<contour>
			<point x="168" y="28" type="line"/>
			<point x="358" y="615" type="line"/>
			<point x="601" y="615" type="line" smooth="yes"/>
			<point x="754" y="615"/>
			<point x="857" y="562"/>
			<point x="857" y="430" type="curve" smooth="yes"/>
			<point x="857" y="196"/>
			<point x="653" y="28"/>
			<point x="372" y="28" type="curve" smooth="yes"/>
		</contour>
		<contour>
			<point x="367" y="643" type="line"/>
			<point x="535" y="1162" type="line"/>
			<point x="760" y="1162" type="line" smooth="yes"/>
			<point x="912" y="1162"/>
			<point x="997" y="1105"/>
			<point x="997" y="996" type="curve" smooth="yes"/>
			<point x="997" y="797"/>
			<point x="811" y="643"/>
			<point x="580" y="643" type="curve" smooth="yes"/>
		</contour>
	</outline>
	<anchor name="bottom" x="385" y="0"/>
	<anchor name="center" x="257" y="350"/>
	<anchor name="top" x="757" y="1139"/>
</glyph>
<glyph name="C" format="2">
  <advance width="961"/>
  <unicode hex="0043"/>
  <anchor x="474" y="0" name="bottom"/>
  <anchor x="828" y="1139" name="top"/>
  <outline>
    <contour>
      <point x="509" y="-26" type="curve" smooth="yes"/>
      <point x="668" y="-26"/>
      <point x="811" y="91"/>
      <point x="945" y="264" type="curve" smooth="yes"/>
      <point x="952" y="273"/>
      <point x="951" y="281"/>
      <point x="944" y="286" type="curve" smooth="yes"/>
      <point x="935" y="293"/>
      <point x="930" y="292"/>
      <point x="924" y="284" type="curve" smooth="yes"/>
      <point x="802" y="132"/>
      <point x="669" y="4"/>
      <point x="509" y="4" type="curve" smooth="yes"/>
      <point x="353" y="4"/>
      <point x="244" y="140"/>
      <point x="244" y="369" type="curve" smooth="yes"/>
      <point x="244" y="728"/>
      <point x="492" y="1182"/>
      <point x="859" y="1182" type="curve" smooth="yes"/>
      <point x="960" y="1182"/>
      <point x="1040" y="1143"/>
      <point x="1110" y="1062" type="curve" smooth="yes"/>
      <point x="1121" y="1050"/>
      <point x="1123" y="1047"/>
      <point x="1132" y="1051" type="curve" smooth="yes"/>
      <point x="1144" y="1057"/>
      <point x="1148" y="1064"/>
      <point x="1142" y="1073" type="curve" smooth="yes"/>
      <point x="1086" y="1157"/>
      <point x="980" y="1212"/>
      <point x="859" y="1212" type="curve" smooth="yes"/>
      <point x="474" y="1212"/>
      <point x="211" y="753"/>
      <point x="211" y="369" type="curve" smooth="yes"/>
      <point x="211" y="116"/>
      <point x="327" y="-26"/>
    </contour>
  </outline>
</glyph>
<glyph name="D" format="2">
  <advance width="1344"/>
  <unicode hex="0044"/>
  <anchor x="583" y="0" name="bottom"/>
  <anchor x="458" y="741" name="center"/>
  <anchor x="984" y="1424" name="top"/>
  <outline>
    <contour>
      <point x="183" y="0" type="curve" smooth="yes"/>
      <point x="485" y="0" type="line" smooth="yes"/>
      <point x="1023" y="0"/>
      <point x="1399" y="438"/>
      <point x="1399" y="1043" type="curve" smooth="yes"/>
      <point x="1399" y="1333"/>
      <point x="1254" y="1488"/>
      <point x="932" y="1488" type="curve" smooth="yes"/>
      <point x="660" y="1488" type="line" smooth="yes"/>
      <point x="644" y="1488"/>
      <point x="640" y="1484"/>
      <point x="637" y="1473" type="curve" smooth="yes"/>
      <point x="168" y="15" type="line" smooth="yes"/>
      <point x="164" y="4"/>
      <point x="170" y="0"/>
    </contour>
    <contour>
      <point x="213" y="35" type="line"/>
      <point x="669" y="1453" type="line"/>
      <point x="928" y="1453" type="line" smooth="yes"/>
      <point x="1225" y="1453"/>
      <point x="1358" y="1310"/>
      <point x="1358" y="1043" type="curve" smooth="yes"/>
      <point x="1358" y="459"/>
      <point x="992" y="35"/>
      <point x="485" y="35" type="curve" smooth="yes"/>
    </contour>
  </outline>
</glyph>
<glyph name="E" format="2">
  <advance width="1025"/>
  <unicode hex="0045"/>
  <anchor x="534" y="0" name="bottom"/>
  <anchor x="850" y="0" name="ogonek"/>
  <anchor x="953" y="1424" name="top"/>
  <outline>
    <contour>
      <point x="182" y="0" type="curve" smooth="yes"/>
      <point x="850" y="0" type="line" smooth="yes"/>
      <point x="863" y="0"/>
      <point x="868" y="4"/>
      <point x="872" y="18" type="curve" smooth="yes"/>
      <point x="874" y="29"/>
      <point x="874" y="35"/>
      <point x="860" y="35" type="curve" smooth="yes"/>
      <point x="212" y="35" type="line"/>
      <point x="448" y="769" type="line"/>
      <point x="1002" y="769" type="line" smooth="yes"/>
      <point x="1014" y="769"/>
      <point x="1019" y="773"/>
      <point x="1023" y="786" type="curve" smooth="yes"/>
      <point x="1025" y="798"/>
      <point x="1025" y="804"/>
      <point x="1012" y="804" type="curve" smooth="yes"/>
      <point x="459" y="804" type="line"/>
      <point x="668" y="1453" type="line"/>
      <point x="1322" y="1453" type="line" smooth="yes"/>
      <point x="1334" y="1453"/>
      <point x="1339" y="1456"/>
      <point x="1343" y="1470" type="curve" smooth="yes"/>
      <point x="1345" y="1481"/>
      <point x="1345" y="1488"/>
      <point x="1332" y="1488" type="curve" smooth="yes"/>
      <point x="660" y="1488" type="line" smooth="yes"/>
      <point x="644" y="1488"/>
      <point x="640" y="1484"/>
      <point x="637" y="1473" type="curve" smooth="yes"/>
      <point x="167" y="15" type="line" smooth="yes"/>
      <point x="163" y="4"/>
      <point x="169" y="0"/>
    </contour>
  </outline>
</glyph>
<glyph name="F" format="2">
	<unicode hex="0046"/>
	<advance width="774"/>
	<outline>
		<contour>
			<point x="144" y="-11" type="curve" smooth="yes"/>
			<point x="156" y="-11"/>
			<point x="160" y="-8"/>
			<point x="163" y="1" type="curve" smooth="yes"/>
			<point x="350" y="581" type="line"/>
			<point x="775" y="581" type="line" smooth="yes"/>
			<point x="785" y="581"/>
			<point x="789" y="584"/>
			<point x="792" y="595" type="curve" smooth="yes"/>
			<point x="794" y="604"/>
			<point x="794" y="609"/>
			<point x="783" y="609" type="curve" smooth="yes"/>
			<point x="359" y="609" type="line"/>
			<point x="536" y="1162" type="line"/>
			<point x="1043" y="1162" type="line" smooth="yes"/>
			<point x="1053" y="1162"/>
			<point x="1057" y="1165"/>
			<point x="1060" y="1176" type="curve" smooth="yes"/>
			<point x="1062" y="1185"/>
			<point x="1062" y="1190"/>
			<point x="1051" y="1190" type="curve" smooth="yes"/>
			<point x="529" y="1190" type="line" smooth="yes"/>
			<point x="516" y="1190"/>
			<point x="513" y="1187"/>
			<point x="510" y="1178" type="curve" smooth="yes"/>
			<point x="132" y="1" type="line" smooth="yes"/>
			<point x="129" y="-8"/>
			<point x="134" y="-11"/>
		</contour>
	</outline>
</glyph>
<glyph name="G" format="2">
	<unicode hex="0047"/>
	<advance width="1085"/>
	<outline>
		<contour>
			<point x="507" y="-15" type="curve" smooth="yes"/>
			<point x="760" y="-15"/>
			<point x="939" y="215"/>
			<point x="1080" y="604" type="curve" smooth="yes"/>
			<point x="1083" y="613"/>
			<point x="1080" y="616"/>
			<point x="1069" y="616" type="curve"/>
			<point x="732" y="616" type="line" smooth="yes"/>
			<point x="723" y="616"/>
			<point x="719" y="612"/>
			<point x="716" y="603" type="curve" smooth="yes"/>
			<point x="714" y="597"/>
			<point x="712" y="588"/>
			<point x="723" y="588" type="curve" smooth="yes"/>
			<point x="1042" y="588" type="line"/>
			<point x="903" y="215"/>
			<point x="724" y="15"/>
			<point x="507" y="15" type="curve" smooth="yes"/>
			<point x="354" y="15"/>
			<point x="241" y="147"/>
			<point x="241" y="357" type="curve" smooth="yes"/>
			<point x="241" y="730"/>
			<point x="497" y="1182"/>
			<point x="872" y="1182" type="curve" smooth="yes"/>
			<point x="972" y="1182"/>
			<point x="1048" y="1144"/>
			<point x="1104" y="1061" type="curve" smooth="yes"/>
			<point x="1110" y="1052"/>
			<point x="1115" y="1046"/>
			<point x="1125" y="1052" type="curve" smooth="yes"/>
			<point x="1137" y="1059"/>
			<point x="1138" y="1063"/>
			<point x="1131" y="1075" type="curve" smooth="yes"/>
			<point x="1073" y="1168"/>
			<point x="981" y="1212"/>
			<point x="872" y="1212" type="curve" smooth="yes"/>
			<point x="481" y="1212"/>
			<point x="208" y="756"/>
			<point x="208" y="357" type="curve" smooth="yes"/>
			<point x="208" y="126"/>
			<point x="324" y="-15"/>
		</contour>
	</outline>
	<anchor name="bottom" x="493" y="0"/>
	<anchor name="top" x="836" y="1139"/>
</glyph>
<glyph name="I" format="2">
  <advance width="418"/>
  <unicode hex="0049"/>
  <anchor x="145" y="0" name="bottom"/>
  <anchor x="160" y="0" name="ogonek"/>
  <anchor x="506" y="1139" name="top"/>
  <outline>
    <contour>
      <point x="142" y="-11" type="curve" smooth="yes"/>
      <point x="155" y="-11"/>
      <point x="158" y="-8"/>
      <point x="161" y="1" type="curve" smooth="yes"/>
      <point x="548" y="1200" type="line" smooth="yes"/>
      <point x="551" y="1209"/>
      <point x="546" y="1212"/>
      <point x="536" y="1212" type="curve" smooth="yes"/>
      <point x="523" y="1212"/>
      <point x="520" y="1209"/>
      <point x="517" y="1200" type="curve" smooth="yes"/>
      <point x="130" y="1" type="line" smooth="yes"/>
      <point x="127" y="-8"/>
      <point x="132" y="-11"/>
    </contour>
  </outline>
</glyph>
<glyph name="J" format="2">
  <advance width="1006"/>
  <unicode hex="004A"/>
  <anchor x="423" y="0" name="bottom"/>
  <anchor x="1143" y="1424" name="top"/>
  <outline>
    <contour>
      <point x="441" y="-19" type="curve" smooth="yes"/>
      <point x="656" y="-19"/>
      <point x="753" y="130"/>
      <point x="868" y="486" type="curve" smooth="yes"/>
      <point x="1196" y="1500" type="line" smooth="yes"/>
      <point x="1200" y="1510"/>
      <point x="1196" y="1515"/>
      <point x="1181" y="1515" type="curve" smooth="yes"/>
      <point x="1165" y="1515"/>
      <point x="1161" y="1511"/>
      <point x="1158" y="1500" type="curve" smooth="yes"/>
      <point x="831" y="495" type="line" smooth="yes"/>
      <point x="720" y="154"/>
      <point x="624" y="19"/>
      <point x="445" y="19" type="curve" smooth="yes"/>
      <point x="311" y="19"/>
      <point x="225" y="96"/>
      <point x="174" y="275" type="curve" smooth="yes"/>
      <point x="169" y="293"/>
      <point x="164" y="300"/>
      <point x="151" y="298" type="curve" smooth="yes"/>
      <point x="139" y="295"/>
      <point x="131" y="288"/>
      <point x="138" y="268" type="curve" smooth="yes"/>
      <point x="185" y="80"/>
      <point x="290" y="-19"/>
    </contour>
  </outline>
</glyph>
<glyph name="K" format="2">
  <advance width="1065"/>
  <unicode hex="004B"/>
  <anchor x="510" y="0" name="bottom"/>
  <anchor x="975" y="1424" name="top"/>
  <outline>
    <contour>
      <point x="174" y="-14" type="curve" smooth="yes"/>
      <point x="188" y="-14"/>
      <point x="196" y="-10"/>
      <point x="200" y="1" type="curve" smooth="yes"/>
      <point x="454" y="784" type="line"/>
      <point x="586" y="449"/>
      <point x="730" y="228"/>
      <point x="924" y="1" type="curve" smooth="yes"/>
      <point x="936" y="-14"/>
      <point x="944" y="-19"/>
      <point x="956" y="-10" type="curve" smooth="yes"/>
      <point x="968" y="-1"/>
      <point x="968" y="6"/>
      <point x="959" y="16" type="curve" smooth="yes"/>
      <point x="769" y="236"/>
      <point x="620" y="464"/>
      <point x="495" y="784" type="curve"/>
      <point x="1358" y="1479" type="line" smooth="yes"/>
      <point x="1368" y="1486"/>
      <point x="1369" y="1493"/>
      <point x="1360" y="1504" type="curve" smooth="yes"/>
      <point x="1350" y="1515"/>
      <point x="1344" y="1513"/>
      <point x="1329" y="1500" type="curve" smooth="yes"/>
      <point x="459" y="798" type="line"/>
      <point x="686" y="1500" type="line" smooth="yes"/>
      <point x="690" y="1511"/>
      <point x="684" y="1515"/>
      <point x="670" y="1515" type="curve" smooth="yes"/>
      <point x="656" y="1515"/>
      <point x="650" y="1511"/>
      <point x="646" y="1500" type="curve" smooth="yes"/>
      <point x="160" y="1" type="line" smooth="yes"/>
      <point x="156" y="-10"/>
      <point x="160" y="-14"/>
    </contour>
  </outline>
</glyph>
<glyph name="L" format="2">
	<unicode hex="004C"/>
	<advance width="775"/>
	<outline>
		<contour>
			<point x="144" y="0" type="curve" smooth="yes"/>
			<point x="659" y="0" type="line" smooth="yes"/>
			<point x="669" y="0"/>
			<point x="673" y="3"/>
			<point x="676" y="14" type="curve" smooth="yes"/>
			<point x="678" y="23"/>
			<point x="678" y="28"/>
			<point x="667" y="28" type="curve" smooth="yes"/>
			<point x="168" y="28" type="line"/>
			<point x="548" y="1200" type="line" smooth="yes"/>
			<point x="551" y="1209"/>
			<point x="546" y="1212"/>
			<point x="536" y="1212" type="curve" smooth="yes"/>
			<point x="523" y="1212"/>
			<point x="520" y="1209"/>
			<point x="517" y="1200" type="curve" smooth="yes"/>
			<point x="132" y="12" type="line" smooth="yes"/>
			<point x="129" y="3"/>
			<point x="134" y="0"/>
		</contour>
	</outline>
	<anchor name="bottom" x="400" y="0"/>
	<anchor name="center" x="339" y="612"/>
	<anchor name="centerCase" x="370" y="612"/>
	<anchor name="top" x="514" y="1139"/>
	<anchor name="topright" x="586" y="1190"/>
</glyph>
<glyph name="M" format="2">
	<unicode hex="004D"/>
	<advance width="1300"/>
	<outline>
		<contour>
			<point x="139" y="-11" type="curve" smooth="yes"/>
			<point x="152" y="-11"/>
			<point x="155" y="-8"/>
			<point x="158" y="1" type="curve" smooth="yes"/>
			<point x="532" y="1151" type="line"/>
			<point x="692" y="393" type="line" smooth="yes"/>
			<point x="694" y="383"/>
			<point x="699" y="381"/>
			<point x="708" y="381" type="curve" smooth="yes"/>
			<point x="716" y="381"/>
			<point x="720" y="382"/>
			<point x="730" y="393" type="curve" smooth="yes"/>
			<point x="1386" y="1151" type="line"/>
			<point x="1013" y="1" type="line" smooth="yes"/>
			<point x="1010" y="-8"/>
			<point x="1015" y="-11"/>
			<point x="1025" y="-11" type="curve" smooth="yes"/>
			<point x="1037" y="-11"/>
			<point x="1040" y="-8"/>
			<point x="1043" y="1" type="curve" smooth="yes"/>
			<point x="1432" y="1197" type="line" smooth="yes"/>
			<point x="1436" y="1208"/>
			<point x="1430" y="1212"/>
			<point x="1420" y="1212" type="curve" smooth="yes"/>
			<point x="1405" y="1212"/>
			<point x="1401" y="1210"/>
			<point x="1394" y="1202" type="curve" smooth="yes"/>
			<point x="715" y="417" type="line"/>
			<point x="549" y="1202" type="line" smooth="yes"/>
			<point x="547" y="1210"/>
			<point x="544" y="1212"/>
			<point x="536" y="1212" type="curve" smooth="yes"/>
			<point x="523" y="1212"/>
			<point x="520" y="1209"/>
			<point x="517" y="1200" type="curve" smooth="yes"/>
			<point x="128" y="1" type="line" smooth="yes"/>
			<point x="125" y="-8"/>
			<point x="130" y="-11"/>
		</contour>
	</outline>
	<anchor name="bottom" x="602" y="0"/>
	<anchor name="top" x="943" y="1139"/>
</glyph>
<glyph name="N" format="2">
  <advance width="1100"/>
  <unicode hex="004E"/>
  <anchor x="485" y="0" name="bottom"/>
  <anchor x="857" y="1139" name="top"/>
  <outline>
    <contour>
      <point x="142" y="-11" type="curve" smooth="yes"/>
      <point x="155" y="-11"/>
      <point x="158" y="-8"/>
      <point x="161" y="1" type="curve" smooth="yes"/>
      <point x="533" y="1152" type="line"/>
      <point x="810" y="-1" type="line" smooth="yes"/>
      <point x="812" y="-9"/>
      <point x="816" y="-11"/>
      <point x="827" y="-11" type="curve" smooth="yes"/>
      <point x="837" y="-11"/>
      <point x="840" y="-8"/>
      <point x="843" y="1" type="curve" smooth="yes"/>
      <point x="1229" y="1200" type="line" smooth="yes"/>
      <point x="1232" y="1209"/>
      <point x="1227" y="1212"/>
      <point x="1217" y="1212" type="curve" smooth="yes"/>
      <point x="1205" y="1212"/>
      <point x="1202" y="1209"/>
      <point x="1199" y="1200" type="curve" smooth="yes"/>
      <point x="828" y="49" type="line"/>
      <point x="551" y="1202" type="line" smooth="yes"/>
      <point x="549" y="1210"/>
      <point x="545" y="1212"/>
      <point x="533" y="1212" type="curve" smooth="yes"/>
      <point x="523" y="1212"/>
      <point x="520" y="1209"/>
      <point x="517" y="1200" type="curve" smooth="yes"/>
      <point x="130" y="1" type="line" smooth="yes"/>
      <point x="127" y="-8"/>
      <point x="132" y="-11"/>
    </contour>
  </outline>
</glyph>
<glyph name="O" format="2">
	<unicode hex="004F"/>
	<advance width="1147"/>
	<outline>
		<contour>
			<point x="546" y="-15" type="curve" smooth="yes"/>
			<point x="909" y="-15"/>
			<point x="1201" y="438"/>
			<point x="1201" y="852" type="curve" smooth="yes"/>
			<point x="1201" y="1077"/>
			<point x="1080" y="1212"/>
			<point x="869" y="1212" type="curve" smooth="yes"/>
			<point x="507" y="1212"/>
			<point x="213" y="799"/>
			<point x="213" y="370" type="curve" smooth="yes"/>
			<point x="213" y="129"/>
			<point x="335" y="-15"/>
		</contour>
		<contour>
			<point x="545" y="15" type="curve" smooth="yes"/>
			<point x="357" y="15"/>
			<point x="246" y="146"/>
			<point x="246" y="370" type="curve" smooth="yes"/>
			<point x="246" y="785"/>
			<point x="528" y="1182"/>
			<point x="869" y="1182" type="curve" smooth="yes"/>
			<point x="1057" y="1182"/>
			<point x="1168" y="1060"/>
			<point x="1168" y="852" type="curve" smooth="yes"/>
			<point x="1168" y="453"/>
			<point x="886" y="15"/>
		</contour>
	</outline>
	<anchor name="bottom" x="508" y="0"/>
	<anchor name="center" x="702" y="595"/>
	<anchor name="ogonek" x="972" y="17"/>
	<anchor name="top" x="850" y="1139"/>
	<anchor name="topright" x="1086" y="1139"/>
</glyph>
<glyph name="P" format="2">
  <advance width="1084"/>
  <unicode hex="0050"/>
  <outline>
    <contour>
      <point x="174" y="-14" type="curve" smooth="yes"/>
      <point x="189" y="-14"/>
      <point x="193" y="-10"/>
      <point x="197" y="1" type="curve" smooth="yes"/>
      <point x="402" y="634" type="line"/>
      <point x="512" y="641"/>
      <point x="610" y="651"/>
      <point x="713" y="665" type="curve" smooth="yes"/>
      <point x="1072" y="715"/>
      <point x="1284" y="919"/>
      <point x="1284" y="1214" type="curve" smooth="yes"/>
      <point x="1284" y="1421"/>
      <point x="1164" y="1488"/>
      <point x="934" y="1488" type="curve" smooth="yes"/>
      <point x="660" y="1488" type="line" smooth="yes"/>
      <point x="644" y="1488"/>
      <point x="640" y="1484"/>
      <point x="637" y="1473" type="curve" smooth="yes"/>
      <point x="159" y="1" type="line" smooth="yes"/>
      <point x="155" y="-10"/>
      <point x="162" y="-14"/>
    </contour>
    <contour>
      <point x="415" y="673" type="curve"/>
      <point x="668" y="1453" type="line"/>
      <point x="939" y="1453" type="line" smooth="yes"/>
      <point x="1135" y="1453"/>
      <point x="1243" y="1394"/>
      <point x="1243" y="1214" type="curve" smooth="yes"/>
      <point x="1243" y="936"/>
      <point x="1042" y="745"/>
      <point x="702" y="699" type="curve" smooth="yes"/>
      <point x="619" y="688"/>
      <point x="512" y="676"/>
    </contour>
  </outline>
</glyph>
<glyph name="Q" format="2">
	<unicode hex="0051"/>
	<advance width="1147"/>
	<outline>
		<contour>
			<point x="753" y="-221" type="curve" smooth="yes"/>
			<point x="762" y="-219"/>
			<point x="765" y="-214"/>
			<point x="762" y="-203" type="curve" smooth="yes"/>
			<point x="646" y="219" type="line" smooth="yes"/>
			<point x="643" y="229"/>
			<point x="639" y="233"/>
			<point x="628" y="230" type="curve" smooth="yes"/>
			<point x="618" y="227"/>
			<point x="615" y="223"/>
			<point x="618" y="212" type="curve" smooth="yes"/>
			<point x="734" y="-210" type="line" smooth="yes"/>
			<point x="737" y="-220"/>
			<point x="742" y="-224"/>
		</contour>
		<component base="O"/>
	</outline>
	<anchor name="bottom" x="508" y="0"/>
	<anchor name="center" x="702" y="595"/>
	<anchor name="ogonek" x="972" y="17"/>
	<anchor name="top" x="850" y="1139"/>
	<anchor name="topright" x="1086" y="1139"/>
</glyph>
<glyph name="R" format="2">
	<unicode hex="0052"/>
	<advance width="860"/>
	<outline>
		<contour>
			<point x="139" y="-11" type="curve" smooth="yes"/>
			<point x="152" y="-11"/>
			<point x="155" y="-8"/>
			<point x="158" y="1" type="curve" smooth="yes"/>
			<point x="342" y="565" type="line"/>
			<point x="433" y="377"/>
			<point x="526" y="186"/>
			<point x="681" y="0" type="curve" smooth="yes"/>
			<point x="691" y="-12"/>
			<point x="697" y="-16"/>
			<point x="707" y="-9" type="curve" smooth="yes"/>
			<point x="716" y="-2"/>
			<point x="716" y="4"/>
			<point x="709" y="12" type="curve" smooth="yes"/>
			<point x="575" y="164"/>
			<point x="475" y="354"/>
			<point x="377" y="562" type="curve"/>
			<point x="660" y="578"/>
			<point x="995" y="668"/>
			<point x="995" y="981" type="curve" smooth="yes"/>
			<point x="995" y="1139"/>
			<point x="902" y="1190"/>
			<point x="733" y="1190" type="curve" smooth="yes"/>
			<point x="529" y="1190" type="line" smooth="yes"/>
			<point x="514" y="1190"/>
			<point x="512" y="1187"/>
			<point x="508" y="1174" type="curve" smooth="yes"/>
			<point x="127" y="1" type="line" smooth="yes"/>
			<point x="124" y="-8"/>
			<point x="129" y="-11"/>
		</contour>
		<contour>
			<point x="350" y="590" type="curve"/>
			<point x="535" y="1162" type="line"/>
			<point x="737" y="1162" type="line" smooth="yes"/>
			<point x="875" y="1162"/>
			<point x="963" y="1118"/>
			<point x="963" y="982" type="curve" smooth="yes"/>
			<point x="963" y="639"/>
			<point x="509" y="590"/>
		</contour>
	</outline>
	<anchor name="bottom" x="412" y="0"/>
	<anchor name="top" x="735" y="1139"/>
</glyph>
<glyph name="S" format="2">
	<unicode hex="0053"/>
	<advance width="853"/>
	<outline>
		<contour>
			<point x="426" y="-15" type="curve" smooth="yes"/>
			<point x="641" y="-15"/>
			<point x="806" y="148"/>
			<point x="806" y="341" type="curve" smooth="yes"/>
			<point x="806" y="495"/>
			<point x="689" y="571"/>
			<point x="573" y="643" type="curve" smooth="yes"/>
			<point x="457" y="715"/>
			<point x="379" y="776"/>
			<point x="379" y="904" type="curve" smooth="yes"/>
			<point x="379" y="1058"/>
			<point x="506" y="1182"/>
			<point x="662" y="1182" type="curve" smooth="yes"/>
			<point x="793" y="1182"/>
			<point x="861" y="1117"/>
			<point x="929" y="1042" type="curve" smooth="yes"/>
			<point x="937" y="1034"/>
			<point x="944" y="1033"/>
			<point x="950" y="1038" type="curve" smooth="yes"/>
			<point x="957" y="1044"/>
			<point x="960" y="1049"/>
			<point x="953" y="1058" type="curve" smooth="yes"/>
			<point x="874" y="1150"/>
			<point x="797" y="1212"/>
			<point x="662" y="1212" type="curve" smooth="yes"/>
			<point x="483" y="1212"/>
			<point x="347" y="1077"/>
			<point x="347" y="901" type="curve" smooth="yes"/>
			<point x="347" y="755"/>
			<point x="452" y="685"/>
			<point x="548" y="621" type="curve" smooth="yes"/>
			<point x="684" y="535"/>
			<point x="774" y="477"/>
			<point x="774" y="341" type="curve" smooth="yes"/>
			<point x="774" y="164"/>
			<point x="622" y="15"/>
			<point x="426" y="15" type="curve" smooth="yes"/>
			<point x="279" y="15"/>
			<point x="183" y="97"/>
			<point x="128" y="178" type="curve" smooth="yes"/>
			<point x="125" y="182"/>
			<point x="120" y="188"/>
			<point x="109" y="180" type="curve" smooth="yes"/>
			<point x="100" y="174"/>
			<point x="101" y="168"/>
			<point x="105" y="161" type="curve" smooth="yes"/>
			<point x="138" y="109"/>
			<point x="236" y="-15"/>
		</contour>
	</outline>
	<anchor name="bottom" x="391" y="0"/>
	<anchor name="top" x="668" y="1139"/>
</glyph>
<glyph name="T" format="2">
  <advance width="856"/>
  <unicode hex="0054"/>
  <anchor x="361" y="0" name="bottom"/>
  <anchor x="565" y="595" name="center"/>
  <anchor x="729" y="1139" name="top"/>
  <outline>
    <contour>
      <point x="371" y="-11" type="curve" smooth="yes"/>
      <point x="384" y="-11"/>
      <point x="387" y="-8"/>
      <point x="390" y="1" type="curve" smooth="yes"/>
      <point x="767" y="1162" type="line"/>
      <point x="1120" y="1162" type="line" smooth="yes"/>
      <point x="1130" y="1162"/>
      <point x="1134" y="1165"/>
      <point x="1137" y="1176" type="curve" smooth="yes"/>
      <point x="1139" y="1185"/>
      <point x="1139" y="1190"/>
      <point x="1128" y="1190" type="curve" smooth="yes"/>
      <point x="370" y="1190" type="line" smooth="yes"/>
      <point x="360" y="1190"/>
      <point x="356" y="1187"/>
      <point x="353" y="1177" type="curve" smooth="yes"/>
      <point x="350" y="1167"/>
      <point x="351" y="1162"/>
      <point x="362" y="1162" type="curve" smooth="yes"/>
      <point x="736" y="1162" type="line"/>
      <point x="359" y="1" type="line" smooth="yes"/>
      <point x="356" y="-8"/>
      <point x="361" y="-11"/>
    </contour>
  </outline>
</glyph>
<glyph name="V" format="2">
	<unicode hex="0056"/>
	<advance width="899"/>
	<outline>
		<contour>
			<point x="423" y="-11" type="curve" smooth="yes"/>
			<point x="433" y="-11"/>
			<point x="436" y="-8"/>
			<point x="441" y="-1" type="curve" smooth="yes"/>
			<point x="1174" y="1193" type="line" smooth="yes"/>
			<point x="1179" y="1202"/>
			<point x="1176" y="1212"/>
			<point x="1163" y="1212" type="curve" smooth="yes"/>
			<point x="1153" y="1212"/>
			<point x="1149" y="1209"/>
			<point x="1144" y="1200" type="curve" smooth="yes"/>
			<point x="434" y="37" type="line"/>
			<point x="402" y="1198" type="line" smooth="yes"/>
			<point x="402" y="1209"/>
			<point x="398" y="1212"/>
			<point x="387" y="1212" type="curve" smooth="yes"/>
			<point x="376" y="1212"/>
			<point x="373" y="1209"/>
			<point x="373" y="1197" type="curve" smooth="yes"/>
			<point x="409" y="1" type="line" smooth="yes"/>
			<point x="409" y="-8"/>
			<point x="413" y="-11"/>
		</contour>
	</outline>
</glyph>
<glyph name="W" format="2">
	<unicode hex="0057"/>
	<advance width="1450"/>
	<outline>
		<contour>
			<point x="358" y="-11" type="curve" smooth="yes"/>
			<point x="368" y="-11"/>
			<point x="372" y="-8"/>
			<point x="376" y="-1" type="curve" smooth="yes"/>
			<point x="1034" y="1162" type="line"/>
			<point x="1007" y="1" type="line" smooth="yes"/>
			<point x="1007" y="-8"/>
			<point x="1013" y="-11"/>
			<point x="1023" y="-11" type="curve" smooth="yes"/>
			<point x="1033" y="-11"/>
			<point x="1037" y="-8"/>
			<point x="1041" y="-1" type="curve" smooth="yes"/>
			<point x="1724" y="1191" type="line" smooth="yes"/>
			<point x="1732" y="1204"/>
			<point x="1725" y="1210"/>
			<point x="1713" y="1210" type="curve" smooth="yes"/>
			<point x="1705" y="1210"/>
			<point x="1699" y="1207"/>
			<point x="1694" y="1198" type="curve" smooth="yes"/>
			<point x="1037" y="46" type="line"/>
			<point x="1064" y="1198" type="line" smooth="yes"/>
			<point x="1064" y="1209"/>
			<point x="1058" y="1212"/>
			<point x="1043" y="1212" type="curve" smooth="yes"/>
			<point x="1033" y="1212"/>
			<point x="1028" y="1209"/>
			<point x="1023" y="1200" type="curve" smooth="yes"/>
			<point x="373" y="49" type="line"/>
			<point x="402" y="1198" type="line" smooth="yes"/>
			<point x="402" y="1209"/>
			<point x="398" y="1212"/>
			<point x="388" y="1212" type="curve" smooth="yes"/>
			<point x="377" y="1212"/>
			<point x="373" y="1209"/>
			<point x="373" y="1197" type="curve" smooth="yes"/>
			<point x="344" y="1" type="line" smooth="yes"/>
			<point x="344" y="-8"/>
			<point x="348" y="-11"/>
		</contour>
	</outline>
	<anchor name="bottom" x="718" y="0"/>
	<anchor name="top" x="1014" y="1139"/>
</glyph>
<glyph name="Y" format="2">
	<unicode hex="0059"/>
	<advance width="800"/>
	<outline>
		<contour>
			<point x="348" y="-11" type="curve" smooth="yes"/>
			<point x="359" y="-11"/>
			<point x="365" y="-8"/>
			<point x="368" y="1" type="curve" smooth="yes"/>
			<point x="535" y="517" type="line"/>
			<point x="1111" y="1190" type="line" smooth="yes"/>
			<point x="1118" y="1198"/>
			<point x="1117" y="1203"/>
			<point x="1111" y="1209" type="curve" smooth="yes"/>
			<point x="1102" y="1218"/>
			<point x="1097" y="1215"/>
			<point x="1090" y="1207" type="curve" smooth="yes"/>
			<point x="528" y="546" type="line"/>
			<point x="362" y="1200" type="line" smooth="yes"/>
			<point x="360" y="1209"/>
			<point x="358" y="1212"/>
			<point x="347" y="1212" type="curve" smooth="yes"/>
			<point x="339" y="1212"/>
			<point x="332" y="1208"/>
			<point x="336" y="1193" type="curve" smooth="yes"/>
			<point x="507" y="521" type="line"/>
			<point x="337" y="1" type="line" smooth="yes"/>
			<point x="334" y="-8"/>
			<point x="337" y="-11"/>
		</contour>
	</outline>
	<anchor name="bottom" x="348" y="0"/>
	<anchor name="top" x="670" y="1139"/>
</glyph>
<glyph name="backslash" format="2">
  <advance width="420"/>
  <unicode hex="005C"/>
  <outline>
    <contour>
      <point x="389" y="-61" type="curve" smooth="yes"/>
      <point x="400" y="-60"/>
      <point x="401" y="-54"/>
      <point x="400" y="-45" type="curve" smooth="yes"/>
      <point x="307" y="1248" type="line" smooth="yes"/>
      <point x="306" y="1261"/>
      <point x="301" y="1262"/>
      <point x="291" y="1261" type="curve" smooth="yes"/>
      <point x="280" y="1260"/>
      <point x="279" y="1254"/>
      <point x="280" y="1245" type="curve" smooth="yes"/>
      <point x="373" y="-48" type="line" smooth="yes"/>
      <point x="374" y="-61"/>
      <point x="379" y="-62"/>
    </contour>
  </outline>
</glyph>
<glyph name="bracketright" format="2">
	<unicode hex="005D"/>
	<advance width="500"/>
	<outline>
		<contour>
			<point x="45" y="-46" type="curve" smooth="yes"/>
			<point x="42" y="-56"/>
			<point x="45" y="-60"/>
			<point x="50" y="-60" type="curve" smooth="yes"/>
			<point x="206" y="-60" type="line" smooth="yes"/>
			<point x="217" y="-60"/>
			<point x="222" y="-57"/>
			<point x="224" y="-48" type="curve"/>
			<point x="641" y="1248" type="line"/>
			<point x="643" y="1257"/>
			<point x="640" y="1260"/>
			<point x="629" y="1260" type="curve" smooth="yes"/>
			<point x="473" y="1260" type="line" smooth="yes"/>
			<point x="468" y="1260"/>
			<point x="463" y="1256"/>
			<point x="460" y="1246" type="curve" smooth="yes"/>
			<point x="457" y="1236"/>
			<point x="460" y="1232"/>
			<point x="465" y="1232" type="curve" smooth="yes"/>
			<point x="606" y="1232" type="line"/>
			<point x="199" y="-32" type="line"/>
			<point x="58" y="-32" type="line" smooth="yes"/>
			<point x="53" y="-32"/>
			<point x="48" y="-36"/>
		</contour>
	</outline>
</glyph>
<glyph name="asciicircum" format="2">
  <advance width="763"/>
  <unicode hex="005E"/>
  <outline>
    <contour>
      <point x="415" y="1126" type="line" smooth="yes"/>
      <point x="405" y="1116"/>
      <point x="404" y="1108"/>
      <point x="414" y="1100" type="curve" smooth="yes"/>
      <point x="424" y="1093"/>
      <point x="433" y="1094"/>
      <point x="441" y="1104" type="curve" smooth="yes"/>
      <point x="780" y="1475" type="line"/>
      <point x="879" y="1109" type="line" smooth="yes"/>
      <point x="881" y="1099"/>
      <point x="888" y="1094"/>
      <point x="901" y="1099" type="curve" smooth="yes"/>
      <point x="916" y="1104"/>
      <point x="918" y="1113"/>
      <point x="915" y="1123" type="curve" smooth="yes"/>
      <point x="816" y="1484" type="line" smooth="yes"/>
      <point x="810" y="1505"/>
      <point x="808" y="1515"/>
      <point x="790" y="1515" type="curve" smooth="yes"/>
      <point x="774" y="1515"/>
      <point x="764" y="1505"/>
      <point x="744" y="1484" type="curve" smooth="yes"/>
    </contour>
  </outline>
</glyph>
<glyph name="underscore" format="2">
  <advance width="440"/>
  <unicode hex="005F"/>
  <outline>
    <contour>
      <point x="-40" y="-90" type="curve" smooth="yes"/>
      <point x="293" y="-90" type="line" smooth="yes"/>
      <point x="303" y="-90"/>
      <point x="307" y="-87"/>
      <point x="310" y="-76" type="curve" smooth="yes"/>
      <point x="312" y="-67"/>
      <point x="312" y="-62"/>
      <point x="301" y="-62" type="curve" smooth="yes"/>
      <point x="-32" y="-62" type="line" smooth="yes"/>
      <point x="-42" y="-62"/>
      <point x="-46" y="-65"/>
      <point x="-49" y="-75" type="curve" smooth="yes"/>
      <point x="-52" y="-85"/>
      <point x="-51" y="-90"/>
    </contour>
  </outline>
</glyph>
<glyph name="b" format="2">
	<unicode hex="0062"/>
	<advance width="478"/>
	<outline>
		<contour>
			<point x="42" y="-11" type="curve" smooth="yes"/>
			<point x="53" y="-11"/>
			<point x="57" y="-8"/>
			<point x="60" y="1" type="curve" smooth="yes"/>
			<point x="66" y="20" type="line"/>
			<point x="97" y="-3"/>
			<point x="138" y="-14"/>
			<point x="172" y="-14" type="curve" smooth="yes"/>
			<point x="338" y="-14"/>
			<point x="438" y="174"/>
			<point x="438" y="296" type="curve" smooth="yes"/>
			<point x="438" y="369"/>
			<point x="402" y="415"/>
			<point x="348" y="415" type="curve" smooth="yes"/>
			<point x="281" y="415"/>
			<point x="208" y="353"/>
			<point x="129" y="211" type="curve"/>
			<point x="452" y="1201" type="line" smooth="yes"/>
			<point x="455" y="1209"/>
			<point x="448" y="1213"/>
			<point x="438" y="1213" type="curve" smooth="yes"/>
			<point x="426" y="1213"/>
			<point x="423" y="1210"/>
			<point x="420" y="1201" type="curve" smooth="yes"/>
			<point x="30" y="6" type="line" smooth="yes"/>
			<point x="27" y="-3"/>
			<point x="29" y="-11"/>
		</contour>
		<contour>
			<point x="74" y="43" type="curve"/>
			<point x="89" y="90" type="line"/>
			<point x="182" y="289"/>
			<point x="277" y="387"/>
			<point x="343" y="387" type="curve" smooth="yes"/>
			<point x="386" y="387"/>
			<point x="407" y="350"/>
			<point x="407" y="296" type="curve" smooth="yes"/>
			<point x="407" y="183"/>
			<point x="316" y="14"/>
			<point x="177" y="14" type="curve" smooth="yes"/>
			<point x="147" y="14"/>
			<point x="115" y="19"/>
		</contour>
	</outline>
	<anchor name="bottom" x="193" y="0"/>
	<anchor name="center" x="258" y="200"/>
	<anchor name="top" x="323" y="400"/>
</glyph>
<glyph name="c" format="2">
  <advance width="523"/>
  <unicode hex="0063"/>
  <anchor x="211" y="0" name="bottom"/>
  <anchor x="363" y="500" name="top"/>
  <outline>
    <contour>
      <point x="224" y="-19" type="curve" smooth="yes"/>
      <point x="308" y="-19"/>
      <point x="394" y="34"/>
      <point x="455" y="110" type="curve" smooth="yes"/>
      <point x="461" y="118"/>
      <point x="460" y="126"/>
      <point x="454" y="131" type="curve" smooth="yes"/>
      <point x="449" y="136"/>
      <point x="441" y="140"/>
      <point x="433" y="131" type="curve" smooth="yes"/>
      <point x="368" y="60"/>
      <point x="305" y="15"/>
      <point x="228" y="15" type="curve" smooth="yes"/>
      <point x="148" y="15"/>
      <point x="105" y="69"/>
      <point x="105" y="168" type="curve" smooth="yes"/>
      <point x="105" y="331"/>
      <point x="210" y="485"/>
      <point x="361" y="485" type="curve" smooth="yes"/>
      <point x="428" y="485"/>
      <point x="460" y="458"/>
      <point x="486" y="426" type="curve" smooth="yes"/>
      <point x="490" y="421"/>
      <point x="499" y="418"/>
      <point x="510" y="426" type="curve" smooth="yes"/>
      <point x="523" y="435"/>
      <point x="521" y="440"/>
      <point x="519" y="446" type="curve" smooth="yes"/>
      <point x="499" y="485"/>
      <point x="439" y="519"/>
      <point x="366" y="519" type="curve" smooth="yes"/>
      <point x="195" y="519"/>
      <point x="66" y="361"/>
      <point x="66" y="168" type="curve" smooth="yes"/>
      <point x="66" y="51"/>
      <point x="120" y="-19"/>
    </contour>
  </outline>
</glyph>
<glyph name="d" format="2">
  <advance width="503"/>
  <unicode hex="0064"/>
  <guideline x="350" y="96" angle="72"/>
  <anchor x="137" y="0" name="bottom"/>
  <anchor x="528" y="758" name="center"/>
  <anchor x="272" y="400" name="top"/>
  <anchor x="710" y="1195" name="topright"/>
  <outline>
    <contour>
      <point x="130" y="-14" type="curve" smooth="yes"/>
      <point x="198" y="-14"/>
      <point x="273" y="50"/>
      <point x="353" y="197" type="curve"/>
      <point x="340" y="156"/>
      <point x="326" y="114"/>
      <point x="313" y="73" type="curve" smooth="yes"/>
      <point x="295" y="17"/>
      <point x="310" y="-12"/>
      <point x="347" y="-12" type="curve" smooth="yes"/>
      <point x="396" y="-12"/>
      <point x="442" y="41"/>
      <point x="463" y="71" type="curve" smooth="yes"/>
      <point x="467" y="76"/>
      <point x="468" y="81"/>
      <point x="460" y="87" type="curve" smooth="yes"/>
      <point x="454" y="92"/>
      <point x="450" y="92"/>
      <point x="444" y="85" type="curve" smooth="yes"/>
      <point x="423" y="58"/>
      <point x="384" y="16"/>
      <point x="353" y="16" type="curve" smooth="yes"/>
      <point x="331" y="16"/>
      <point x="331" y="39"/>
      <point x="343" y="74" type="curve" smooth="yes"/>
      <point x="710" y="1196" type="line" smooth="yes"/>
      <point x="713" y="1205"/>
      <point x="709" y="1212"/>
      <point x="698" y="1212" type="curve" smooth="yes"/>
      <point x="687" y="1212"/>
      <point x="682" y="1209"/>
      <point x="679" y="1200" type="curve" smooth="yes"/>
      <point x="414" y="383" type="line"/>
      <point x="382" y="403"/>
      <point x="341" y="415"/>
      <point x="306" y="415" type="curve" smooth="yes"/>
      <point x="140" y="415"/>
      <point x="40" y="227"/>
      <point x="40" y="105" type="curve" smooth="yes"/>
      <point x="40" y="32"/>
      <point x="76" y="-14"/>
    </contour>
    <contour>
      <point x="71" y="105" type="curve" smooth="yes"/>
      <point x="71" y="218"/>
      <point x="162" y="387"/>
      <point x="301" y="387" type="curve" smooth="yes"/>
      <point x="331" y="387"/>
      <point x="364" y="382"/>
      <point x="405" y="357" type="curve"/>
      <point x="394" y="321" type="line"/>
      <point x="299" y="116"/>
      <point x="202" y="14"/>
      <point x="135" y="14" type="curve" smooth="yes"/>
      <point x="92" y="14"/>
      <point x="71" y="51"/>
    </contour>
  </outline>
</glyph>
<glyph name="g" format="2">
  <advance width="478"/>
  <unicode hex="0067"/>
  <anchor x="287" y="400" name="top"/>
  <outline>
    <contour>
      <point x="-51" y="-815" type="curve" smooth="yes"/>
      <point x="38" y="-815"/>
      <point x="72" y="-758"/>
      <point x="108" y="-648" type="curve" smooth="yes"/>
      <point x="448" y="395" type="line" smooth="yes"/>
      <point x="451" y="404"/>
      <point x="449" y="412"/>
      <point x="436" y="412" type="curve" smooth="yes"/>
      <point x="425" y="412"/>
      <point x="421" y="409"/>
      <point x="418" y="400" type="curve" smooth="yes"/>
      <point x="77" y="-646" type="line" smooth="yes"/>
      <point x="47" y="-738"/>
      <point x="20" y="-787"/>
      <point x="-48" y="-787" type="curve" smooth="yes"/>
      <point x="-98" y="-787"/>
      <point x="-139" y="-762"/>
      <point x="-181" y="-716" type="curve" smooth="yes"/>
      <point x="-186" y="-711"/>
      <point x="-191" y="-710"/>
      <point x="-199" y="-718" type="curve"/>
      <point x="-208" y="-725"/>
      <point x="-207" y="-733"/>
      <point x="-202" y="-739" type="curve" smooth="yes"/>
      <point x="-159" y="-786"/>
      <point x="-110" y="-815"/>
    </contour>
    <contour>
      <point x="130" y="-14" type="curve" smooth="yes"/>
      <point x="211" y="-14"/>
      <point x="302" y="78"/>
      <point x="401" y="292" type="curve"/>
      <point x="394" y="322" type="line"/>
      <point x="299" y="116"/>
      <point x="202" y="14"/>
      <point x="135" y="14" type="curve" smooth="yes"/>
      <point x="92" y="14"/>
      <point x="71" y="51"/>
      <point x="71" y="105" type="curve" smooth="yes"/>
      <point x="71" y="218"/>
      <point x="162" y="387"/>
      <point x="301" y="387" type="curve" smooth="yes"/>
      <point x="332" y="387"/>
      <point x="366" y="382"/>
      <point x="410" y="354" type="curve"/>
      <point x="419" y="379" type="line"/>
      <point x="387" y="402"/>
      <point x="343" y="415"/>
      <point x="306" y="415" type="curve" smooth="yes"/>
      <point x="140" y="415"/>
      <point x="40" y="227"/>
      <point x="40" y="105" type="curve" smooth="yes"/>
      <point x="40" y="32"/>
      <point x="76" y="-14"/>
    </contour>
  </outline>
</glyph>
<glyph name="h" format="2">
  <advance width="652"/>
  <unicode hex="0068"/>
  <anchor x="255" y="0" name="bottom"/>
  <anchor x="389" y="948" name="center"/>
  <anchor x="524" y="1424" name="top"/>
  <outline>
    <contour>
      <point x="461" y="-15" type="curve" smooth="yes"/>
      <point x="522" y="-15"/>
      <point x="581" y="51"/>
      <point x="607" y="89" type="curve" smooth="yes"/>
      <point x="612" y="95"/>
      <point x="614" y="101"/>
      <point x="604" y="109" type="curve" smooth="yes"/>
      <point x="596" y="115"/>
      <point x="591" y="115"/>
      <point x="584" y="106" type="curve" smooth="yes"/>
      <point x="557" y="73"/>
      <point x="510" y="20"/>
      <point x="469" y="20" type="curve" smooth="yes"/>
      <point x="441" y="20"/>
      <point x="441" y="46"/>
      <point x="460" y="103" type="curve" smooth="yes"/>
      <point x="545" y="350" type="line" smooth="yes"/>
      <point x="587" y="474"/>
      <point x="536" y="519"/>
      <point x="469" y="519" type="curve" smooth="yes"/>
      <point x="391" y="519"/>
      <point x="269" y="451"/>
      <point x="152" y="235" type="curve"/>
      <point x="566" y="1499" type="line" smooth="yes"/>
      <point x="570" y="1509"/>
      <point x="562" y="1515"/>
      <point x="550" y="1515" type="curve" smooth="yes"/>
      <point x="535" y="1515"/>
      <point x="530" y="1511"/>
      <point x="526" y="1500" type="curve" smooth="yes"/>
      <point x="36" y="0" type="line" smooth="yes"/>
      <point x="32" y="-10"/>
      <point x="41" y="-15"/>
      <point x="54" y="-15" type="curve" smooth="yes"/>
      <point x="69" y="-15"/>
      <point x="72" y="-11"/>
      <point x="76" y="0" type="curve" smooth="yes"/>
      <point x="94" y="54" type="line"/>
      <point x="235" y="396"/>
      <point x="379" y="484"/>
      <point x="464" y="484" type="curve" smooth="yes"/>
      <point x="520" y="484"/>
      <point x="539" y="443"/>
      <point x="505" y="344" type="curve" smooth="yes"/>
      <point x="422" y="101" type="line" smooth="yes"/>
      <point x="395" y="19"/>
      <point x="415" y="-15"/>
    </contour>
  </outline>
</glyph>
<glyph name="i" format="2">
	<unicode hex="0069"/>
	<advance width="240"/>
	<outline>
		<contour>
			<point x="83" y="-12" type="curve" smooth="yes"/>
			<point x="132" y="-12"/>
			<point x="179" y="41"/>
			<point x="200" y="71" type="curve" smooth="yes"/>
			<point x="204" y="76"/>
			<point x="205" y="81"/>
			<point x="197" y="87" type="curve" smooth="yes"/>
			<point x="191" y="92"/>
			<point x="187" y="92"/>
			<point x="181" y="85" type="curve" smooth="yes"/>
			<point x="160" y="58"/>
			<point x="122" y="16"/>
			<point x="89" y="16" type="curve" smooth="yes"/>
			<point x="67" y="16"/>
			<point x="67" y="37"/>
			<point x="82" y="82" type="curve" smooth="yes"/>
			<point x="186" y="398" type="line" smooth="yes"/>
			<point x="189" y="406"/>
			<point x="183" y="412"/>
			<point x="173" y="412" type="curve" smooth="yes"/>
			<point x="161" y="412"/>
			<point x="158" y="409"/>
			<point x="155" y="400" type="curve" smooth="yes"/>
			<point x="51" y="81" type="line" smooth="yes"/>
			<point x="29" y="15"/>
			<point x="46" y="-12"/>
		</contour>
		<contour>
			<point x="220" y="552" type="curve" smooth="yes"/>
			<point x="245" y="552"/>
			<point x="260" y="574"/>
			<point x="260" y="597" type="curve" smooth="yes"/>
			<point x="260" y="613"/>
			<point x="248" y="620"/>
			<point x="231" y="620" type="curve" smooth="yes"/>
			<point x="206" y="620"/>
			<point x="191" y="598"/>
			<point x="191" y="575" type="curve" smooth="yes"/>
			<point x="191" y="559"/>
			<point x="202" y="552"/>
		</contour>
	</outline>
	<anchor name="bottom" x="89" y="0"/>
	<anchor name="ogonek" x="142" y="0"/>
</glyph>
<glyph name="j" format="2">
  <advance width="268"/>
  <unicode hex="006A"/>
  <outline>
    <contour>
      <point x="-342" y="-1017" type="curve" smooth="yes"/>
      <point x="-277" y="-1017"/>
      <point x="-251" y="-984"/>
      <point x="-224" y="-899" type="curve" smooth="yes"/>
      <point x="233" y="499" type="line" smooth="yes"/>
      <point x="235" y="508"/>
      <point x="229" y="515"/>
      <point x="216" y="515" type="curve" smooth="yes"/>
      <point x="201" y="515"/>
      <point x="198" y="511"/>
      <point x="194" y="500" type="curve" smooth="yes"/>
      <point x="-261" y="-895" type="line" smooth="yes"/>
      <point x="-282" y="-961"/>
      <point x="-300" y="-980"/>
      <point x="-340" y="-980" type="curve" smooth="yes"/>
      <point x="-377" y="-980"/>
      <point x="-409" y="-957"/>
      <point x="-435" y="-931" type="curve" smooth="yes"/>
      <point x="-444" y="-922"/>
      <point x="-454" y="-919"/>
      <point x="-464" y="-929" type="curve" smooth="yes"/>
      <point x="-476" y="-940"/>
      <point x="-474" y="-950"/>
      <point x="-466" y="-957" type="curve" smooth="yes"/>
      <point x="-435" y="-991"/>
      <point x="-386" y="-1017"/>
    </contour>
    <contour>
      <point x="274" y="690" type="curve" smooth="yes"/>
      <point x="305" y="690"/>
      <point x="324" y="718"/>
      <point x="324" y="746" type="curve" smooth="yes"/>
      <point x="324" y="766"/>
      <point x="309" y="775"/>
      <point x="288" y="775" type="curve" smooth="yes"/>
      <point x="256" y="775"/>
      <point x="238" y="748"/>
      <point x="238" y="719" type="curve" smooth="yes"/>
      <point x="238" y="699"/>
      <point x="251" y="690"/>
    </contour>
  </outline>
</glyph>
<glyph name="k" format="2">
  <advance width="451"/>
  <unicode hex="006B"/>
  <anchor x="170" y="0" name="bottom"/>
  <anchor x="260" y="670" name="top"/>
  <outline>
    <contour>
      <point x="43" y="-12" type="curve" smooth="yes"/>
      <point x="53" y="-12"/>
      <point x="58" y="-9"/>
      <point x="61" y="0" type="curve" smooth="yes"/>
      <point x="127" y="202" type="line"/>
      <point x="208" y="14"/>
      <point x="231" y="-15"/>
      <point x="283" y="-15" type="curve" smooth="yes"/>
      <point x="303" y="-15"/>
      <point x="339" y="-6"/>
      <point x="405" y="67" type="curve" smooth="yes"/>
      <point x="411" y="74"/>
      <point x="410" y="80"/>
      <point x="405" y="85" type="curve" smooth="yes"/>
      <point x="400" y="90"/>
      <point x="394" y="93"/>
      <point x="386" y="85" type="curve" smooth="yes"/>
      <point x="328" y="27"/>
      <point x="309" y="14"/>
      <point x="287" y="14" type="curve" smooth="yes"/>
      <point x="250" y="14"/>
      <point x="234" y="41"/>
      <point x="158" y="210" type="curve"/>
      <point x="429" y="386" type="line" smooth="yes"/>
      <point x="435" y="390"/>
      <point x="435" y="398"/>
      <point x="431" y="404" type="curve" smooth="yes"/>
      <point x="427" y="410"/>
      <point x="421" y="414"/>
      <point x="409" y="406" type="curve" smooth="yes"/>
      <point x="136" y="230" type="line"/>
      <point x="450" y="1196" type="line" smooth="yes"/>
      <point x="453" y="1205"/>
      <point x="447" y="1212"/>
      <point x="437" y="1212" type="curve" smooth="yes"/>
      <point x="427" y="1212"/>
      <point x="423" y="1209"/>
      <point x="420" y="1200" type="curve" smooth="yes"/>
      <point x="29" y="3" type="line" smooth="yes"/>
      <point x="26" y="-6"/>
      <point x="33" y="-12"/>
    </contour>
  </outline>
</glyph>
<glyph name="l" format="2">
	<unicode hex="006C"/>
	<advance width="239"/>
	<outline>
		<contour>
			<point x="81" y="-12" type="curve" smooth="yes"/>
			<point x="131" y="-12"/>
			<point x="178" y="41"/>
			<point x="199" y="71" type="curve" smooth="yes"/>
			<point x="203" y="76"/>
			<point x="204" y="81"/>
			<point x="196" y="87" type="curve" smooth="yes"/>
			<point x="190" y="92"/>
			<point x="186" y="92"/>
			<point x="180" y="85" type="curve" smooth="yes"/>
			<point x="159" y="58"/>
			<point x="121" y="16"/>
			<point x="87" y="16" type="curve" smooth="yes"/>
			<point x="65" y="16"/>
			<point x="66" y="41"/>
			<point x="80" y="82" type="curve" smooth="yes"/>
			<point x="448" y="1198" type="line" smooth="yes"/>
			<point x="451" y="1206"/>
			<point x="445" y="1212"/>
			<point x="435" y="1212" type="curve" smooth="yes"/>
			<point x="423" y="1212"/>
			<point x="420" y="1209"/>
			<point x="417" y="1200" type="curve" smooth="yes"/>
			<point x="49" y="81" type="line" smooth="yes"/>
			<point x="29" y="19"/>
			<point x="44" y="-12"/>
		</contour>
	</outline>
	<anchor name="bottom" x="93" y="0"/>
	<anchor name="center" x="229" y="580"/>
	<anchor name="top" x="412" y="1138"/>
	<anchor name="topright" x="443" y="1200"/>
</glyph>
<glyph name="m" format="2">
	<unicode hex="006D"/>
	<advance width="771"/>
	<outline>
		<contour>
			<point x="618" y="-12" type="curve" smooth="yes"/>
			<point x="667" y="-12"/>
			<point x="714" y="41"/>
			<point x="735" y="71" type="curve" smooth="yes"/>
			<point x="739" y="76"/>
			<point x="740" y="81"/>
			<point x="732" y="87" type="curve" smooth="yes"/>
			<point x="726" y="92"/>
			<point x="722" y="92"/>
			<point x="716" y="85" type="curve" smooth="yes"/>
			<point x="695" y="58"/>
			<point x="657" y="16"/>
			<point x="624" y="16" type="curve" smooth="yes"/>
			<point x="602" y="16"/>
			<point x="602" y="37"/>
			<point x="617" y="82" type="curve" smooth="yes"/>
			<point x="685" y="280" type="line" smooth="yes"/>
			<point x="719" y="379"/>
			<point x="681" y="415"/>
			<point x="631" y="415" type="curve" smooth="yes"/>
			<point x="567" y="415"/>
			<point x="453" y="345"/>
			<point x="351" y="110" type="curve"/>
			<point x="339" y="38" type="line"/>
			<point x="453" y="316"/>
			<point x="566" y="387"/>
			<point x="627" y="387" type="curve" smooth="yes"/>
			<point x="668" y="387"/>
			<point x="680" y="354"/>
			<point x="653" y="275" type="curve" smooth="yes"/>
			<point x="587" y="81" type="line" smooth="yes"/>
			<point x="564" y="15"/>
			<point x="580" y="-12"/>
		</contour>
		<contour>
			<point x="39" y="-12" type="curve" smooth="yes"/>
			<point x="51" y="-12"/>
			<point x="54" y="-9"/>
			<point x="57" y="0" type="curve" smooth="yes"/>
			<point x="186" y="398" type="line" smooth="yes"/>
			<point x="189" y="406"/>
			<point x="183" y="412"/>
			<point x="173" y="412" type="curve" smooth="yes"/>
			<point x="161" y="412"/>
			<point x="158" y="409"/>
			<point x="155" y="400" type="curve" smooth="yes"/>
			<point x="25" y="0" type="line" smooth="yes"/>
			<point x="22" y="-8"/>
			<point x="29" y="-12"/>
		</contour>
		<contour>
			<point x="309" y="-12" type="curve" smooth="yes"/>
			<point x="321" y="-12"/>
			<point x="324" y="-9"/>
			<point x="327" y="0" type="curve"/>
			<point x="421" y="280" type="line" smooth="yes"/>
			<point x="454" y="379"/>
			<point x="417" y="415"/>
			<point x="364" y="415" type="curve" smooth="yes"/>
			<point x="297" y="415"/>
			<point x="183" y="345"/>
			<point x="81" y="110" type="curve"/>
			<point x="69" y="38" type="line"/>
			<point x="183" y="316"/>
			<point x="296" y="387"/>
			<point x="360" y="387" type="curve" smooth="yes"/>
			<point x="404" y="387"/>
			<point x="416" y="354"/>
			<point x="389" y="275" type="curve" smooth="yes"/>
			<point x="295" y="0" type="line"/>
			<point x="292" y="-8"/>
			<point x="299" y="-12"/>
		</contour>
	</outline>
	<anchor name="bottom" x="310" y="0"/>
	<anchor name="top" x="431" y="400"/>
</glyph>
<glyph name="n" format="2">
  <advance width="517"/>
  <unicode hex="006E"/>
  <anchor x="200" y="0" name="bottom"/>
  <anchor x="302" y="400" name="top"/>
  <outline>
    <contour>
      <point x="364" y="-12" type="curve" smooth="yes"/>
      <point x="413" y="-12"/>
      <point x="460" y="41"/>
      <point x="481" y="71" type="curve" smooth="yes"/>
      <point x="485" y="76"/>
      <point x="486" y="81"/>
      <point x="478" y="87" type="curve" smooth="yes"/>
      <point x="472" y="92"/>
      <point x="468" y="92"/>
      <point x="462" y="85" type="curve" smooth="yes"/>
      <point x="441" y="58"/>
      <point x="403" y="16"/>
      <point x="370" y="16" type="curve" smooth="yes"/>
      <point x="348" y="16"/>
      <point x="348" y="37"/>
      <point x="363" y="82" type="curve" smooth="yes"/>
      <point x="431" y="280" type="line" smooth="yes"/>
      <point x="465" y="379"/>
      <point x="424" y="415"/>
      <point x="370" y="415" type="curve" smooth="yes"/>
      <point x="308" y="415"/>
      <point x="210" y="360"/>
      <point x="117" y="185" type="curve"/>
      <point x="186" y="398" type="line" smooth="yes"/>
      <point x="189" y="406"/>
      <point x="183" y="412"/>
      <point x="173" y="412" type="curve" smooth="yes"/>
      <point x="161" y="412"/>
      <point x="158" y="409"/>
      <point x="155" y="400" type="curve" smooth="yes"/>
      <point x="25" y="0" type="line" smooth="yes"/>
      <point x="22" y="-8"/>
      <point x="29" y="-12"/>
      <point x="39" y="-12" type="curve" smooth="yes"/>
      <point x="51" y="-12"/>
      <point x="54" y="-9"/>
      <point x="57" y="0" type="curve" smooth="yes"/>
      <point x="70" y="42" type="line"/>
      <point x="184" y="317"/>
      <point x="299" y="387"/>
      <point x="366" y="387" type="curve" smooth="yes"/>
      <point x="411" y="387"/>
      <point x="426" y="354"/>
      <point x="399" y="275" type="curve" smooth="yes"/>
      <point x="333" y="81" type="line" smooth="yes"/>
      <point x="311" y="15"/>
      <point x="327" y="-12"/>
    </contour>
  </outline>
</glyph>
<glyph name="o" format="2">
	<unicode hex="006F"/>
	<advance width="471"/>
	<outline>
		<contour>
			<point x="181" y="-15" type="curve" smooth="yes"/>
			<point x="347" y="-15"/>
			<point x="423" y="163"/>
			<point x="423" y="275" type="curve" smooth="yes"/>
			<point x="423" y="360"/>
			<point x="376" y="415"/>
			<point x="293" y="415" type="curve" smooth="yes"/>
			<point x="131" y="415"/>
			<point x="50" y="248"/>
			<point x="50" y="131" type="curve" smooth="yes"/>
			<point x="50" y="44"/>
			<point x="96" y="-15"/>
		</contour>
		<contour>
			<point x="184" y="13" type="curve" smooth="yes"/>
			<point x="118" y="13"/>
			<point x="82" y="61"/>
			<point x="82" y="132" type="curve" smooth="yes"/>
			<point x="82" y="235"/>
			<point x="156" y="387"/>
			<point x="289" y="387" type="curve" smooth="yes"/>
			<point x="356" y="387"/>
			<point x="390" y="341"/>
			<point x="390" y="271" type="curve" smooth="yes"/>
			<point x="390" y="169"/>
			<point x="321" y="13"/>
		</contour>
	</outline>
	<anchor name="bottom" x="177" y="0"/>
	<anchor name="center" x="236" y="200"/>
	<anchor name="ogonek" x="280" y="10"/>
	<anchor name="top" x="264" y="400"/>
	<anchor name="topright" x="348" y="405"/>
</glyph>
<glyph name="p" format="2">
  <advance width="598"/>
  <unicode hex="0070"/>
  <outline>
    <contour>
      <point x="-272" y="-1015" type="curve" smooth="yes"/>
      <point x="-259" y="-1015"/>
      <point x="-254" y="-1011"/>
      <point x="-250" y="-1000" type="curve" smooth="yes"/>
      <point x="83" y="25" type="line"/>
      <point x="121" y="-4"/>
      <point x="173" y="-17"/>
      <point x="215" y="-17" type="curve" smooth="yes"/>
      <point x="423" y="-17"/>
      <point x="548" y="218"/>
      <point x="548" y="371" type="curve" smooth="yes"/>
      <point x="548" y="463"/>
      <point x="503" y="519"/>
      <point x="435" y="519" type="curve" smooth="yes"/>
      <point x="351" y="519"/>
      <point x="259" y="440"/>
      <point x="160" y="261" type="curve"/>
      <point x="238" y="500" type="line" smooth="yes"/>
      <point x="241" y="510"/>
      <point x="233" y="515"/>
      <point x="220" y="515" type="curve" smooth="yes"/>
      <point x="205" y="515"/>
      <point x="201" y="511"/>
      <point x="198" y="500" type="curve" smooth="yes"/>
      <point x="-289" y="-999" type="line" smooth="yes"/>
      <point x="-292" y="-1009"/>
      <point x="-289" y="-1015"/>
    </contour>
    <contour>
      <point x="93" y="55" type="curve"/>
      <point x="110" y="109" type="line"/>
      <point x="228" y="360"/>
      <point x="346" y="484"/>
      <point x="429" y="484" type="curve" smooth="yes"/>
      <point x="483" y="484"/>
      <point x="509" y="438"/>
      <point x="509" y="370" type="curve" smooth="yes"/>
      <point x="509" y="229"/>
      <point x="395" y="18"/>
      <point x="221" y="18" type="curve" smooth="yes"/>
      <point x="184" y="18"/>
      <point x="144" y="24"/>
    </contour>
  </outline>
</glyph>
<glyph name="q" format="2">
	<unicode hex="0071"/>
	<advance width="478"/>
	<outline>
		<contour>
			<point x="132" y="-14" type="curve" smooth="yes"/>
			<point x="199" y="-14"/>
			<point x="272" y="48"/>
			<point x="351" y="190" type="curve"/>
			<point x="28" y="-800" type="line" smooth="yes"/>
			<point x="25" y="-808"/>
			<point x="32" y="-812"/>
			<point x="42" y="-812" type="curve" smooth="yes"/>
			<point x="54" y="-812"/>
			<point x="57" y="-809"/>
			<point x="60" y="-800" type="curve" smooth="yes"/>
			<point x="450" y="395" type="line" smooth="yes"/>
			<point x="453" y="404"/>
			<point x="451" y="412"/>
			<point x="438" y="412" type="curve" smooth="yes"/>
			<point x="427" y="412"/>
			<point x="423" y="409"/>
			<point x="420" y="400" type="curve" smooth="yes"/>
			<point x="415" y="383" type="line"/>
			<point x="383" y="404"/>
			<point x="343" y="415"/>
			<point x="308" y="415" type="curve" smooth="yes"/>
			<point x="142" y="415"/>
			<point x="42" y="227"/>
			<point x="42" y="105" type="curve" smooth="yes"/>
			<point x="42" y="32"/>
			<point x="78" y="-14"/>
		</contour>
		<contour>
			<point x="73" y="105" type="curve" smooth="yes"/>
			<point x="73" y="218"/>
			<point x="164" y="387"/>
			<point x="303" y="387" type="curve" smooth="yes"/>
			<point x="333" y="387"/>
			<point x="365" y="382"/>
			<point x="406" y="358" type="curve"/>
			<point x="391" y="311" type="line"/>
			<point x="298" y="112"/>
			<point x="203" y="14"/>
			<point x="137" y="14" type="curve" smooth="yes"/>
			<point x="94" y="14"/>
			<point x="73" y="51"/>
		</contour>
	</outline>
</glyph>
<glyph name="r" format="2">
  <advance width="454"/>
  <unicode hex="0072"/>
  <anchor x="51" y="0" name="bottom"/>
  <anchor x="335" y="500" name="top"/>
  <outline>
    <contour>
      <point x="44" y="-15" type="curve" smooth="yes"/>
      <point x="56" y="-15"/>
      <point x="64" y="-11"/>
      <point x="68" y="0" type="curve" smooth="yes"/>
      <point x="85" y="54" type="line"/>
      <point x="241" y="406"/>
      <point x="334" y="485"/>
      <point x="414" y="485" type="curve" smooth="yes"/>
      <point x="448" y="485"/>
      <point x="469" y="468"/>
      <point x="481" y="455" type="curve" smooth="yes"/>
      <point x="489" y="448"/>
      <point x="496" y="449"/>
      <point x="505" y="456" type="curve" smooth="yes"/>
      <point x="511" y="463"/>
      <point x="515" y="469"/>
      <point x="511" y="475" type="curve" smooth="yes"/>
      <point x="499" y="499"/>
      <point x="464" y="519"/>
      <point x="424" y="519" type="curve" smooth="yes"/>
      <point x="353" y="519"/>
      <point x="264" y="475"/>
      <point x="146" y="239" type="curve"/>
      <point x="231" y="498" type="line" smooth="yes"/>
      <point x="235" y="509"/>
      <point x="229" y="515"/>
      <point x="216" y="515" type="curve" smooth="yes"/>
      <point x="204" y="515"/>
      <point x="198" y="511"/>
      <point x="194" y="500" type="curve" smooth="yes"/>
      <point x="31" y="0" type="line" smooth="yes"/>
      <point x="28" y="-11"/>
      <point x="31" y="-15"/>
    </contour>
  </outline>
</glyph>
<glyph name="s" format="2">
  <advance width="479"/>
  <unicode hex="0073"/>
  <guideline x="29" y="74" angle="302.97"/>
  <guideline x="339" y="338" angle="130.6"/>
  <anchor x="161" y="0" name="bottom"/>
  <anchor x="306" y="500" name="top"/>
  <outline>
    <contour>
      <point x="175" y="-19" type="curve" smooth="yes"/>
      <point x="275" y="-19"/>
      <point x="363" y="35"/>
      <point x="363" y="136" type="curve" smooth="yes"/>
      <point x="363" y="266"/>
      <point x="166" y="261"/>
      <point x="166" y="374" type="curve" smooth="yes"/>
      <point x="166" y="446"/>
      <point x="226" y="485"/>
      <point x="296" y="485" type="curve" smooth="yes"/>
      <point x="354" y="485"/>
      <point x="386" y="466"/>
      <point x="424" y="423" type="curve" smooth="yes"/>
      <point x="431" y="415"/>
      <point x="438" y="414"/>
      <point x="445" y="419" type="curve" smooth="yes"/>
      <point x="455" y="426"/>
      <point x="458" y="430"/>
      <point x="453" y="439" type="curve" smooth="yes"/>
      <point x="433" y="471"/>
      <point x="381" y="519"/>
      <point x="301" y="519" type="curve" smooth="yes"/>
      <point x="210" y="519"/>
      <point x="128" y="466"/>
      <point x="128" y="369" type="curve" smooth="yes"/>
      <point x="128" y="235"/>
      <point x="323" y="243"/>
      <point x="323" y="131" type="curve" smooth="yes"/>
      <point x="323" y="53"/>
      <point x="253" y="15"/>
      <point x="178" y="15" type="curve" smooth="yes"/>
      <point x="111" y="15"/>
      <point x="66" y="46"/>
      <point x="36" y="93" type="curve" smooth="yes"/>
      <point x="29" y="104"/>
      <point x="23" y="103"/>
      <point x="13" y="96" type="curve" smooth="yes"/>
      <point x="3" y="90"/>
      <point x="1" y="81"/>
      <point x="6" y="73" type="curve" smooth="yes"/>
      <point x="28" y="33"/>
      <point x="80" y="-19"/>
    </contour>
  </outline>
</glyph>
<glyph name="u" format="2">
  <advance width="517"/>
  <unicode hex="0075"/>
  <guideline x="311" y="401" angle="72"/>
  <anchor x="175" y="0" name="bottom"/>
  <anchor x="419" y="10" name="ogonek"/>
  <anchor x="305" y="400" name="top"/>
  <anchor x="442" y="411" name="topright"/>
  <outline>
    <contour>
      <point x="123" y="-14" type="curve" smooth="yes"/>
      <point x="190" y="-14"/>
      <point x="306" y="56"/>
      <point x="408" y="293" type="curve"/>
      <point x="421" y="365" type="line"/>
      <point x="307" y="85"/>
      <point x="191" y="14"/>
      <point x="127" y="14" type="curve" smooth="yes"/>
      <point x="85" y="14"/>
      <point x="71" y="47"/>
      <point x="97" y="126" type="curve" smooth="yes"/>
      <point x="187" y="398" type="line" smooth="yes"/>
      <point x="190" y="406"/>
      <point x="184" y="412"/>
      <point x="174" y="412" type="curve" smooth="yes"/>
      <point x="162" y="412"/>
      <point x="159" y="409"/>
      <point x="156" y="400" type="curve" smooth="yes"/>
      <point x="64" y="121" type="line" smooth="yes"/>
      <point x="31" y="22"/>
      <point x="72" y="-14"/>
    </contour>
    <contour>
      <point x="359" y="-14" type="curve" smooth="yes"/>
      <point x="408" y="-14"/>
      <point x="455" y="39"/>
      <point x="476" y="69" type="curve" smooth="yes"/>
      <point x="480" y="74"/>
      <point x="481" y="79"/>
      <point x="473" y="85" type="curve" smooth="yes"/>
      <point x="467" y="90"/>
      <point x="463" y="90"/>
      <point x="457" y="83" type="curve" smooth="yes"/>
      <point x="436" y="56"/>
      <point x="398" y="14"/>
      <point x="365" y="14" type="curve" smooth="yes"/>
      <point x="343" y="14"/>
      <point x="343" y="35"/>
      <point x="358" y="80" type="curve" smooth="yes"/>
      <point x="464" y="401" type="line"/>
      <point x="467" y="409"/>
      <point x="460" y="413"/>
      <point x="450" y="413" type="curve" smooth="yes"/>
      <point x="438" y="413"/>
      <point x="435" y="410"/>
      <point x="432" y="401" type="curve" smooth="yes"/>
      <point x="328" y="79" type="line" smooth="yes"/>
      <point x="306" y="12"/>
      <point x="322" y="-14"/>
    </contour>
  </outline>
</glyph>
<glyph name="y" format="2">
  <advance width="492"/>
  <unicode hex="0079"/>
  <anchor x="181" y="0" name="bottom"/>
  <anchor x="297" y="400" name="top"/>
  <outline>
    <contour>
      <point x="123" y="-12" type="curve" smooth="yes"/>
      <point x="180" y="-12"/>
      <point x="279" y="42"/>
      <point x="372" y="216" type="curve"/>
      <point x="91" y="-646" type="line" smooth="yes"/>
      <point x="61" y="-738"/>
      <point x="34" y="-787"/>
      <point x="-34" y="-787" type="curve" smooth="yes"/>
      <point x="-84" y="-787"/>
      <point x="-125" y="-762"/>
      <point x="-167" y="-716" type="curve" smooth="yes"/>
      <point x="-172" y="-711"/>
      <point x="-177" y="-710"/>
      <point x="-185" y="-718" type="curve" smooth="yes"/>
      <point x="-194" y="-725"/>
      <point x="-193" y="-733"/>
      <point x="-188" y="-739" type="curve" smooth="yes"/>
      <point x="-145" y="-786"/>
      <point x="-96" y="-815"/>
      <point x="-37" y="-815" type="curve" smooth="yes"/>
      <point x="52" y="-815"/>
      <point x="86" y="-758"/>
      <point x="122" y="-648" type="curve" smooth="yes"/>
      <point x="462" y="395" type="line" smooth="yes"/>
      <point x="465" y="404"/>
      <point x="463" y="412"/>
      <point x="450" y="412" type="curve" smooth="yes"/>
      <point x="439" y="412"/>
      <point x="435" y="409"/>
      <point x="432" y="400" type="curve" smooth="yes"/>
      <point x="419" y="360" type="line"/>
      <point x="306" y="86"/>
      <point x="189" y="16"/>
      <point x="127" y="16" type="curve" smooth="yes"/>
      <point x="85" y="16"/>
      <point x="72" y="49"/>
      <point x="98" y="128" type="curve" smooth="yes"/>
      <point x="188" y="398" type="line" smooth="yes"/>
      <point x="191" y="406"/>
      <point x="185" y="412"/>
      <point x="175" y="412" type="curve" smooth="yes"/>
      <point x="163" y="412"/>
      <point x="160" y="409"/>
      <point x="157" y="400" type="curve" smooth="yes"/>
      <point x="65" y="123" type="line" smooth="yes"/>
      <point x="32" y="24"/>
      <point x="72" y="-12"/>
    </contour>
  </outline>
</glyph>
<glyph name="z" format="2">
	<unicode hex="007A"/>
	<advance width="396"/>
	<outline>
		<contour>
			<point x="5" y="0" type="curve" smooth="yes"/>
			<point x="289" y="0" type="line" smooth="yes"/>
			<point x="298" y="0"/>
			<point x="302" y="4"/>
			<point x="305" y="12" type="curve" smooth="yes"/>
			<point x="308" y="23"/>
			<point x="307" y="28"/>
			<point x="298" y="28" type="curve" smooth="yes"/>
			<point x="46" y="28" type="line"/>
			<point x="409" y="374" type="line" smooth="yes"/>
			<point x="421" y="386"/>
			<point x="420" y="400"/>
			<point x="408" y="400" type="curve" smooth="yes"/>
			<point x="133" y="400" type="line" smooth="yes"/>
			<point x="124" y="400"/>
			<point x="119" y="395"/>
			<point x="116" y="386" type="curve" smooth="yes"/>
			<point x="113" y="376"/>
			<point x="115" y="372"/>
			<point x="124" y="372" type="curve" smooth="yes"/>
			<point x="367" y="372" type="line"/>
			<point x="1" y="24" type="line" smooth="yes"/>
			<point x="-6" y="17"/>
			<point x="-12" y="0"/>
		</contour>
	</outline>
	<anchor name="bottom" x="140" y="0"/>
	<anchor name="center" x="205" y="200"/>
	<anchor name="top" x="260" y="400"/>
</glyph>
<glyph name="bar" format="2">
  <advance width="575"/>
  <unicode hex="007C"/>
  <outline>
    <contour>
      <point x="169" y="-76" type="curve" smooth="yes"/>
      <point x="183" y="-76"/>
      <point x="189" y="-72"/>
      <point x="193" y="-61" type="curve" smooth="yes"/>
      <point x="745" y="1563" type="line" smooth="yes"/>
      <point x="749" y="1574"/>
      <point x="744" y="1578"/>
      <point x="731" y="1578" type="curve" smooth="yes"/>
      <point x="718" y="1578"/>
      <point x="711" y="1574"/>
      <point x="708" y="1563" type="curve" smooth="yes"/>
      <point x="155" y="-61" type="line" smooth="yes"/>
      <point x="151" y="-72"/>
      <point x="155" y="-76"/>
    </contour>
  </outline>
</glyph>
<glyph name="braceright" format="2">
  <advance width="554"/>
  <unicode hex="007D"/>
  <outline>
    <contour>
      <point x="53" y="-75" type="curve" smooth="yes"/>
      <point x="241" y="-75"/>
      <point x="356" y="40"/>
      <point x="356" y="229" type="curve" smooth="yes"/>
      <point x="356" y="320"/>
      <point x="325" y="386"/>
      <point x="325" y="469" type="curve" smooth="yes"/>
      <point x="325" y="603"/>
      <point x="416" y="708"/>
      <point x="570" y="733" type="curve" smooth="yes"/>
      <point x="578" y="734"/>
      <point x="584" y="738"/>
      <point x="588" y="750" type="curve" smooth="yes"/>
      <point x="591" y="764"/>
      <point x="586" y="766"/>
      <point x="580" y="768" type="curve" smooth="yes"/>
      <point x="510" y="781"/>
      <point x="465" y="831"/>
      <point x="465" y="896" type="curve" smooth="yes"/>
      <point x="465" y="1073"/>
      <point x="751" y="1226"/>
      <point x="751" y="1433" type="curve" smooth="yes"/>
      <point x="751" y="1521"/>
      <point x="690" y="1575"/>
      <point x="585" y="1575" type="curve" smooth="yes"/>
      <point x="575" y="1575"/>
      <point x="573" y="1570"/>
      <point x="569" y="1558" type="curve" smooth="yes"/>
      <point x="566" y="1550"/>
      <point x="566" y="1540"/>
      <point x="578" y="1540" type="curve" smooth="yes"/>
      <point x="663" y="1540"/>
      <point x="714" y="1500"/>
      <point x="714" y="1435" type="curve" smooth="yes"/>
      <point x="714" y="1244"/>
      <point x="428" y="1083"/>
      <point x="428" y="900" type="curve" smooth="yes"/>
      <point x="428" y="826"/>
      <point x="468" y="769"/>
      <point x="534" y="751" type="curve"/>
      <point x="381" y="719"/>
      <point x="288" y="610"/>
      <point x="288" y="465" type="curve" smooth="yes"/>
      <point x="288" y="380"/>
      <point x="319" y="299"/>
      <point x="319" y="225" type="curve" smooth="yes"/>
      <point x="319" y="58"/>
      <point x="223" y="-40"/>
      <point x="60" y="-40" type="curve" smooth="yes"/>
      <point x="50" y="-40"/>
      <point x="48" y="-45"/>
      <point x="44" y="-57" type="curve" smooth="yes"/>
      <point x="41" y="-65"/>
      <point x="41" y="-75"/>
    </contour>
  </outline>
</glyph>
<glyph name="cent" format="2">
  <advance width="821"/>
  <unicode hex="00A2"/>
  <outline>
    <contour>
      <point x="374" y="-19" type="curve" smooth="yes"/>
      <point x="489" y="-19"/>
      <point x="651" y="66"/>
      <point x="761" y="184" type="curve" smooth="yes"/>
      <point x="768" y="190"/>
      <point x="773" y="199"/>
      <point x="766" y="206" type="curve" smooth="yes"/>
      <point x="759" y="216"/>
      <point x="749" y="216"/>
      <point x="743" y="209" type="curve" smooth="yes"/>
      <point x="638" y="96"/>
      <point x="484" y="15"/>
      <point x="378" y="15" type="curve" smooth="yes"/>
      <point x="270" y="15"/>
      <point x="204" y="104"/>
      <point x="204" y="250" type="curve" smooth="yes"/>
      <point x="204" y="573"/>
      <point x="398" y="849"/>
      <point x="640" y="849" type="curve" smooth="yes"/>
      <point x="739" y="849"/>
      <point x="786" y="801"/>
      <point x="834" y="746" type="curve" smooth="yes"/>
      <point x="843" y="736"/>
      <point x="846" y="733"/>
      <point x="858" y="740" type="curve" smooth="yes"/>
      <point x="866" y="748"/>
      <point x="869" y="754"/>
      <point x="861" y="764" type="curve" smooth="yes"/>
      <point x="818" y="820"/>
      <point x="750" y="883"/>
      <point x="645" y="883" type="curve" smooth="yes"/>
      <point x="390" y="883"/>
      <point x="165" y="615"/>
      <point x="165" y="250" type="curve" smooth="yes"/>
      <point x="165" y="83"/>
      <point x="244" y="-19"/>
    </contour>
    <contour>
      <point x="331" y="-126" type="curve" smooth="yes"/>
      <point x="345" y="-126"/>
      <point x="351" y="-122"/>
      <point x="355" y="-111" type="curve" smooth="yes"/>
      <point x="714" y="1003" type="line" smooth="yes"/>
      <point x="718" y="1014"/>
      <point x="713" y="1018"/>
      <point x="700" y="1018" type="curve" smooth="yes"/>
      <point x="686" y="1018"/>
      <point x="680" y="1014"/>
      <point x="676" y="1003" type="curve" smooth="yes"/>
      <point x="318" y="-111" type="line" smooth="yes"/>
      <point x="314" y="-122"/>
      <point x="318" y="-126"/>
    </contour>
  </outline>
</glyph>
<glyph name="sterling" format="2">
  <advance width="837"/>
  <unicode hex="00A3"/>
  <outline>
    <contour>
      <point x="8" y="0" type="curve" smooth="yes"/>
      <point x="708" y="0" type="line" smooth="yes"/>
      <point x="717" y="0"/>
      <point x="720" y="5"/>
      <point x="723" y="15" type="curve" smooth="yes"/>
      <point x="726" y="25"/>
      <point x="723" y="28"/>
      <point x="716" y="28" type="curve" smooth="yes"/>
      <point x="226" y="28" type="line"/>
      <point x="379" y="500" type="line"/>
      <point x="669" y="500" type="line" smooth="yes"/>
      <point x="678" y="500"/>
      <point x="681" y="505"/>
      <point x="684" y="515" type="curve" smooth="yes"/>
      <point x="687" y="525"/>
      <point x="684" y="528"/>
      <point x="677" y="528" type="curve" smooth="yes"/>
      <point x="388" y="528" type="line"/>
      <point x="526" y="956" type="line" smooth="yes"/>
      <point x="577" y="1115"/>
      <point x="650" y="1182"/>
      <point x="763" y="1182" type="curve" smooth="yes"/>
      <point x="844" y="1182"/>
      <point x="921" y="1141"/>
      <point x="995" y="1060" type="curve" smooth="yes"/>
      <point x="1000" y="1055"/>
      <point x="1008" y="1052"/>
      <point x="1017" y="1061" type="curve" smooth="yes"/>
      <point x="1026" y="1070"/>
      <point x="1023" y="1075"/>
      <point x="1019" y="1080" type="curve" smooth="yes"/>
      <point x="942" y="1167"/>
      <point x="851" y="1212"/>
      <point x="769" y="1212" type="curve" smooth="yes"/>
      <point x="639" y="1212"/>
      <point x="556" y="1137"/>
      <point x="497" y="958" type="curve" smooth="yes"/>
      <point x="358" y="528" type="line"/>
      <point x="208" y="528" type="line" smooth="yes"/>
      <point x="203" y="528"/>
      <point x="198" y="525"/>
      <point x="195" y="515" type="curve" smooth="yes"/>
      <point x="192" y="505"/>
      <point x="194" y="500"/>
      <point x="200" y="500" type="curve" smooth="yes"/>
      <point x="349" y="500" type="line"/>
      <point x="196" y="28" type="line"/>
      <point x="16" y="28" type="line" smooth="yes"/>
      <point x="11" y="28"/>
      <point x="6" y="25"/>
      <point x="3" y="15" type="curve" smooth="yes"/>
      <point x="0" y="5"/>
      <point x="2" y="0"/>
    </contour>
  </outline>
</glyph>
<glyph name="yen" format="2">
  <advance width="840"/>
  <unicode hex="00A5"/>
  <outline>
    <contour>
      <point x="368" y="-11" type="curve" smooth="yes"/>
      <point x="379" y="-11"/>
      <point x="385" y="-8"/>
      <point x="388" y="1" type="curve" smooth="yes"/>
      <point x="555" y="517" type="line"/>
      <point x="1131" y="1190" type="line" smooth="yes"/>
      <point x="1138" y="1198"/>
      <point x="1137" y="1203"/>
      <point x="1131" y="1209" type="curve" smooth="yes"/>
      <point x="1122" y="1218"/>
      <point x="1117" y="1215"/>
      <point x="1110" y="1207" type="curve" smooth="yes"/>
      <point x="548" y="546" type="line"/>
      <point x="382" y="1200" type="line" smooth="yes"/>
      <point x="380" y="1209"/>
      <point x="378" y="1212"/>
      <point x="367" y="1212" type="curve" smooth="yes"/>
      <point x="359" y="1212"/>
      <point x="352" y="1208"/>
      <point x="356" y="1193" type="curve" smooth="yes"/>
      <point x="527" y="521" type="line"/>
      <point x="357" y="1" type="line" smooth="yes"/>
      <point x="354" y="-8"/>
      <point x="357" y="-11"/>
    </contour>
    <contour>
      <point x="245" y="513" type="curve" smooth="yes"/>
      <point x="827" y="513" type="line" smooth="yes"/>
      <point x="832" y="513"/>
      <point x="838" y="518"/>
      <point x="841" y="528" type="curve" smooth="yes"/>
      <point x="844" y="538"/>
      <point x="841" y="541"/>
      <point x="836" y="541" type="curve" smooth="yes"/>
      <point x="254" y="541" type="line" smooth="yes"/>
      <point x="249" y="541"/>
      <point x="244" y="537"/>
      <point x="241" y="527" type="curve" smooth="yes"/>
      <point x="238" y="517"/>
      <point x="240" y="513"/>
    </contour>
    <contour>
      <point x="203" y="369" type="curve" smooth="yes"/>
      <point x="785" y="369" type="line" smooth="yes"/>
      <point x="790" y="369"/>
      <point x="795" y="374"/>
      <point x="798" y="384" type="curve" smooth="yes"/>
      <point x="802" y="394"/>
      <point x="799" y="397"/>
      <point x="794" y="397" type="curve" smooth="yes"/>
      <point x="212" y="397" type="line" smooth="yes"/>
      <point x="207" y="397"/>
      <point x="201" y="393"/>
      <point x="198" y="383" type="curve" smooth="yes"/>
      <point x="195" y="373"/>
      <point x="198" y="369"/>
    </contour>
  </outline>
</glyph>
<glyph name="section" format="2">
  <advance width="826"/>
  <unicode hex="00A7"/>
  <outline>
    <contour>
      <point x="792" y="345" type="curve" smooth="yes"/>
      <point x="792" y="597"/>
      <point x="432" y="649"/>
      <point x="432" y="923" type="curve" smooth="yes"/>
      <point x="432" y="1073"/>
      <point x="533" y="1182"/>
      <point x="672" y="1182" type="curve" smooth="yes"/>
      <point x="761" y="1182"/>
      <point x="847" y="1133"/>
      <point x="928" y="1036" type="curve" smooth="yes"/>
      <point x="933" y="1030"/>
      <point x="938" y="1026"/>
      <point x="947" y="1034" type="curve" smooth="yes"/>
      <point x="956" y="1040"/>
      <point x="956" y="1044"/>
      <point x="949" y="1053" type="curve" smooth="yes"/>
      <point x="882" y="1146"/>
      <point x="775" y="1212"/>
      <point x="673" y="1212" type="curve" smooth="yes"/>
      <point x="514" y="1212"/>
      <point x="399" y="1091"/>
      <point x="399" y="923" type="curve" smooth="yes"/>
      <point x="399" y="628"/>
      <point x="759" y="584"/>
      <point x="759" y="339" type="curve" smooth="yes"/>
      <point x="759" y="200"/>
      <point x="661" y="95"/>
      <point x="467" y="29" type="curve"/>
      <point x="495" y="7" type="line"/>
      <point x="692" y="75"/>
      <point x="792" y="189"/>
    </contour>
    <contour>
      <point x="192" y="388" type="curve" smooth="yes"/>
      <point x="192" y="143"/>
      <point x="550" y="77"/>
      <point x="550" y="-211" type="curve" smooth="yes"/>
      <point x="550" y="-380"/>
      <point x="433" y="-502"/>
      <point x="271" y="-502" type="curve" smooth="yes"/>
      <point x="163" y="-502"/>
      <point x="79" y="-456"/>
      <point x="21" y="-365" type="curve" smooth="yes"/>
      <point x="11" y="-350"/>
      <point x="7" y="-338"/>
      <point x="-8" y="-350" type="curve" smooth="yes"/>
      <point x="-21" y="-360"/>
      <point x="-15" y="-368"/>
      <point x="-10" y="-377" type="curve" smooth="yes"/>
      <point x="43" y="-476"/>
      <point x="146" y="-536"/>
      <point x="264" y="-536" type="curve" smooth="yes"/>
      <point x="449" y="-536"/>
      <point x="583" y="-399"/>
      <point x="583" y="-211" type="curve" smooth="yes"/>
      <point x="583" y="95"/>
      <point x="225" y="162"/>
      <point x="225" y="388" type="curve" smooth="yes"/>
      <point x="225" y="527"/>
      <point x="320" y="632"/>
      <point x="506" y="700" type="curve"/>
      <point x="484" y="725" type="line"/>
      <point x="290" y="654"/>
      <point x="192" y="541"/>
    </contour>
  </outline>
</glyph>
<glyph name="copyright" format="2">
  <advance width="1125"/>
  <unicode hex="00A9"/>
  <outline>
    <contour>
      <point x="688" y="101" type="curve" smooth="yes"/>
      <point x="945" y="101"/>
      <point x="1131" y="305"/>
      <point x="1131" y="587" type="curve" smooth="yes"/>
      <point x="1131" y="868"/>
      <point x="945" y="1072"/>
      <point x="688" y="1072" type="curve" smooth="yes"/>
      <point x="432" y="1072"/>
      <point x="246" y="868"/>
      <point x="246" y="587" type="curve" smooth="yes"/>
      <point x="246" y="305"/>
      <point x="432" y="101"/>
    </contour>
    <contour>
      <point x="688" y="125" type="curve" smooth="yes"/>
      <point x="447" y="125"/>
      <point x="272" y="319"/>
      <point x="272" y="587" type="curve" smooth="yes"/>
      <point x="272" y="854"/>
      <point x="447" y="1048"/>
      <point x="688" y="1048" type="curve" smooth="yes"/>
      <point x="930" y="1048"/>
      <point x="1105" y="854"/>
      <point x="1105" y="586" type="curve" smooth="yes"/>
      <point x="1105" y="319"/>
      <point x="930" y="125"/>
    </contour>
    <contour>
      <point x="679" y="311" type="curve" smooth="yes"/>
      <point x="749" y="311"/>
      <point x="819" y="361"/>
      <point x="856" y="444" type="curve" smooth="yes"/>
      <point x="858" y="450"/>
      <point x="856" y="454"/>
      <point x="850" y="457" type="curve" smooth="yes"/>
      <point x="843" y="461"/>
      <point x="838" y="459"/>
      <point x="835" y="453" type="curve" smooth="yes"/>
      <point x="801" y="387"/>
      <point x="743" y="339"/>
      <point x="682" y="339" type="curve" smooth="yes"/>
      <point x="594" y="339"/>
      <point x="531" y="440"/>
      <point x="531" y="580" type="curve" smooth="yes"/>
      <point x="531" y="731"/>
      <point x="603" y="840"/>
      <point x="706" y="840" type="curve" smooth="yes"/>
      <point x="745" y="840"/>
      <point x="788" y="818"/>
      <point x="818" y="784" type="curve" smooth="yes"/>
      <point x="822" y="779"/>
      <point x="827" y="778"/>
      <point x="834" y="784" type="curve" smooth="yes"/>
      <point x="839" y="788"/>
      <point x="842" y="793"/>
      <point x="837" y="799" type="curve" smooth="yes"/>
      <point x="802" y="841"/>
      <point x="753" y="867"/>
      <point x="706" y="867" type="curve" smooth="yes"/>
      <point x="586" y="867"/>
      <point x="501" y="746"/>
      <point x="501" y="580" type="curve" smooth="yes"/>
      <point x="501" y="424"/>
      <point x="576" y="311"/>
    </contour>
  </outline>
</glyph>
<glyph name="ordfeminine" format="2">
  <advance width="384"/>
  <unicode hex="00AA"/>
  <outline>
    <contour>
      <point x="376" y="889" type="curve" smooth="yes"/>
      <point x="425" y="889"/>
      <point x="480" y="932"/>
      <point x="543" y="1042" type="curve"/>
      <point x="534" y="1015"/>
      <point x="527" y="994"/>
      <point x="516" y="959" type="curve" smooth="yes"/>
      <point x="502" y="917"/>
      <point x="511" y="889"/>
      <point x="544" y="889" type="curve" smooth="yes"/>
      <point x="583" y="889"/>
      <point x="617" y="930"/>
      <point x="633" y="953" type="curve" smooth="yes"/>
      <point x="636" y="957"/>
      <point x="637" y="961"/>
      <point x="629" y="967" type="curve" smooth="yes"/>
      <point x="624" y="971"/>
      <point x="620" y="971"/>
      <point x="615" y="965" type="curve" smooth="yes"/>
      <point x="592" y="936"/>
      <point x="569" y="915"/>
      <point x="550" y="915" type="curve" smooth="yes"/>
      <point x="535" y="915"/>
      <point x="534" y="929"/>
      <point x="543" y="957" type="curve" smooth="yes"/>
      <point x="624" y="1203" type="line" smooth="yes"/>
      <point x="627" y="1212"/>
      <point x="623" y="1217"/>
      <point x="612" y="1217" type="curve" smooth="yes"/>
      <point x="603" y="1217"/>
      <point x="599" y="1215"/>
      <point x="596" y="1207" type="curve" smooth="yes"/>
      <point x="592" y="1196" type="line"/>
      <point x="570" y="1210"/>
      <point x="540" y="1220"/>
      <point x="511" y="1220" type="curve" smooth="yes"/>
      <point x="384" y="1220"/>
      <point x="307" y="1075"/>
      <point x="307" y="981" type="curve" smooth="yes"/>
      <point x="307" y="925"/>
      <point x="335" y="889"/>
    </contour>
    <contour>
      <point x="336" y="982" type="curve" smooth="yes"/>
      <point x="336" y="1064"/>
      <point x="403" y="1194"/>
      <point x="507" y="1194" type="curve" smooth="yes"/>
      <point x="529" y="1194"/>
      <point x="553" y="1190"/>
      <point x="584" y="1172" type="curve"/>
      <point x="575" y="1142" type="line"/>
      <point x="504" y="992"/>
      <point x="432" y="915"/>
      <point x="382" y="915" type="curve" smooth="yes"/>
      <point x="352" y="915"/>
      <point x="336" y="942"/>
    </contour>
  </outline>
</glyph>
<glyph name="registered" format="2">
  <advance width="546"/>
  <unicode hex="00AE"/>
  <outline>
    <contour>
      <point x="546" y="842" type="curve" smooth="yes"/>
      <point x="672" y="842"/>
      <point x="771" y="941"/>
      <point x="771" y="1067" type="curve" smooth="yes"/>
      <point x="771" y="1193"/>
      <point x="672" y="1292"/>
      <point x="546" y="1292" type="curve" smooth="yes"/>
      <point x="420" y="1292"/>
      <point x="321" y="1193"/>
      <point x="321" y="1067" type="curve" smooth="yes"/>
      <point x="321" y="941"/>
      <point x="420" y="842"/>
    </contour>
    <contour>
      <point x="546" y="866" type="curve" smooth="yes"/>
      <point x="434" y="866"/>
      <point x="345" y="955"/>
      <point x="345" y="1067" type="curve" smooth="yes"/>
      <point x="345" y="1179"/>
      <point x="434" y="1268"/>
      <point x="546" y="1268" type="curve" smooth="yes"/>
      <point x="658" y="1268"/>
      <point x="747" y="1179"/>
      <point x="747" y="1067" type="curve" smooth="yes"/>
      <point x="747" y="955"/>
      <point x="658" y="866"/>
    </contour>
    <contour>
      <point x="482" y="929" type="curve" smooth="yes"/>
      <point x="490" y="929"/>
      <point x="496" y="931"/>
      <point x="496" y="937" type="curve" smooth="yes"/>
      <point x="496" y="1055" type="line"/>
      <point x="532" y="1013"/>
      <point x="571" y="973"/>
      <point x="622" y="931" type="curve" smooth="yes"/>
      <point x="628" y="926"/>
      <point x="634" y="927"/>
      <point x="639" y="932" type="curve" smooth="yes"/>
      <point x="646" y="939"/>
      <point x="644" y="946"/>
      <point x="640" y="949" type="curve" smooth="yes"/>
      <point x="597" y="983"/>
      <point x="563" y="1016"/>
      <point x="525" y="1059" type="curve"/>
      <point x="594" y="1064"/>
      <point x="632" y="1099"/>
      <point x="632" y="1145" type="curve" smooth="yes"/>
      <point x="632" y="1195"/>
      <point x="601" y="1213"/>
      <point x="535" y="1213" type="curve" smooth="yes"/>
      <point x="483" y="1213" type="line" smooth="yes"/>
      <point x="473" y="1213"/>
      <point x="469" y="1210"/>
      <point x="469" y="1205" type="curve" smooth="yes"/>
      <point x="469" y="937" type="line" smooth="yes"/>
      <point x="469" y="931"/>
      <point x="474" y="929"/>
    </contour>
    <contour>
      <point x="496" y="1080" type="curve"/>
      <point x="496" y="1189" type="line"/>
      <point x="539" y="1189" type="line" smooth="yes"/>
      <point x="584" y="1189"/>
      <point x="604" y="1177"/>
      <point x="604" y="1145" type="curve" smooth="yes"/>
      <point x="604" y="1103"/>
      <point x="569" y="1081"/>
    </contour>
  </outline>
</glyph>
<glyph name="plusminus" format="2">
  <advance width="763"/>
  <unicode hex="00B1"/>
  <outline>
    <contour>
      <point x="371" y="239" type="curve" smooth="yes"/>
      <point x="385" y="239"/>
      <point x="390" y="244"/>
      <point x="394" y="254" type="curve" smooth="yes"/>
      <point x="540" y="696" type="line" smooth="yes"/>
      <point x="544" y="708"/>
      <point x="538" y="711"/>
      <point x="525" y="711" type="curve" smooth="yes"/>
      <point x="511" y="711"/>
      <point x="506" y="709"/>
      <point x="503" y="696" type="curve" smooth="yes"/>
      <point x="356" y="254" type="line" smooth="yes"/>
      <point x="353" y="243"/>
      <point x="358" y="239"/>
    </contour>
    <component base="minus" xOffset="-102" yOffset="-315"/>
    <component base="minus" xOffset="13" yOffset="38"/>
  </outline>
</glyph>
<glyph name="ordmasculine" format="2">
  <advance width="363"/>
  <unicode hex="00BA"/>
  <outline>
    <contour>
      <point x="419" y="888" type="curve" smooth="yes"/>
      <point x="546" y="888"/>
      <point x="605" y="1025"/>
      <point x="605" y="1110" type="curve" smooth="yes"/>
      <point x="605" y="1176"/>
      <point x="568" y="1220"/>
      <point x="502" y="1220" type="curve" smooth="yes"/>
      <point x="378" y="1220"/>
      <point x="315" y="1092"/>
      <point x="315" y="1002" type="curve" smooth="yes"/>
      <point x="315" y="935"/>
      <point x="351" y="888"/>
    </contour>
    <contour>
      <point x="422" y="915" type="curve" smooth="yes"/>
      <point x="372" y="915"/>
      <point x="345" y="950"/>
      <point x="345" y="1003" type="curve" smooth="yes"/>
      <point x="345" y="1080"/>
      <point x="400" y="1193"/>
      <point x="498" y="1193" type="curve" smooth="yes"/>
      <point x="548" y="1193"/>
      <point x="574" y="1160"/>
      <point x="574" y="1107" type="curve" smooth="yes"/>
      <point x="574" y="1032"/>
      <point x="523" y="915"/>
    </contour>
  </outline>
</glyph>
<glyph name="AE" format="2">
  <advance width="1493"/>
  <unicode hex="00C6"/>
  <anchor x="1425" y="1424" name="top"/>
  <outline>
    <contour>
      <point x="1319" y="0" type="line" smooth="yes"/>
      <point x="1331" y="0"/>
      <point x="1336" y="4"/>
      <point x="1340" y="18" type="curve" smooth="yes"/>
      <point x="1343" y="29"/>
      <point x="1343" y="35"/>
      <point x="1329" y="35" type="curve" smooth="yes"/>
      <point x="760" y="35" type="line"/>
      <point x="982" y="726" type="line"/>
      <point x="1461" y="726" type="line" smooth="yes"/>
      <point x="1469" y="726"/>
      <point x="1475" y="731"/>
      <point x="1479" y="744" type="curve" smooth="yes"/>
      <point x="1483" y="756"/>
      <point x="1479" y="761"/>
      <point x="1473" y="761" type="curve" smooth="yes"/>
      <point x="993" y="761" type="line"/>
      <point x="1216" y="1453" type="line"/>
      <point x="1790" y="1453" type="line" smooth="yes"/>
      <point x="1803" y="1453"/>
      <point x="1808" y="1456"/>
      <point x="1811" y="1470" type="curve" smooth="yes"/>
      <point x="1814" y="1481"/>
      <point x="1814" y="1488"/>
      <point x="1800" y="1488" type="curve" smooth="yes"/>
      <point x="1179" y="1488" type="line" smooth="yes"/>
      <point x="1166" y="1488"/>
      <point x="1161" y="1486"/>
      <point x="1155" y="1479" type="curve" smooth="yes"/>
      <point x="-36" y="16" type="line" smooth="yes"/>
      <point x="-47" y="3"/>
      <point x="-46" y="-5"/>
      <point x="-35" y="-11" type="curve" smooth="yes"/>
      <point x="-24" y="-17"/>
      <point x="-15" y="-14"/>
      <point x="-5" y="-1" type="curve" smooth="yes"/>
      <point x="587" y="726" type="line"/>
      <point x="944" y="726" type="line"/>
      <point x="715" y="15" type="line" smooth="yes"/>
      <point x="711" y="4"/>
      <point x="718" y="0"/>
      <point x="730" y="0" type="curve" smooth="yes"/>
    </contour>
    <contour>
      <point x="616" y="761" type="line"/>
      <point x="1179" y="1453" type="line"/>
      <point x="956" y="761" type="line"/>
    </contour>
  </outline>
</glyph>
<glyph name="Thorn" format="2">
	<unicode hex="00DE"/>
	<advance width="890"/>
	<outline>
		<contour>
			<point x="140" y="-11" type="curve" smooth="yes"/>
			<point x="152" y="-11"/>
			<point x="155" y="-8"/>
			<point x="158" y="1" type="curve" smooth="yes"/>
			<point x="257" y="307" type="line"/>
			<point x="345" y="313"/>
			<point x="423" y="321"/>
			<point x="505" y="332" type="curve" smooth="yes"/>
			<point x="792" y="372"/>
			<point x="962" y="535"/>
			<point x="962" y="771" type="curve" smooth="yes"/>
			<point x="962" y="937"/>
			<point x="866" y="990"/>
			<point x="682" y="990" type="curve" smooth="yes"/>
			<point x="479" y="990" type="line"/>
			<point x="546" y="1200" type="line" smooth="yes"/>
			<point x="549" y="1209"/>
			<point x="544" y="1212"/>
			<point x="534" y="1212" type="curve" smooth="yes"/>
			<point x="521" y="1212"/>
			<point x="518" y="1209"/>
			<point x="515" y="1200" type="curve" smooth="yes"/>
			<point x="128" y="1" type="line" smooth="yes"/>
			<point x="125" y="-8"/>
			<point x="130" y="-11"/>
		</contour>
		<contour>
			<point x="267" y="338" type="curve"/>
			<point x="470" y="962" type="line"/>
			<point x="686" y="962" type="line" smooth="yes"/>
			<point x="843" y="962"/>
			<point x="929" y="915"/>
			<point x="929" y="771" type="curve" smooth="yes"/>
			<point x="929" y="549"/>
			<point x="768" y="396"/>
			<point x="496" y="359" type="curve" smooth="yes"/>
			<point x="430" y="350"/>
			<point x="344" y="341"/>
		</contour>
	</outline>
</glyph>
<glyph name="germandbls" format="2">
  <advance width="560"/>
  <unicode hex="00DF"/>
  <outline>
    <contour>
      <point x="476" y="216" type="curve" smooth="yes"/>
      <point x="476" y="324"/>
      <point x="408" y="380"/>
      <point x="334" y="393" type="curve"/>
      <point x="332" y="383" type="line"/>
      <point x="488" y="383"/>
      <point x="728" y="747"/>
      <point x="738" y="990" type="curve" smooth="yes"/>
      <point x="744" y="1128"/>
      <point x="692" y="1212"/>
      <point x="603" y="1212" type="curve" smooth="yes"/>
      <point x="496" y="1212"/>
      <point x="413" y="1128"/>
      <point x="357" y="955" type="curve" smooth="yes"/>
      <point x="-215" y="-800" type="line" smooth="yes"/>
      <point x="-218" y="-808"/>
      <point x="-215" y="-812"/>
      <point x="-205" y="-812" type="curve" smooth="yes"/>
      <point x="-194" y="-812"/>
      <point x="-189" y="-808"/>
      <point x="-186" y="-800" type="curve" smooth="yes"/>
      <point x="383" y="949" type="line" smooth="yes"/>
      <point x="435" y="1108"/>
      <point x="506" y="1185"/>
      <point x="599" y="1185" type="curve" smooth="yes"/>
      <point x="673" y="1185"/>
      <point x="714" y="1111"/>
      <point x="709" y="989" type="curve" smooth="yes"/>
      <point x="699" y="758"/>
      <point x="463" y="400"/>
      <point x="314" y="400" type="curve" smooth="yes"/>
      <point x="303" y="400" type="line" smooth="yes"/>
      <point x="298" y="400"/>
      <point x="294" y="397"/>
      <point x="290" y="387" type="curve" smooth="yes"/>
      <point x="287" y="377"/>
      <point x="290" y="374"/>
      <point x="295" y="374" type="curve" smooth="yes"/>
      <point x="300" y="374" type="line" smooth="yes"/>
      <point x="376" y="374"/>
      <point x="447" y="320"/>
      <point x="447" y="218" type="curve" smooth="yes"/>
      <point x="447" y="122"/>
      <point x="381" y="12"/>
      <point x="246" y="12" type="curve" smooth="yes"/>
      <point x="201" y="12"/>
      <point x="169" y="20"/>
      <point x="143" y="32" type="curve" smooth="yes"/>
      <point x="134" y="36"/>
      <point x="129" y="34"/>
      <point x="125" y="25" type="curve" smooth="yes"/>
      <point x="120" y="14"/>
      <point x="123" y="9"/>
      <point x="132" y="5" type="curve" smooth="yes"/>
      <point x="158" y="-7"/>
      <point x="197" y="-15"/>
      <point x="243" y="-15" type="curve" smooth="yes"/>
      <point x="400" y="-15"/>
      <point x="476" y="107"/>
    </contour>
  </outline>
</glyph>
<glyph name="eth" format="2">
	<unicode hex="00F0"/>
	<advance width="600"/>
	<outline>
		<contour>
			<point x="185" y="-15" type="curve" smooth="yes"/>
			<point x="324" y="-15"/>
			<point x="432" y="138"/>
			<point x="432" y="318" type="curve" smooth="yes"/>
			<point x="432" y="463"/>
			<point x="400" y="561"/>
			<point x="318" y="708" type="curve" smooth="yes"/>
			<point x="315" y="714"/>
			<point x="310" y="715"/>
			<point x="300" y="709" type="curve" smooth="yes"/>
			<point x="291" y="704"/>
			<point x="288" y="699"/>
			<point x="291" y="692" type="curve" smooth="yes"/>
			<point x="370" y="549"/>
			<point x="399" y="453"/>
			<point x="399" y="317" type="curve" smooth="yes"/>
			<point x="399" y="148"/>
			<point x="299" y="13"/>
			<point x="188" y="13" type="curve" smooth="yes"/>
			<point x="122" y="13"/>
			<point x="82" y="60"/>
			<point x="82" y="131" type="curve" smooth="yes"/>
			<point x="82" y="239"/>
			<point x="149" y="387"/>
			<point x="279" y="387" type="curve" smooth="yes"/>
			<point x="320" y="387"/>
			<point x="359" y="377"/>
			<point x="409" y="348" type="curve"/>
			<point x="415" y="375" type="line"/>
			<point x="366" y="403"/>
			<point x="328" y="415"/>
			<point x="283" y="415" type="curve" smooth="yes"/>
			<point x="127" y="415"/>
			<point x="50" y="256"/>
			<point x="50" y="131" type="curve" smooth="yes"/>
			<point x="50" y="44"/>
			<point x="100" y="-15"/>
		</contour>
		<contour>
			<point x="260" y="507" type="curve" smooth="yes"/>
			<point x="485" y="592" type="line" smooth="yes"/>
			<point x="493" y="595"/>
			<point x="494" y="600"/>
			<point x="492" y="609" type="curve" smooth="yes"/>
			<point x="489" y="620"/>
			<point x="483" y="623"/>
			<point x="475" y="620" type="curve" smooth="yes"/>
			<point x="251" y="535" type="line" smooth="yes"/>
			<point x="242" y="532"/>
			<point x="241" y="526"/>
			<point x="243" y="517" type="curve" smooth="yes"/>
			<point x="246" y="507"/>
			<point x="252" y="504"/>
		</contour>
	</outline>
</glyph>
<glyph name="thorn" format="2">
	<unicode hex="00FE"/>
	<advance width="478"/>
	<outline>
		<contour>
			<point x="-218" y="-812" type="curve" smooth="yes"/>
			<point x="-207" y="-812"/>
			<point x="-203" y="-809"/>
			<point x="-200" y="-800" type="curve" smooth="yes"/>
			<point x="66" y="20" type="line"/>
			<point x="97" y="-3"/>
			<point x="138" y="-14"/>
			<point x="172" y="-14" type="curve" smooth="yes"/>
			<point x="338" y="-14"/>
			<point x="438" y="174"/>
			<point x="438" y="297" type="curve" smooth="yes"/>
			<point x="438" y="370"/>
			<point x="402" y="415"/>
			<point x="348" y="415" type="curve" smooth="yes"/>
			<point x="281" y="415"/>
			<point x="207" y="352"/>
			<point x="128" y="209" type="curve"/>
			<point x="450" y="1200" type="line" smooth="yes"/>
			<point x="453" y="1208"/>
			<point x="446" y="1212"/>
			<point x="436" y="1212" type="curve" smooth="yes"/>
			<point x="424" y="1212"/>
			<point x="421" y="1209"/>
			<point x="418" y="1200" type="curve" smooth="yes"/>
			<point x="-231" y="-799" type="line" smooth="yes"/>
			<point x="-234" y="-807"/>
			<point x="-231" y="-812"/>
		</contour>
		<contour>
			<point x="74" y="44" type="curve"/>
			<point x="88" y="87" type="line"/>
			<point x="182" y="288"/>
			<point x="277" y="387"/>
			<point x="343" y="387" type="curve" smooth="yes"/>
			<point x="386" y="387"/>
			<point x="407" y="350"/>
			<point x="407" y="296" type="curve" smooth="yes"/>
			<point x="407" y="183"/>
			<point x="316" y="14"/>
			<point x="177" y="14" type="curve" smooth="yes"/>
			<point x="147" y="14"/>
			<point x="115" y="19"/>
		</contour>
	</outline>
</glyph>
<glyph name="Eng" format="2">
  <advance width="1100"/>
  <unicode hex="014A"/>
  <outline>
    <contour>
      <point x="777" y="-202" type="curve" smooth="yes"/>
      <point x="1230" y="1200" type="line" smooth="yes"/>
      <point x="1233" y="1209"/>
      <point x="1228" y="1212"/>
      <point x="1218" y="1212" type="curve" smooth="yes"/>
      <point x="1206" y="1212"/>
      <point x="1203" y="1209"/>
      <point x="1200" y="1200" type="curve" smooth="yes"/>
      <point x="829" y="49" type="line"/>
      <point x="551" y="1202" type="line" smooth="yes"/>
      <point x="549" y="1210"/>
      <point x="545" y="1212"/>
      <point x="533" y="1212" type="curve" smooth="yes"/>
      <point x="523" y="1212"/>
      <point x="520" y="1209"/>
      <point x="517" y="1200" type="curve" smooth="yes"/>
      <point x="130" y="1" type="line" smooth="yes"/>
      <point x="127" y="-8"/>
      <point x="132" y="-11"/>
      <point x="142" y="-11" type="curve" smooth="yes"/>
      <point x="155" y="-11"/>
      <point x="158" y="-8"/>
      <point x="161" y="1" type="curve" smooth="yes"/>
      <point x="533" y="1152" type="line"/>
      <point x="812" y="-2" type="line"/>
      <point x="746" y="-204" type="line" smooth="yes"/>
      <point x="715" y="-298"/>
      <point x="690" y="-324"/>
      <point x="644" y="-324" type="curve" smooth="yes"/>
      <point x="592" y="-324"/>
      <point x="549" y="-281"/>
      <point x="515" y="-238" type="curve" smooth="yes"/>
      <point x="510" y="-231"/>
      <point x="501" y="-232"/>
      <point x="494" y="-239" type="curve" smooth="yes"/>
      <point x="487" y="-247"/>
      <point x="487" y="-253"/>
      <point x="492" y="-260" type="curve" smooth="yes"/>
      <point x="541" y="-322"/>
      <point x="592" y="-354"/>
      <point x="641" y="-354" type="curve" smooth="yes"/>
      <point x="714" y="-354"/>
      <point x="745" y="-301"/>
    </contour>
  </outline>
</glyph>
<glyph name="eng" format="2">
  <advance width="613"/>
  <unicode hex="014B"/>
  <outline>
    <contour>
      <point x="373" y="-136" type="curve" smooth="yes"/>
      <point x="539" y="350" type="line" smooth="yes"/>
      <point x="581" y="474"/>
      <point x="530" y="519"/>
      <point x="463" y="519" type="curve" smooth="yes"/>
      <point x="385" y="519"/>
      <point x="263" y="450"/>
      <point x="146" y="231" type="curve"/>
      <point x="233" y="498" type="line" smooth="yes"/>
      <point x="236" y="508"/>
      <point x="229" y="515"/>
      <point x="216" y="515" type="curve" smooth="yes"/>
      <point x="201" y="515"/>
      <point x="198" y="511"/>
      <point x="194" y="500" type="curve" smooth="yes"/>
      <point x="31" y="0" type="line" smooth="yes"/>
      <point x="28" y="-10"/>
      <point x="36" y="-15"/>
      <point x="49" y="-15" type="curve" smooth="yes"/>
      <point x="64" y="-15"/>
      <point x="68" y="-11"/>
      <point x="71" y="0" type="curve" smooth="yes"/>
      <point x="88" y="53" type="line"/>
      <point x="230" y="396"/>
      <point x="374" y="484"/>
      <point x="458" y="484" type="curve" smooth="yes"/>
      <point x="514" y="484"/>
      <point x="533" y="443"/>
      <point x="499" y="344" type="curve" smooth="yes"/>
      <point x="338" y="-132" type="line" smooth="yes"/>
      <point x="315" y="-199"/>
      <point x="296" y="-217"/>
      <point x="256" y="-217" type="curve" smooth="yes"/>
      <point x="219" y="-217"/>
      <point x="188" y="-195"/>
      <point x="161" y="-169" type="curve" smooth="yes"/>
      <point x="153" y="-160"/>
      <point x="143" y="-156"/>
      <point x="133" y="-166" type="curve" smooth="yes"/>
      <point x="120" y="-177"/>
      <point x="123" y="-187"/>
      <point x="130" y="-195" type="curve" smooth="yes"/>
      <point x="161" y="-229"/>
      <point x="210" y="-255"/>
      <point x="254" y="-255" type="curve" smooth="yes"/>
      <point x="319" y="-255"/>
      <point x="344" y="-222"/>
    </contour>
  </outline>
</glyph>
<glyph name="OE" format="2">
  <advance width="1580"/>
  <unicode hex="0152"/>
  <anchor x="1127" y="1139" name="top"/>
  <outline>
    <contour>
      <point x="521" y="-15" type="curve" smooth="yes"/>
      <point x="866" y="-15"/>
      <point x="1143" y="438"/>
      <point x="1143" y="852" type="curve" smooth="yes"/>
      <point x="1143" y="1077"/>
      <point x="1034" y="1212"/>
      <point x="844" y="1212" type="curve" smooth="yes"/>
      <point x="497" y="1212"/>
      <point x="215" y="799"/>
      <point x="215" y="370" type="curve" smooth="yes"/>
      <point x="215" y="129"/>
      <point x="327" y="-15"/>
    </contour>
    <contour>
      <point x="520" y="15" type="curve" smooth="yes"/>
      <point x="349" y="15"/>
      <point x="248" y="146"/>
      <point x="248" y="370" type="curve" smooth="yes"/>
      <point x="248" y="785"/>
      <point x="517" y="1182"/>
      <point x="844" y="1182" type="curve" smooth="yes"/>
      <point x="1014" y="1182"/>
      <point x="1115" y="1060"/>
      <point x="1115" y="852" type="curve" smooth="yes"/>
      <point x="1115" y="453"/>
      <point x="846" y="15"/>
    </contour>
    <contour>
      <point x="906" y="0" type="curve" smooth="yes"/>
      <point x="1440" y="0" type="line" smooth="yes"/>
      <point x="1450" y="0"/>
      <point x="1454" y="3"/>
      <point x="1457" y="14" type="curve" smooth="yes"/>
      <point x="1459" y="23"/>
      <point x="1459" y="28"/>
      <point x="1448" y="28" type="curve" smooth="yes"/>
      <point x="930" y="28" type="line"/>
      <point x="1119" y="615" type="line"/>
      <point x="1561" y="615" type="line" smooth="yes"/>
      <point x="1571" y="615"/>
      <point x="1575" y="618"/>
      <point x="1578" y="629" type="curve" smooth="yes"/>
      <point x="1580" y="638"/>
      <point x="1580" y="643"/>
      <point x="1569" y="643" type="curve" smooth="yes"/>
      <point x="1128" y="643" type="line"/>
      <point x="1295" y="1162" type="line"/>
      <point x="1817" y="1162" type="line" smooth="yes"/>
      <point x="1827" y="1162"/>
      <point x="1831" y="1165"/>
      <point x="1834" y="1176" type="curve" smooth="yes"/>
      <point x="1836" y="1185"/>
      <point x="1836" y="1190"/>
      <point x="1825" y="1190" type="curve" smooth="yes"/>
      <point x="1289" y="1190" type="line" smooth="yes"/>
      <point x="1276" y="1190"/>
      <point x="1273" y="1187"/>
      <point x="1270" y="1178" type="curve" smooth="yes"/>
      <point x="894" y="12" type="line" smooth="yes"/>
      <point x="891" y="3"/>
      <point x="896" y="0"/>
    </contour>
  </outline>
</glyph>
<glyph name="oe" format="2">
  <advance width="745"/>
  <unicode hex="0153"/>
  <anchor x="442" y="400" name="top"/>
  <outline>
    <contour>
      <point x="182" y="-15" type="curve" smooth="yes"/>
      <point x="342" y="-15"/>
      <point x="419" y="163"/>
      <point x="419" y="275" type="curve" smooth="yes"/>
      <point x="419" y="354"/>
      <point x="371" y="415"/>
      <point x="290" y="415" type="curve" smooth="yes"/>
      <point x="128" y="415"/>
      <point x="51" y="248"/>
      <point x="51" y="131" type="curve" smooth="yes"/>
      <point x="51" y="44"/>
      <point x="97" y="-15"/>
    </contour>
    <contour>
      <point x="185" y="13" type="curve" smooth="yes"/>
      <point x="119" y="13"/>
      <point x="83" y="61"/>
      <point x="83" y="132" type="curve" smooth="yes"/>
      <point x="83" y="235"/>
      <point x="153" y="387"/>
      <point x="286" y="387" type="curve" smooth="yes"/>
      <point x="356" y="387"/>
      <point x="391" y="341"/>
      <point x="391" y="271" type="curve" smooth="yes"/>
      <point x="391" y="169"/>
      <point x="322" y="13"/>
    </contour>
    <contour>
      <point x="501" y="-15" type="curve" smooth="yes"/>
      <point x="585" y="-15"/>
      <point x="655" y="48"/>
      <point x="689" y="88" type="curve" smooth="yes"/>
      <point x="695" y="96"/>
      <point x="692" y="102"/>
      <point x="687" y="106" type="curve" smooth="yes"/>
      <point x="681" y="111"/>
      <point x="676" y="111"/>
      <point x="669" y="104" type="curve" smooth="yes"/>
      <point x="640" y="72"/>
      <point x="580" y="12"/>
      <point x="508" y="12" type="curve" smooth="yes"/>
      <point x="439" y="12"/>
      <point x="407" y="54"/>
      <point x="407" y="134" type="curve" smooth="yes"/>
      <point x="407" y="263"/>
      <point x="492" y="388"/>
      <point x="619" y="388" type="curve" smooth="yes"/>
      <point x="665" y="388"/>
      <point x="692" y="368"/>
      <point x="692" y="329" type="curve" smooth="yes"/>
      <point x="692" y="231"/>
      <point x="526" y="193"/>
      <point x="402" y="178" type="curve"/>
      <point x="401" y="152" type="line"/>
      <point x="514" y="167"/>
      <point x="725" y="201"/>
      <point x="725" y="334" type="curve" smooth="yes"/>
      <point x="725" y="377"/>
      <point x="698" y="415"/>
      <point x="623" y="415" type="curve" smooth="yes"/>
      <point x="486" y="415"/>
      <point x="380" y="288"/>
      <point x="380" y="132" type="curve" smooth="yes"/>
      <point x="380" y="38"/>
      <point x="424" y="-15"/>
    </contour>
  </outline>
</glyph>
<glyph name="jdotless" format="2">
  <advance width="268"/>
  <unicode hex="0237"/>
  <anchor x="211" y="500" name="top"/>
  <outline>
    <contour>
      <point x="-342" y="-1017" type="curve" smooth="yes"/>
      <point x="-277" y="-1017"/>
      <point x="-251" y="-984"/>
      <point x="-224" y="-899" type="curve" smooth="yes"/>
      <point x="233" y="499" type="line" smooth="yes"/>
      <point x="235" y="508"/>
      <point x="229" y="515"/>
      <point x="216" y="515" type="curve" smooth="yes"/>
      <point x="201" y="515"/>
      <point x="198" y="511"/>
      <point x="194" y="500" type="curve" smooth="yes"/>
      <point x="-261" y="-895" type="line" smooth="yes"/>
      <point x="-282" y="-961"/>
      <point x="-300" y="-980"/>
      <point x="-340" y="-980" type="curve" smooth="yes"/>
      <point x="-377" y="-980"/>
      <point x="-409" y="-957"/>
      <point x="-435" y="-931" type="curve" smooth="yes"/>
      <point x="-444" y="-922"/>
      <point x="-454" y="-919"/>
      <point x="-464" y="-929" type="curve" smooth="yes"/>
      <point x="-476" y="-940"/>
      <point x="-474" y="-950"/>
      <point x="-466" y="-957" type="curve" smooth="yes"/>
      <point x="-435" y="-991"/>
      <point x="-386" y="-1017"/>
    </contour>
  </outline>
</glyph>
<glyph name="gravecomb" format="2">
  <unicode hex="0300"/>
  <anchor x="81" y="500" name="_top"/>
  <anchor x="170" y="774" name="top"/>
  <outline>
    <contour>
      <point x="174" y="630" type="curve" smooth="yes"/>
      <point x="181" y="630"/>
      <point x="191" y="635"/>
      <point x="194" y="643" type="curve" smooth="yes"/>
      <point x="194" y="645"/>
      <point x="194" y="649"/>
      <point x="193" y="653" type="curve" smooth="yes"/>
      <point x="114" y="836" type="line" smooth="yes"/>
      <point x="111" y="841"/>
      <point x="109" y="844"/>
      <point x="104" y="844" type="curve" smooth="yes"/>
      <point x="94" y="844"/>
      <point x="76" y="836"/>
      <point x="73" y="826" type="curve" smooth="yes"/>
      <point x="71" y="823"/>
      <point x="71" y="820"/>
      <point x="73" y="816" type="curve" smooth="yes"/>
      <point x="165" y="636" type="line" smooth="yes"/>
      <point x="168" y="631"/>
      <point x="170" y="630"/>
    </contour>
  </outline>
</glyph>
<glyph name="tildecomb" format="2">
  <unicode hex="0303"/>
  <anchor x="81" y="500" name="_top"/>
  <anchor x="184" y="818" name="top"/>
  <outline>
    <contour>
      <point x="-15" y="654" type="curve" smooth="yes"/>
      <point x="-2" y="654"/>
      <point x="3" y="659"/>
      <point x="6" y="671" type="curve" smooth="yes"/>
      <point x="20" y="725"/>
      <point x="34" y="746"/>
      <point x="60" y="746" type="curve" smooth="yes"/>
      <point x="116" y="746"/>
      <point x="173" y="658"/>
      <point x="244" y="658" type="curve" smooth="yes"/>
      <point x="299" y="658"/>
      <point x="321" y="693"/>
      <point x="339" y="765" type="curve" smooth="yes"/>
      <point x="343" y="779"/>
      <point x="338" y="784"/>
      <point x="324" y="784" type="curve" smooth="yes"/>
      <point x="311" y="784"/>
      <point x="306" y="780"/>
      <point x="303" y="766" type="curve" smooth="yes"/>
      <point x="290" y="715"/>
      <point x="278" y="693"/>
      <point x="249" y="693" type="curve" smooth="yes"/>
      <point x="193" y="693"/>
      <point x="139" y="781"/>
      <point x="64" y="781" type="curve" smooth="yes"/>
      <point x="13" y="781"/>
      <point x="-12" y="745"/>
      <point x="-29" y="673" type="curve" smooth="yes"/>
      <point x="-31" y="661"/>
      <point x="-26" y="654"/>
    </contour>
  </outline>
</glyph>
<glyph name="macroncomb" format="2">
  <unicode hex="0304"/>
  <anchor x="65" y="400" name="_top"/>
  <anchor x="136" y="619" name="top"/>
  <outline>
    <contour>
      <point x="14" y="573" type="curve" smooth="yes"/>
      <point x="228" y="573" type="line" smooth="yes"/>
      <point x="237" y="573"/>
      <point x="242" y="577"/>
      <point x="245" y="586" type="curve" smooth="yes"/>
      <point x="248" y="596"/>
      <point x="247" y="601"/>
      <point x="238" y="601" type="curve" smooth="yes"/>
      <point x="24" y="601" type="line" smooth="yes"/>
      <point x="15" y="601"/>
      <point x="10" y="596"/>
      <point x="7" y="586" type="curve" smooth="yes"/>
      <point x="4" y="577"/>
      <point x="5" y="573"/>
    </contour>
  </outline>
</glyph>
<glyph name="hookabovecomb" format="2">
	<unicode hex="0309"/>
	<outline>
		<contour>
			<point x="127" y="670" type="curve" smooth="yes"/>
			<point x="104" y="670"/>
			<point x="75" y="662"/>
			<point x="57" y="650" type="curve" smooth="yes"/>
			<point x="49" y="644"/>
			<point x="47" y="637"/>
			<point x="50" y="630" type="curve" smooth="yes"/>
			<point x="54" y="623"/>
			<point x="61" y="621"/>
			<point x="69" y="626" type="curve" smooth="yes"/>
			<point x="87" y="637"/>
			<point x="106" y="642"/>
			<point x="123" y="642" type="curve" smooth="yes"/>
			<point x="142" y="642"/>
			<point x="154" y="632"/>
			<point x="154" y="616" type="curve" smooth="yes"/>
			<point x="154" y="604"/>
			<point x="147" y="594"/>
			<point x="126" y="579" type="curve" smooth="yes"/>
			<point x="105" y="565"/>
			<point x="87" y="549"/>
			<point x="85" y="517" type="curve" smooth="yes"/>
			<point x="84" y="502" type="line" smooth="yes"/>
			<point x="83" y="489"/>
			<point x="111" y="485"/>
			<point x="112" y="502" type="curve" smooth="yes"/>
			<point x="113" y="517" type="line" smooth="yes"/>
			<point x="114" y="530"/>
			<point x="123" y="544"/>
			<point x="141" y="556" type="curve" smooth="yes"/>
			<point x="172" y="577"/>
			<point x="185" y="595"/>
			<point x="185" y="620" type="curve" smooth="yes"/>
			<point x="185" y="648"/>
			<point x="163" y="670"/>
		</contour>
	</outline>
	<anchor name="_top" x="65" y="400"/>
	<anchor name="top" x="136" y="619"/>
</glyph>
<glyph name="caroncomb" format="2">
  <unicode hex="030C"/>
  <anchor x="81" y="500" name="_top"/>
  <anchor x="184" y="818" name="top"/>
  <outline>
    <contour>
      <point x="326" y="836" type="curve" smooth="yes"/>
      <point x="321" y="836"/>
      <point x="318" y="835"/>
      <point x="309" y="828" type="curve" smooth="yes"/>
      <point x="135" y="683" type="line"/>
      <point x="45" y="829" type="line" smooth="yes"/>
      <point x="41" y="834"/>
      <point x="38" y="836"/>
      <point x="31" y="836" type="curve" smooth="yes"/>
      <point x="24" y="836"/>
      <point x="14" y="830"/>
      <point x="14" y="820" type="curve" smooth="yes"/>
      <point x="14" y="816"/>
      <point x="16" y="811"/>
      <point x="19" y="808" type="curve" smooth="yes"/>
      <point x="113" y="639" type="line" smooth="yes"/>
      <point x="118" y="631"/>
      <point x="123" y="630"/>
      <point x="128" y="630" type="curve" smooth="yes"/>
      <point x="133" y="630"/>
      <point x="138" y="631"/>
      <point x="145" y="639" type="curve" smooth="yes"/>
      <point x="336" y="808" type="line" smooth="yes"/>
      <point x="341" y="813"/>
      <point x="344" y="816"/>
      <point x="344" y="821" type="curve" smooth="yes"/>
      <point x="344" y="829"/>
      <point x="335" y="836"/>
    </contour>
  </outline>
</glyph>
<glyph name="horncomb" format="2">
  <unicode hex="031B"/>
  <anchor x="69" y="412" name="_topright"/>
  <outline>
    <contour>
      <point x="203" y="549" type="curve" smooth="yes"/>
      <point x="202" y="565"/>
      <point x="171" y="562"/>
      <point x="172" y="546" type="curve" smooth="yes"/>
      <point x="176" y="454"/>
      <point x="151" y="416"/>
      <point x="69" y="412" type="curve"/>
      <point x="62" y="391" type="line"/>
      <point x="166" y="388"/>
      <point x="212" y="440"/>
    </contour>
  </outline>
</glyph>
<glyph name="cedillacomb" format="2">
	<unicode hex="0327"/>
	<outline>
		<contour>
			<point x="-110" y="-209" type="curve" smooth="yes"/>
			<point x="-50" y="-209"/>
			<point x="-15" y="-179"/>
			<point x="-15" y="-135" type="curve" smooth="yes"/>
			<point x="-15" y="-91"/>
			<point x="-47" y="-66"/>
			<point x="-104" y="-78" type="curve"/>
			<point x="-98" y="-87" type="line"/>
			<point x="-44" y="0" type="line"/>
			<point x="-70" y="0" type="line"/>
			<point x="-117" y="-74" type="line" smooth="yes"/>
			<point x="-123" y="-84"/>
			<point x="-123" y="-88"/>
			<point x="-121" y="-95" type="curve" smooth="yes"/>
			<point x="-119" y="-101"/>
			<point x="-115" y="-103"/>
			<point x="-108" y="-102" type="curve" smooth="yes"/>
			<point x="-66" y="-97"/>
			<point x="-48" y="-108"/>
			<point x="-48" y="-135" type="curve" smooth="yes"/>
			<point x="-48" y="-166"/>
			<point x="-69" y="-181"/>
			<point x="-105" y="-181" type="curve" smooth="yes"/>
			<point x="-126" y="-181"/>
			<point x="-145" y="-176"/>
			<point x="-161" y="-168" type="curve" smooth="yes"/>
			<point x="-168" y="-165"/>
			<point x="-173" y="-165"/>
			<point x="-179" y="-172" type="curve" smooth="yes"/>
			<point x="-184" y="-179"/>
			<point x="-185" y="-186"/>
			<point x="-178" y="-191" type="curve" smooth="yes"/>
			<point x="-158" y="-206"/>
			<point x="-128" y="-209"/>
		</contour>
	</outline>
	<anchor name="_bottom" x="-65" y="0"/>
	<anchor name="bottom" x="-134" y="-210"/>
</glyph>
<glyph name="ogonekcomb" format="2">
	<unicode hex="0328"/>
	<outline>
		<contour>
			<point x="-112" y="-206" type="curve" smooth="yes"/>
			<point x="-75" y="-206"/>
			<point x="-43" y="-184"/>
			<point x="-14" y="-150" type="curve" smooth="yes"/>
			<point x="-9" y="-144"/>
			<point x="-8" y="-139"/>
			<point x="-14" y="-133" type="curve" smooth="yes"/>
			<point x="-21" y="-126"/>
			<point x="-28" y="-128"/>
			<point x="-32" y="-133" type="curve" smooth="yes"/>
			<point x="-61" y="-164"/>
			<point x="-86" y="-180"/>
			<point x="-109" y="-180" type="curve" smooth="yes"/>
			<point x="-126" y="-180"/>
			<point x="-133" y="-167"/>
			<point x="-133" y="-154" type="curve" smooth="yes"/>
			<point x="-133" y="-111"/>
			<point x="-81" y="-64"/>
			<point x="6" y="0" type="curve"/>
			<point x="6" y="3" type="line"/>
			<point x="-24" y="4" type="line"/>
			<point x="-118" y="-66"/>
			<point x="-163" y="-106"/>
			<point x="-163" y="-158" type="curve" smooth="yes"/>
			<point x="-163" y="-186"/>
			<point x="-144" y="-206"/>
		</contour>
	</outline>
	<anchor name="_ogonek" x="6" y="0"/>
</glyph>
<glyph name="strokeshortcomb" format="2">
	<unicode hex="0335"/>
	<outline>
		<contour>
			<point x="-91" y="260" type="curve" smooth="yes"/>
			<point x="133" y="260" type="line" smooth="yes"/>
			<point x="143" y="260"/>
			<point x="147" y="263"/>
			<point x="150" y="274" type="curve" smooth="yes"/>
			<point x="152" y="283"/>
			<point x="152" y="288"/>
			<point x="141" y="288" type="curve" smooth="yes"/>
			<point x="-83" y="288" type="line" smooth="yes"/>
			<point x="-93" y="288"/>
			<point x="-97" y="285"/>
			<point x="-100" y="275" type="curve" smooth="yes"/>
			<point x="-103" y="265"/>
			<point x="-102" y="260"/>
		</contour>
	</outline>
	<anchor name="_center" x="25" y="274"/>
</glyph>
<glyph name="Germandbls" format="2">
  <advance width="1325"/>
  <unicode hex="1E9E"/>
  <outline>
    <contour>
      <point x="815" y="-19" type="curve" smooth="yes"/>
      <point x="1014" y="-19"/>
      <point x="1230" y="129"/>
      <point x="1230" y="425" type="curve" smooth="yes"/>
      <point x="1230" y="758"/>
      <point x="965" y="894"/>
      <point x="965" y="1143" type="curve" smooth="yes"/>
      <point x="965" y="1339"/>
      <point x="1144" y="1480"/>
      <point x="1358" y="1480" type="curve" smooth="yes"/>
      <point x="1370" y="1480"/>
      <point x="1375" y="1484"/>
      <point x="1379" y="1498" type="curve" smooth="yes"/>
      <point x="1381" y="1509"/>
      <point x="1381" y="1515"/>
      <point x="1368" y="1515" type="curve" smooth="yes"/>
      <point x="1304" y="1515" type="line" smooth="yes"/>
      <point x="726" y="1515"/>
      <point x="558" y="1255"/>
      <point x="431" y="869" type="curve" smooth="yes"/>
      <point x="149" y="1" type="line" smooth="yes"/>
      <point x="145" y="-10"/>
      <point x="151" y="-14"/>
      <point x="164" y="-14" type="curve" smooth="yes"/>
      <point x="180" y="-14"/>
      <point x="184" y="-10"/>
      <point x="188" y="1" type="curve" smooth="yes"/>
      <point x="470" y="874" type="line" smooth="yes"/>
      <point x="576" y="1202"/>
      <point x="731" y="1442"/>
      <point x="1181" y="1478" type="curve"/>
      <point x="1039" y="1431"/>
      <point x="925" y="1309"/>
      <point x="925" y="1138" type="curve" smooth="yes"/>
      <point x="925" y="876"/>
      <point x="1189" y="750"/>
      <point x="1189" y="420" type="curve" smooth="yes"/>
      <point x="1189" y="150"/>
      <point x="989" y="19"/>
      <point x="818" y="19" type="curve" smooth="yes"/>
      <point x="698" y="19"/>
      <point x="613" y="44"/>
      <point x="498" y="115" type="curve" smooth="yes"/>
      <point x="488" y="121"/>
      <point x="479" y="115"/>
      <point x="473" y="105" type="curve" smooth="yes"/>
      <point x="464" y="91"/>
      <point x="469" y="84"/>
      <point x="481" y="76" type="curve" smooth="yes"/>
      <point x="596" y="9"/>
      <point x="685" y="-19"/>
    </contour>
  </outline>
</glyph>
<glyph name="emdash" format="2">
  <advance width="1000"/>
  <unicode hex="2014"/>
  <outline>
    <contour>
      <point x="93" y="260" type="curve" smooth="yes"/>
      <point x="947" y="260" type="line" smooth="yes"/>
      <point x="957" y="260"/>
      <point x="961" y="263"/>
      <point x="964" y="274" type="curve" smooth="yes"/>
      <point x="966" y="283"/>
      <point x="966" y="288"/>
      <point x="955" y="288" type="curve" smooth="yes"/>
      <point x="101" y="288" type="line" smooth="yes"/>
      <point x="91" y="288"/>
      <point x="87" y="285"/>
      <point x="84" y="275" type="curve" smooth="yes"/>
      <point x="81" y="265"/>
      <point x="82" y="260"/>
    </contour>
  </outline>
</glyph>
<glyph name="minute" format="2">
  <advance width="161"/>
  <unicode hex="2032"/>
  <outline>
    <contour>
      <point x="352" y="1235" type="curve" smooth="yes"/>
      <point x="361" y="1235"/>
      <point x="370" y="1239"/>
      <point x="375" y="1249" type="curve" smooth="yes"/>
      <point x="501" y="1486" type="line" smooth="yes"/>
      <point x="511" y="1505"/>
      <point x="503" y="1519"/>
      <point x="476" y="1519" type="curve" smooth="yes"/>
      <point x="461" y="1519"/>
      <point x="452" y="1512"/>
      <point x="444" y="1494" type="curve" smooth="yes"/>
      <point x="336" y="1255" type="line" smooth="yes"/>
      <point x="331" y="1243"/>
      <point x="338" y="1235"/>
    </contour>
  </outline>
</glyph>
<glyph name="euro" format="2">
  <advance width="961"/>
  <unicode hex="20AC"/>
  <outline>
    <contour>
      <point x="509" y="-26" type="curve" smooth="yes"/>
      <point x="668" y="-26"/>
      <point x="811" y="91"/>
      <point x="945" y="264" type="curve" smooth="yes"/>
      <point x="952" y="273"/>
      <point x="951" y="281"/>
      <point x="944" y="286" type="curve" smooth="yes"/>
      <point x="935" y="293"/>
      <point x="930" y="292"/>
      <point x="924" y="284" type="curve" smooth="yes"/>
      <point x="802" y="132"/>
      <point x="669" y="4"/>
      <point x="509" y="4" type="curve" smooth="yes"/>
      <point x="353" y="4"/>
      <point x="244" y="140"/>
      <point x="244" y="369" type="curve" smooth="yes"/>
      <point x="244" y="728"/>
      <point x="492" y="1182"/>
      <point x="859" y="1182" type="curve" smooth="yes"/>
      <point x="960" y="1182"/>
      <point x="1040" y="1143"/>
      <point x="1110" y="1062" type="curve" smooth="yes"/>
      <point x="1121" y="1050"/>
      <point x="1123" y="1047"/>
      <point x="1132" y="1051" type="curve" smooth="yes"/>
      <point x="1144" y="1057"/>
      <point x="1148" y="1064"/>
      <point x="1142" y="1073" type="curve" smooth="yes"/>
      <point x="1086" y="1157"/>
      <point x="980" y="1212"/>
      <point x="859" y="1212" type="curve" smooth="yes"/>
      <point x="474" y="1212"/>
      <point x="211" y="753"/>
      <point x="211" y="369" type="curve" smooth="yes"/>
      <point x="211" y="116"/>
      <point x="327" y="-26"/>
    </contour>
    <contour>
      <point x="156" y="653" type="curve" smooth="yes"/>
      <point x="848" y="653" type="line" smooth="yes"/>
      <point x="853" y="653"/>
      <point x="859" y="658"/>
      <point x="862" y="668" type="curve" smooth="yes"/>
      <point x="865" y="678"/>
      <point x="862" y="681"/>
      <point x="857" y="681" type="curve" smooth="yes"/>
      <point x="165" y="681" type="line" smooth="yes"/>
      <point x="160" y="681"/>
      <point x="155" y="677"/>
      <point x="152" y="667" type="curve" smooth="yes"/>
      <point x="149" y="657"/>
      <point x="151" y="653"/>
    </contour>
    <contour>
      <point x="114" y="509" type="curve" smooth="yes"/>
      <point x="806" y="509" type="line" smooth="yes"/>
      <point x="811" y="509"/>
      <point x="816" y="514"/>
      <point x="819" y="524" type="curve" smooth="yes"/>
      <point x="823" y="534"/>
      <point x="820" y="537"/>
      <point x="815" y="537" type="curve" smooth="yes"/>
      <point x="123" y="537" type="line" smooth="yes"/>
      <point x="118" y="537"/>
      <point x="112" y="533"/>
      <point x="109" y="523" type="curve" smooth="yes"/>
      <point x="106" y="513"/>
      <point x="109" y="509"/>
    </contour>
  </outline>
</glyph>
<glyph name="trademark" format="2">
  <advance width="768"/>
  <unicode hex="2122"/>
  <outline>
    <contour>
      <point x="430" y="834" type="curve" smooth="yes"/>
      <point x="439" y="834"/>
      <point x="445" y="837"/>
      <point x="445" y="844" type="curve" smooth="yes"/>
      <point x="445" y="1164" type="line"/>
      <point x="552" y="1164" type="line" smooth="yes"/>
      <point x="558" y="1164"/>
      <point x="561" y="1168"/>
      <point x="561" y="1177" type="curve" smooth="yes"/>
      <point x="561" y="1186"/>
      <point x="558" y="1190"/>
      <point x="552" y="1190" type="curve" smooth="yes"/>
      <point x="309" y="1190" type="line" smooth="yes"/>
      <point x="303" y="1190"/>
      <point x="300" y="1187"/>
      <point x="300" y="1177" type="curve" smooth="yes"/>
      <point x="300" y="1167"/>
      <point x="303" y="1164"/>
      <point x="309" y="1164" type="curve" smooth="yes"/>
      <point x="416" y="1164" type="line"/>
      <point x="416" y="844" type="line" smooth="yes"/>
      <point x="416" y="837"/>
      <point x="421" y="834"/>
    </contour>
    <contour>
      <point x="635" y="834" type="curve" smooth="yes"/>
      <point x="644" y="834"/>
      <point x="649" y="836"/>
      <point x="649" y="843" type="curve" smooth="yes"/>
      <point x="649" y="1128" type="line"/>
      <point x="762" y="937" type="line" smooth="yes"/>
      <point x="765" y="931"/>
      <point x="770" y="930"/>
      <point x="778" y="930" type="curve" smooth="yes"/>
      <point x="785" y="930"/>
      <point x="789" y="931"/>
      <point x="793" y="938" type="curve" smooth="yes"/>
      <point x="906" y="1128" type="line"/>
      <point x="906" y="843" type="line" smooth="yes"/>
      <point x="906" y="836"/>
      <point x="912" y="834"/>
      <point x="920" y="834" type="curve" smooth="yes"/>
      <point x="929" y="834"/>
      <point x="934" y="836"/>
      <point x="934" y="843" type="curve" smooth="yes"/>
      <point x="934" y="1181" type="line" smooth="yes"/>
      <point x="934" y="1187"/>
      <point x="930" y="1190"/>
      <point x="920" y="1190" type="curve" smooth="yes"/>
      <point x="912" y="1190"/>
      <point x="908" y="1187"/>
      <point x="905" y="1181" type="curve" smooth="yes"/>
      <point x="778" y="963" type="line"/>
      <point x="650" y="1181" type="line" smooth="yes"/>
      <point x="647" y="1187"/>
      <point x="643" y="1190"/>
      <point x="635" y="1190" type="curve" smooth="yes"/>
      <point x="626" y="1190"/>
      <point x="621" y="1187"/>
      <point x="621" y="1181" type="curve" smooth="yes"/>
      <point x="621" y="843" type="line" smooth="yes"/>
      <point x="621" y="836"/>
      <point x="627" y="834"/>
    </contour>
  </outline>
</glyph>
<glyph name="product" format="2">
  <advance width="1130"/>
  <unicode hex="220F"/>
  <outline>
    <contour>
      <point x="133" y="-82" type="curve" smooth="yes"/>
      <point x="146" y="-82"/>
      <point x="151" y="-79"/>
      <point x="155" y="-67" type="curve" smooth="yes"/>
      <point x="650" y="1453" type="line"/>
      <point x="1261" y="1453" type="line"/>
      <point x="766" y="-67" type="line" smooth="yes"/>
      <point x="762" y="-79"/>
      <point x="767" y="-82"/>
      <point x="781" y="-82" type="curve" smooth="yes"/>
      <point x="795" y="-82"/>
      <point x="800" y="-79"/>
      <point x="804" y="-67" type="curve" smooth="yes"/>
      <point x="1299" y="1453" type="line"/>
      <point x="1485" y="1453" type="line" smooth="yes"/>
      <point x="1491" y="1453"/>
      <point x="1498" y="1459"/>
      <point x="1502" y="1472" type="curve" smooth="yes"/>
      <point x="1506" y="1484"/>
      <point x="1502" y="1488"/>
      <point x="1496" y="1488" type="curve" smooth="yes"/>
      <point x="438" y="1488" type="line" smooth="yes"/>
      <point x="432" y="1488"/>
      <point x="425" y="1483"/>
      <point x="422" y="1471" type="curve" smooth="yes"/>
      <point x="418" y="1458"/>
      <point x="420" y="1453"/>
      <point x="427" y="1453" type="curve" smooth="yes"/>
      <point x="613" y="1453" type="line"/>
      <point x="118" y="-67" type="line" smooth="yes"/>
      <point x="114" y="-79"/>
      <point x="119" y="-82"/>
    </contour>
  </outline>
</glyph>
<glyph name="integral" format="2">
  <advance width="506"/>
  <unicode hex="222B"/>
  <outline>
    <contour>
      <point x="-26" y="-75" type="curve" smooth="yes"/>
      <point x="78" y="-75"/>
      <point x="129" y="-12"/>
      <point x="171" y="79" type="curve" smooth="yes"/>
      <point x="478" y="740" type="line" smooth="yes"/>
      <point x="515" y="823"/>
      <point x="549" y="859"/>
      <point x="633" y="859" type="curve" smooth="yes"/>
      <point x="648" y="859"/>
      <point x="650" y="869"/>
      <point x="650" y="879" type="curve" smooth="yes"/>
      <point x="650" y="886"/>
      <point x="648" y="894"/>
      <point x="636" y="894" type="curve" smooth="yes"/>
      <point x="533" y="894"/>
      <point x="481" y="831"/>
      <point x="439" y="740" type="curve" smooth="yes"/>
      <point x="133" y="79" type="line" smooth="yes"/>
      <point x="95" y="-4"/>
      <point x="61" y="-40"/>
      <point x="-22" y="-40" type="curve" smooth="yes"/>
      <point x="-36" y="-40"/>
      <point x="-40" y="-50"/>
      <point x="-40" y="-60" type="curve" smooth="yes"/>
      <point x="-40" y="-66"/>
      <point x="-36" y="-75"/>
    </contour>
  </outline>
</glyph>
<glyph name="notequal" format="2">
  <advance width="610"/>
  <unicode hex="2260"/>
  <outline>
    <contour>
      <point x="176" y="56" type="curve" smooth="yes"/>
      <point x="186" y="53"/>
      <point x="192" y="55"/>
      <point x="197" y="64" type="curve" smooth="yes"/>
      <point x="528" y="629" type="line" smooth="yes"/>
      <point x="532" y="637"/>
      <point x="530" y="641"/>
      <point x="522" y="644" type="curve" smooth="yes"/>
      <point x="512" y="647"/>
      <point x="506" y="645"/>
      <point x="501" y="636" type="curve" smooth="yes"/>
      <point x="170" y="71" type="line" smooth="yes"/>
      <point x="166" y="63"/>
      <point x="167" y="59"/>
    </contour>
    <component base="equal"/>
  </outline>
</glyph>
<glyph name="A.cur" format="2">
	<advance width="1214"/>
	<outline>
		<contour>
			<point x="418" y="-15" type="curve" smooth="yes"/>
			<point x="638" y="-15"/>
			<point x="878" y="254"/>
			<point x="1120" y="760" type="curve"/>
			<point x="1092" y="763" type="line"/>
			<point x="855" y="275"/>
			<point x="623" y="15"/>
			<point x="424" y="15" type="curve" smooth="yes"/>
			<point x="307" y="15"/>
			<point x="238" y="120"/>
			<point x="238" y="299" type="curve" smooth="yes"/>
			<point x="238" y="731"/>
			<point x="578" y="1182"/>
			<point x="902" y="1182" type="curve" smooth="yes"/>
			<point x="1038" y="1182"/>
			<point x="1129" y="1127"/>
			<point x="1184" y="1013" type="curve" smooth="yes"/>
			<point x="1190" y="1001"/>
			<point x="1195" y="996"/>
			<point x="1205" y="1002" type="curve" smooth="yes"/>
			<point x="1213" y="1007"/>
			<point x="1215" y="1014"/>
			<point x="1211" y="1023" type="curve" smooth="yes"/>
			<point x="1148" y="1151"/>
			<point x="1050" y="1212"/>
			<point x="907" y="1212" type="curve" smooth="yes"/>
			<point x="559" y="1212"/>
			<point x="205" y="752"/>
			<point x="205" y="299" type="curve" smooth="yes"/>
			<point x="205" y="102"/>
			<point x="284" y="-15"/>
		</contour>
		<contour>
			<point x="943" y="-15" type="curve" smooth="yes"/>
			<point x="1007" y="-15"/>
			<point x="1079" y="46"/>
			<point x="1165" y="175" type="curve" smooth="yes"/>
			<point x="1169" y="181"/>
			<point x="1167" y="188"/>
			<point x="1161" y="192" type="curve" smooth="yes"/>
			<point x="1155" y="196"/>
			<point x="1146" y="198"/>
			<point x="1141" y="190" type="curve" smooth="yes"/>
			<point x="1065" y="71"/>
			<point x="1002" y="14"/>
			<point x="946" y="14" type="curve" smooth="yes"/>
			<point x="898" y="14"/>
			<point x="889" y="56"/>
			<point x="918" y="144" type="curve" smooth="yes"/>
			<point x="1123" y="763" type="line" smooth="yes"/>
			<point x="1126" y="772"/>
			<point x="1121" y="775"/>
			<point x="1111" y="775" type="curve" smooth="yes"/>
			<point x="1098" y="775"/>
			<point x="1095" y="772"/>
			<point x="1092" y="763" type="curve" smooth="yes"/>
			<point x="888" y="148" type="line" smooth="yes"/>
			<point x="852" y="41"/>
			<point x="874" y="-15"/>
		</contour>
	</outline>
	<anchor name="bottom" x="418" y="0"/>
	<anchor name="ogonek" x="1034" y="17"/>
	<anchor name="top" x="880" y="1139"/>
</glyph>
<glyph name="A.cur.ini" format="2">
	<advance width="1152"/>
	<outline>
		<contour>
			<point x="418" y="-15" type="curve" smooth="yes"/>
			<point x="638" y="-15"/>
			<point x="878" y="254"/>
			<point x="1120" y="760" type="curve"/>
			<point x="1092" y="763" type="line"/>
			<point x="855" y="275"/>
			<point x="623" y="15"/>
			<point x="424" y="15" type="curve" smooth="yes"/>
			<point x="307" y="15"/>
			<point x="238" y="120"/>
			<point x="238" y="299" type="curve" smooth="yes"/>
			<point x="238" y="731"/>
			<point x="578" y="1182"/>
			<point x="902" y="1182" type="curve" smooth="yes"/>
			<point x="1038" y="1182"/>
			<point x="1129" y="1127"/>
			<point x="1184" y="1013" type="curve" smooth="yes"/>
			<point x="1190" y="1001"/>
			<point x="1195" y="996"/>
			<point x="1205" y="1002" type="curve" smooth="yes"/>
			<point x="1213" y="1007"/>
			<point x="1215" y="1014"/>
			<point x="1211" y="1023" type="curve" smooth="yes"/>
			<point x="1148" y="1151"/>
			<point x="1050" y="1212"/>
			<point x="907" y="1212" type="curve" smooth="yes"/>
			<point x="559" y="1212"/>
			<point x="205" y="752"/>
			<point x="205" y="299" type="curve" smooth="yes"/>
			<point x="205" y="102"/>
			<point x="284" y="-15"/>
		</contour>
		<contour>
			<point x="1005" y="-14" type="curve" smooth="yes"/>
			<point x="1025" y="-14"/>
			<point x="1034" y="14"/>
			<point x="1014" y="14" type="curve" smooth="yes"/>
			<point x="916" y="14"/>
			<point x="915" y="138"/>
			<point x="1001" y="396" type="curve" smooth="yes"/>
			<point x="1123" y="763" type="line" smooth="yes"/>
			<point x="1126" y="772"/>
			<point x="1121" y="775"/>
			<point x="1111" y="775" type="curve" smooth="yes"/>
			<point x="1098" y="775"/>
			<point x="1095" y="772"/>
			<point x="1092" y="763" type="curve" smooth="yes"/>
			<point x="966" y="385" type="line" smooth="yes"/>
			<point x="869" y="93"/>
			<point x="903" y="-14"/>
		</contour>
	</outline>
	<anchor name="bottom" x="418" y="0"/>
	<anchor name="cnct" x="1086" y="0"/>
	<anchor name="ogonek" x="1034" y="17"/>
	<anchor name="top" x="880" y="1139"/>
</glyph>
<glyph name="A.cur_locl" format="2">
	<advance width="1214"/>
	<outline>
		<contour>
			<point x="418" y="-15" type="curve" smooth="yes"/>
			<point x="638" y="-15"/>
			<point x="878" y="254"/>
			<point x="1120" y="760" type="curve"/>
			<point x="1092" y="763" type="line"/>
			<point x="855" y="275"/>
			<point x="623" y="15"/>
			<point x="424" y="15" type="curve" smooth="yes"/>
			<point x="307" y="15"/>
			<point x="238" y="120"/>
			<point x="238" y="299" type="curve" smooth="yes"/>
			<point x="238" y="731"/>
			<point x="578" y="1182"/>
			<point x="902" y="1182" type="curve" smooth="yes"/>
			<point x="1028" y="1182"/>
			<point x="1123" y="1126"/>
			<point x="1182" y="1017" type="curve"/>
			<point x="1194" y="1054" type="line"/>
			<point x="1127" y="1159"/>
			<point x="1031" y="1212"/>
			<point x="907" y="1212" type="curve" smooth="yes"/>
			<point x="559" y="1212"/>
			<point x="205" y="752"/>
			<point x="205" y="299" type="curve" smooth="yes"/>
			<point x="205" y="102"/>
			<point x="284" y="-15"/>
		</contour>
		<contour>
			<point x="943" y="-15" type="curve" smooth="yes"/>
			<point x="1007" y="-15"/>
			<point x="1079" y="46"/>
			<point x="1165" y="175" type="curve" smooth="yes"/>
			<point x="1169" y="181"/>
			<point x="1167" y="188"/>
			<point x="1161" y="192" type="curve" smooth="yes"/>
			<point x="1155" y="196"/>
			<point x="1146" y="198"/>
			<point x="1141" y="190" type="curve" smooth="yes"/>
			<point x="1065" y="71"/>
			<point x="1002" y="14"/>
			<point x="946" y="14" type="curve" smooth="yes"/>
			<point x="898" y="14"/>
			<point x="889" y="56"/>
			<point x="918" y="144" type="curve" smooth="yes"/>
			<point x="1265" y="1200" type="line" smooth="yes"/>
			<point x="1268" y="1209"/>
			<point x="1263" y="1212"/>
			<point x="1253" y="1212" type="curve" smooth="yes"/>
			<point x="1240" y="1212"/>
			<point x="1237" y="1209"/>
			<point x="1234" y="1200" type="curve" smooth="yes"/>
			<point x="888" y="148" type="line" smooth="yes"/>
			<point x="852" y="41"/>
			<point x="874" y="-15"/>
		</contour>
	</outline>
	<anchor name="bottom" x="418" y="0"/>
	<anchor name="ogonek" x="1034" y="17"/>
	<anchor name="top" x="880" y="1139"/>
</glyph>
<glyph name="A.cur_locl.ini" format="2">
  <advance width="1152"/>
  <anchor x="418" y="0" name="bottom"/>
  <anchor x="1086" y="0" name="cnct"/>
  <anchor x="1034" y="17" name="ogonek"/>
  <anchor x="880" y="1139" name="top"/>
  <outline>
    <contour>
      <point x="418" y="-15" type="curve" smooth="yes"/>
      <point x="638" y="-15"/>
      <point x="878" y="254"/>
      <point x="1120" y="760" type="curve"/>
      <point x="1092" y="763" type="line"/>
      <point x="855" y="275"/>
      <point x="623" y="15"/>
      <point x="424" y="15" type="curve" smooth="yes"/>
      <point x="307" y="15"/>
      <point x="238" y="120"/>
      <point x="238" y="299" type="curve" smooth="yes"/>
      <point x="238" y="731"/>
      <point x="578" y="1182"/>
      <point x="902" y="1182" type="curve" smooth="yes"/>
      <point x="1028" y="1182"/>
      <point x="1123" y="1126"/>
      <point x="1182" y="1017" type="curve"/>
      <point x="1194" y="1054" type="line"/>
      <point x="1127" y="1159"/>
      <point x="1031" y="1212"/>
      <point x="907" y="1212" type="curve" smooth="yes"/>
      <point x="559" y="1212"/>
      <point x="205" y="752"/>
      <point x="205" y="299" type="curve" smooth="yes"/>
      <point x="205" y="102"/>
      <point x="284" y="-15"/>
    </contour>
    <contour>
      <point x="1005" y="-14" type="curve" smooth="yes"/>
      <point x="1025" y="-14"/>
      <point x="1034" y="14"/>
      <point x="1014" y="14" type="curve" smooth="yes"/>
      <point x="915" y="14"/>
      <point x="916" y="138"/>
      <point x="1001" y="396" type="curve" smooth="yes"/>
      <point x="1265" y="1200" type="line" smooth="yes"/>
      <point x="1268" y="1209"/>
      <point x="1263" y="1212"/>
      <point x="1253" y="1212" type="curve" smooth="yes"/>
      <point x="1240" y="1212"/>
      <point x="1237" y="1209"/>
      <point x="1234" y="1200" type="curve" smooth="yes"/>
      <point x="966" y="385" type="line" smooth="yes"/>
      <point x="870" y="93"/>
      <point x="902" y="-14"/>
    </contour>
  </outline>
</glyph>
<glyph name="A.dec" format="2">
  <advance width="1155"/>
  <anchor x="622" y="0" name="bottom"/>
  <anchor x="958" y="0" name="ogonek"/>
  <anchor x="994" y="1139" name="top"/>
  <outline>
    <contour>
      <point x="169" y="-14" type="curve" smooth="yes"/>
      <point x="349" y="-14"/>
      <point x="566" y="290"/>
      <point x="1025" y="1183" type="curve"/>
      <point x="1010" y="1182" type="line"/>
      <point x="942" y="759"/>
      <point x="918" y="361"/>
      <point x="926" y="3" type="curve" smooth="yes"/>
      <point x="926" y="-11"/>
      <point x="931" y="-14"/>
      <point x="943" y="-13" type="curve" smooth="yes"/>
      <point x="955" y="-12"/>
      <point x="958" y="-7"/>
      <point x="958" y="5" type="curve" smooth="yes"/>
      <point x="951" y="393"/>
      <point x="979" y="793"/>
      <point x="1041" y="1194" type="curve" smooth="yes"/>
      <point x="1043" y="1206"/>
      <point x="1037" y="1212"/>
      <point x="1025" y="1212" type="curve" smooth="yes"/>
      <point x="1013" y="1212"/>
      <point x="1006" y="1205"/>
      <point x="1000" y="1194" type="curve" smooth="yes"/>
      <point x="541" y="316"/>
      <point x="330" y="16"/>
      <point x="170" y="16" type="curve" smooth="yes"/>
      <point x="125" y="16"/>
      <point x="94" y="49"/>
      <point x="76" y="72" type="curve" smooth="yes"/>
      <point x="72" y="77"/>
      <point x="65" y="80"/>
      <point x="56" y="72" type="curve" smooth="yes"/>
      <point x="46" y="63"/>
      <point x="49" y="57"/>
      <point x="53" y="51" type="curve" smooth="yes"/>
      <point x="87" y="9"/>
      <point x="122" y="-14"/>
    </contour>
    <contour>
      <point x="925" y="63" type="curve"/>
      <point x="950" y="89" type="line"/>
      <point x="960" y="342"/>
      <point x="812" y="496"/>
      <point x="560" y="496" type="curve" smooth="yes"/>
      <point x="476" y="496"/>
      <point x="367" y="454"/>
      <point x="367" y="355" type="curve" smooth="yes"/>
      <point x="367" y="266"/>
      <point x="460" y="221"/>
      <point x="604" y="221" type="curve" smooth="yes"/>
      <point x="763" y="221"/>
      <point x="893" y="245"/>
      <point x="1093" y="318" type="curve" smooth="yes"/>
      <point x="1101" y="321"/>
      <point x="1104" y="327"/>
      <point x="1101" y="336" type="curve" smooth="yes"/>
      <point x="1098" y="346"/>
      <point x="1092" y="349"/>
      <point x="1084" y="346" type="curve" smooth="yes"/>
      <point x="886" y="269"/>
      <point x="724" y="249"/>
      <point x="608" y="249" type="curve" smooth="yes"/>
      <point x="483" y="249"/>
      <point x="400" y="281"/>
      <point x="400" y="360" type="curve" smooth="yes"/>
      <point x="400" y="443"/>
      <point x="499" y="468"/>
      <point x="561" y="468" type="curve" smooth="yes"/>
      <point x="798" y="468"/>
      <point x="936" y="315"/>
    </contour>
  </outline>
</glyph>
<glyph name="A.dec2.ini" format="2">
	<advance width="1083"/>
	<outline>
		<contour>
			<point x="936" y="-14" type="curve" smooth="yes"/>
			<point x="956" y="-14"/>
			<point x="965" y="14"/>
			<point x="945" y="14" type="curve" smooth="yes"/>
			<point x="902" y="14"/>
			<point x="890" y="51"/>
			<point x="898" y="159" type="curve" smooth="yes"/>
			<point x="917" y="417"/>
			<point x="1043" y="988"/>
			<point x="1093" y="1190" type="curve"/>
			<point x="1063" y="1186" type="line"/>
			<point x="1012" y="979"/>
			<point x="888" y="433"/>
			<point x="867" y="142" type="curve" smooth="yes"/>
			<point x="859" y="38"/>
			<point x="881" y="-14"/>
		</contour>
		<contour>
			<point x="275" y="-14" type="curve" smooth="yes"/>
			<point x="563" y="-14"/>
			<point x="703" y="1077"/>
			<point x="1093" y="1184" type="curve" smooth="yes"/>
			<point x="1102" y="1186"/>
			<point x="1106" y="1194"/>
			<point x="1104" y="1204" type="curve" smooth="yes"/>
			<point x="1103" y="1212"/>
			<point x="1097" y="1214"/>
			<point x="1087" y="1212" type="curve" smooth="yes"/>
			<point x="688" y="1112"/>
			<point x="522" y="16"/>
			<point x="278" y="16" type="curve" smooth="yes"/>
			<point x="226" y="16"/>
			<point x="194" y="99"/>
			<point x="194" y="236" type="curve" smooth="yes"/>
			<point x="194" y="486"/>
			<point x="312" y="544"/>
			<point x="749" y="544" type="curve" smooth="yes"/>
			<point x="1060" y="544" type="line" smooth="yes"/>
			<point x="1069" y="544"/>
			<point x="1075" y="548"/>
			<point x="1077" y="557" type="curve" smooth="yes"/>
			<point x="1079" y="568"/>
			<point x="1076" y="573"/>
			<point x="1069" y="573" type="curve" smooth="yes"/>
			<point x="754" y="573" type="line" smooth="yes"/>
			<point x="287" y="573"/>
			<point x="161" y="501"/>
			<point x="161" y="236" type="curve" smooth="yes"/>
			<point x="161" y="79"/>
			<point x="205" y="-14"/>
		</contour>
	</outline>
	<anchor name="bottom" x="680" y="0"/>
	<anchor name="cnct" x="1018" y="0"/>
	<anchor name="ogonek" x="985" y="-3"/>
	<anchor name="top" x="932" y="1139"/>
</glyph>
<glyph name="A.dec_locl" format="2">
  <advance width="1594"/>
  <anchor x="778" y="0" name="bottom"/>
  <anchor x="1365" y="0" name="ogonek"/>
  <anchor x="1243" y="1424" name="top"/>
  <outline>
    <contour>
      <point x="211" y="-17" type="curve" smooth="yes"/>
      <point x="436" y="-17"/>
      <point x="708" y="363"/>
      <point x="1281" y="1479" type="curve"/>
      <point x="1263" y="1478" type="line"/>
      <point x="1204" y="1109"/>
      <point x="1169" y="651"/>
      <point x="1169" y="270" type="curve" smooth="yes"/>
      <point x="1169" y="68"/>
      <point x="1206" y="-17"/>
      <point x="1295" y="-17" type="curve" smooth="yes"/>
      <point x="1406" y="-17"/>
      <point x="1518" y="119"/>
      <point x="1638" y="385" type="curve" smooth="yes"/>
      <point x="1643" y="396"/>
      <point x="1639" y="404"/>
      <point x="1628" y="409" type="curve" smooth="yes"/>
      <point x="1616" y="414"/>
      <point x="1609" y="410"/>
      <point x="1605" y="401" type="curve" smooth="yes"/>
      <point x="1491" y="148"/>
      <point x="1386" y="19"/>
      <point x="1298" y="19" type="curve" smooth="yes"/>
      <point x="1234" y="19"/>
      <point x="1209" y="93"/>
      <point x="1209" y="270" type="curve" smooth="yes"/>
      <point x="1209" y="656"/>
      <point x="1244" y="1120"/>
      <point x="1301" y="1493" type="curve" smooth="yes"/>
      <point x="1304" y="1508"/>
      <point x="1296" y="1515"/>
      <point x="1281" y="1515" type="curve" smooth="yes"/>
      <point x="1266" y="1515"/>
      <point x="1258" y="1506"/>
      <point x="1250" y="1493" type="curve" smooth="yes"/>
      <point x="676" y="395"/>
      <point x="413" y="20"/>
      <point x="213" y="20" type="curve" smooth="yes"/>
      <point x="156" y="20"/>
      <point x="118" y="61"/>
      <point x="95" y="90" type="curve" smooth="yes"/>
      <point x="90" y="96"/>
      <point x="81" y="100"/>
      <point x="70" y="90" type="curve" smooth="yes"/>
      <point x="58" y="79"/>
      <point x="61" y="71"/>
      <point x="66" y="64" type="curve" smooth="yes"/>
      <point x="109" y="11"/>
      <point x="153" y="-17"/>
    </contour>
    <contour>
      <point x="714" y="488" type="line"/>
      <point x="1185" y="488" type="line"/>
      <point x="1195" y="520" type="line"/>
      <point x="724" y="520" type="line"/>
    </contour>
  </outline>
</glyph>
<glyph name="A.dec_locl.ini" format="2">
	<advance width="1155"/>
	<outline>
		<contour>
			<point x="169" y="-14" type="curve" smooth="yes"/>
			<point x="349" y="-14"/>
			<point x="566" y="290"/>
			<point x="1025" y="1183" type="curve"/>
			<point x="1010" y="1182" type="line"/>
			<point x="963" y="887"/>
			<point x="935" y="521"/>
			<point x="935" y="186" type="curve" smooth="yes"/>
			<point x="935" y="43"/>
			<point x="948" y="-14"/>
			<point x="1008" y="-14" type="curve" smooth="yes"/>
			<point x="1028" y="-14"/>
			<point x="1037" y="14"/>
			<point x="1017" y="14" type="curve" smooth="yes"/>
			<point x="975" y="14"/>
			<point x="967" y="55"/>
			<point x="967" y="196" type="curve" smooth="yes"/>
			<point x="967" y="525"/>
			<point x="995" y="896"/>
			<point x="1041" y="1194" type="curve" smooth="yes"/>
			<point x="1043" y="1206"/>
			<point x="1037" y="1212"/>
			<point x="1025" y="1212" type="curve" smooth="yes"/>
			<point x="1013" y="1212"/>
			<point x="1006" y="1205"/>
			<point x="1000" y="1194" type="curve" smooth="yes"/>
			<point x="541" y="316"/>
			<point x="330" y="16"/>
			<point x="170" y="16" type="curve" smooth="yes"/>
			<point x="125" y="16"/>
			<point x="94" y="49"/>
			<point x="76" y="72" type="curve" smooth="yes"/>
			<point x="72" y="77"/>
			<point x="65" y="80"/>
			<point x="56" y="72" type="curve" smooth="yes"/>
			<point x="46" y="63"/>
			<point x="49" y="57"/>
			<point x="53" y="51" type="curve" smooth="yes"/>
			<point x="87" y="9"/>
			<point x="122" y="-14"/>
		</contour>
		<contour>
			<point x="571" y="390" type="line"/>
			<point x="945" y="390" type="line"/>
			<point x="953" y="416" type="line"/>
			<point x="579" y="416" type="line"/>
		</contour>
	</outline>
	<anchor name="bottom" x="622" y="0"/>
	<anchor name="cnct" x="1090" y="0"/>
	<anchor name="ogonek" x="958" y="0"/>
	<anchor name="top" x="994" y="1139"/>
</glyph>
<glyph name="AE.cur" format="2">
  <advance width="1601"/>
  <anchor x="1171" y="1139" name="top"/>
  <outline>
    <contour>
      <point x="158" y="-14" type="curve" smooth="yes"/>
      <point x="282" y="-14"/>
      <point x="374" y="146"/>
      <point x="1059" y="1165" type="curve"/>
      <point x="1053" y="1170" type="line"/>
      <point x="992" y="906"/>
      <point x="928" y="581"/>
      <point x="899" y="268" type="curve" smooth="yes"/>
      <point x="899" y="259"/>
      <point x="903" y="257"/>
      <point x="912" y="257" type="curve" smooth="yes"/>
      <point x="925" y="258"/>
      <point x="926" y="258"/>
      <point x="928" y="279" type="curve" smooth="yes"/>
      <point x="957" y="569"/>
      <point x="1021" y="915"/>
      <point x="1088" y="1192" type="curve" smooth="yes"/>
      <point x="1091" y="1203"/>
      <point x="1085" y="1210"/>
      <point x="1069" y="1210" type="curve" smooth="yes"/>
      <point x="1058" y="1210"/>
      <point x="1053" y="1205"/>
      <point x="1047" y="1196" type="curve" smooth="yes"/>
      <point x="361" y="173"/>
      <point x="259" y="16"/>
      <point x="159" y="16" type="curve" smooth="yes"/>
      <point x="127" y="16"/>
      <point x="101" y="36"/>
      <point x="76" y="69" type="curve" smooth="yes"/>
      <point x="69" y="78"/>
      <point x="63" y="80"/>
      <point x="53" y="72" type="curve" smooth="yes"/>
      <point x="43" y="64"/>
      <point x="44" y="57"/>
      <point x="49" y="51" type="curve" smooth="yes"/>
      <point x="76" y="14"/>
      <point x="112" y="-14"/>
    </contour>
    <contour>
      <point x="514" y="400" type="line"/>
      <point x="933" y="400" type="line"/>
      <point x="938" y="426" type="line"/>
      <point x="533" y="426" type="line"/>
    </contour>
    <contour>
      <point x="1160" y="-15" type="curve" smooth="yes"/>
      <point x="1299" y="-15"/>
      <point x="1444" y="76"/>
      <point x="1550" y="230" type="curve" smooth="yes"/>
      <point x="1558" y="242"/>
      <point x="1558" y="249"/>
      <point x="1549" y="255" type="curve" smooth="yes"/>
      <point x="1540" y="261"/>
      <point x="1534" y="257"/>
      <point x="1528" y="249" type="curve" smooth="yes"/>
      <point x="1426" y="102"/>
      <point x="1290" y="15"/>
      <point x="1163" y="15" type="curve" smooth="yes"/>
      <point x="1022" y="15"/>
      <point x="930" y="99"/>
      <point x="930" y="229" type="curve" smooth="yes"/>
      <point x="930" y="432"/>
      <point x="1093" y="615"/>
      <point x="1317" y="615" type="curve" smooth="yes"/>
      <point x="1459" y="615" type="line" smooth="yes"/>
      <point x="1469" y="615"/>
      <point x="1473" y="618"/>
      <point x="1476" y="629" type="curve" smooth="yes"/>
      <point x="1478" y="638"/>
      <point x="1478" y="643"/>
      <point x="1467" y="643" type="curve" smooth="yes"/>
      <point x="1325" y="643" type="line" smooth="yes"/>
      <point x="1214" y="643"/>
      <point x="1133" y="724"/>
      <point x="1133" y="837" type="curve" smooth="yes"/>
      <point x="1133" y="1017"/>
      <point x="1265" y="1182"/>
      <point x="1470" y="1182" type="curve" smooth="yes"/>
      <point x="1563" y="1182"/>
      <point x="1651" y="1134"/>
      <point x="1700" y="1067" type="curve" smooth="yes"/>
      <point x="1710" y="1054"/>
      <point x="1712" y="1050"/>
      <point x="1721" y="1055" type="curve" smooth="yes"/>
      <point x="1731" y="1061"/>
      <point x="1733" y="1069"/>
      <point x="1725" y="1081" type="curve" smooth="yes"/>
      <point x="1672" y="1157"/>
      <point x="1574" y="1212"/>
      <point x="1472" y="1212" type="curve" smooth="yes"/>
      <point x="1246" y="1212"/>
      <point x="1100" y="1034"/>
      <point x="1100" y="836" type="curve" smooth="yes"/>
      <point x="1100" y="744"/>
      <point x="1156" y="659"/>
      <point x="1233" y="634" type="curve"/>
      <point x="1043" y="599"/>
      <point x="897" y="427"/>
      <point x="897" y="229" type="curve" smooth="yes"/>
      <point x="897" y="81"/>
      <point x="1001" y="-15"/>
    </contour>
  </outline>
</glyph>
<glyph name="AE.cur.locl" format="2">
  <advance width="1860"/>
  <anchor x="1399" y="1424" name="top"/>
  <outline>
    <contour>
      <point x="113" y="-17" type="curve" smooth="yes"/>
      <point x="266" y="-17"/>
      <point x="426" y="183"/>
      <point x="1393" y="1453" type="curve"/>
      <point x="1414" y="1453" type="line"/>
      <point x="1423" y="1488" type="line"/>
      <point x="1406" y="1488" type="line"/>
      <point x="1384" y="1488"/>
      <point x="1375" y="1484"/>
      <point x="1364" y="1470" type="curve" smooth="yes"/>
      <point x="409" y="219"/>
      <point x="243" y="20"/>
      <point x="114" y="20" type="curve" smooth="yes"/>
      <point x="65" y="20"/>
      <point x="34" y="49"/>
      <point x="-4" y="95" type="curve" smooth="yes"/>
      <point x="-11" y="105"/>
      <point x="-20" y="105"/>
      <point x="-30" y="96" type="curve" smooth="yes"/>
      <point x="-41" y="86"/>
      <point x="-44" y="78"/>
      <point x="-36" y="69" type="curve" smooth="yes"/>
      <point x="3" y="20"/>
      <point x="46" y="-17"/>
    </contour>
    <contour>
      <point x="1174" y="726" type="line"/>
      <point x="1186" y="761" type="line"/>
      <point x="841" y="761" type="line"/>
      <point x="818" y="726" type="line"/>
    </contour>
    <contour>
      <point x="1369" y="0" type="line" smooth="yes"/>
      <point x="1573" y="0"/>
      <point x="1694" y="85"/>
      <point x="1846" y="335" type="curve" smooth="yes"/>
      <point x="1853" y="345"/>
      <point x="1850" y="353"/>
      <point x="1839" y="359" type="curve" smooth="yes"/>
      <point x="1829" y="364"/>
      <point x="1823" y="363"/>
      <point x="1816" y="353" type="curve" smooth="yes"/>
      <point x="1673" y="116"/>
      <point x="1563" y="35"/>
      <point x="1374" y="35" type="curve" smooth="yes"/>
      <point x="974" y="35" type="line"/>
      <point x="1195" y="726" type="line"/>
      <point x="1558" y="726" type="line" smooth="yes"/>
      <point x="1570" y="726"/>
      <point x="1575" y="730"/>
      <point x="1579" y="744" type="curve" smooth="yes"/>
      <point x="1581" y="755"/>
      <point x="1581" y="761"/>
      <point x="1568" y="761" type="curve" smooth="yes"/>
      <point x="1206" y="761" type="line"/>
      <point x="1430" y="1453" type="line"/>
      <point x="1925" y="1453" type="line" smooth="yes"/>
      <point x="1938" y="1453"/>
      <point x="1943" y="1456"/>
      <point x="1946" y="1470" type="curve" smooth="yes"/>
      <point x="1949" y="1481"/>
      <point x="1949" y="1488"/>
      <point x="1935" y="1488" type="curve" smooth="yes"/>
      <point x="1423" y="1488" type="line" smooth="yes"/>
      <point x="1401" y="1488"/>
      <point x="1403" y="1484"/>
      <point x="1399" y="1473" type="curve" smooth="yes"/>
      <point x="929" y="15" type="line" smooth="yes"/>
      <point x="925" y="4"/>
      <point x="931" y="0"/>
      <point x="944" y="0" type="curve" smooth="yes"/>
    </contour>
  </outline>
</glyph>
<glyph name="B.cur" format="2">
  <advance width="1108"/>
  <anchor x="615" y="0" name="bottom"/>
  <anchor x="410" y="350" name="center"/>
  <anchor x="879" y="1139" name="top"/>
  <outline>
    <contour>
      <point x="622" y="-15" type="curve" smooth="yes"/>
      <point x="878" y="-15"/>
      <point x="1057" y="187"/>
      <point x="1057" y="390" type="curve" smooth="yes"/>
      <point x="1057" y="534"/>
      <point x="960" y="618"/>
      <point x="850" y="650" type="curve"/>
      <point x="851" y="654" type="line"/>
      <point x="1039" y="699"/>
      <point x="1176" y="841"/>
      <point x="1176" y="992" type="curve" smooth="yes"/>
      <point x="1176" y="1136"/>
      <point x="1069" y="1212"/>
      <point x="867" y="1212" type="curve" smooth="yes"/>
      <point x="686" y="1212"/>
      <point x="496" y="1166"/>
      <point x="344" y="1085" type="curve" smooth="yes"/>
      <point x="338" y="1082"/>
      <point x="335" y="1076"/>
      <point x="339" y="1067" type="curve" smooth="yes"/>
      <point x="343" y="1058"/>
      <point x="349" y="1055"/>
      <point x="358" y="1060" type="curve" smooth="yes"/>
      <point x="502" y="1137"/>
      <point x="689" y="1182"/>
      <point x="867" y="1182" type="curve" smooth="yes"/>
      <point x="1047" y="1182"/>
      <point x="1143" y="1116"/>
      <point x="1143" y="992" type="curve" smooth="yes"/>
      <point x="1143" y="843"/>
      <point x="999" y="709"/>
      <point x="801" y="673" type="curve"/>
      <point x="790" y="678"/>
      <point x="773" y="681"/>
      <point x="754" y="681" type="curve" smooth="yes"/>
      <point x="710" y="681"/>
      <point x="678" y="662"/>
      <point x="678" y="636" type="curve" smooth="yes"/>
      <point x="678" y="620"/>
      <point x="694" y="613"/>
      <point x="714" y="613" type="curve" smooth="yes"/>
      <point x="738" y="613"/>
      <point x="771" y="621"/>
      <point x="792" y="632" type="curve"/>
      <point x="917" y="611"/>
      <point x="1024" y="533"/>
      <point x="1024" y="390" type="curve" smooth="yes"/>
      <point x="1024" y="205"/>
      <point x="862" y="15"/>
      <point x="626" y="15" type="curve" smooth="yes"/>
      <point x="532" y="15"/>
      <point x="456" y="56"/>
      <point x="436" y="119" type="curve" smooth="yes"/>
      <point x="433" y="129"/>
      <point x="425" y="131"/>
      <point x="416" y="127" type="curve" smooth="yes"/>
      <point x="407" y="123"/>
      <point x="406" y="116"/>
      <point x="410" y="104" type="curve" smooth="yes"/>
      <point x="435" y="32"/>
      <point x="520" y="-15"/>
    </contour>
    <contour>
      <point x="208" y="-15" type="curve" smooth="yes"/>
      <point x="282" y="-15"/>
      <point x="339" y="53"/>
      <point x="391" y="214" type="curve" smooth="yes"/>
      <point x="653" y="1027" type="line" smooth="yes"/>
      <point x="656" y="1036"/>
      <point x="651" y="1039"/>
      <point x="641" y="1039" type="curve" smooth="yes"/>
      <point x="628" y="1039"/>
      <point x="625" y="1036"/>
      <point x="622" y="1027" type="curve" smooth="yes"/>
      <point x="363" y="224" type="line" smooth="yes"/>
      <point x="317" y="81"/>
      <point x="270" y="14"/>
      <point x="211" y="14" type="curve" smooth="yes"/>
      <point x="149" y="14"/>
      <point x="108" y="71"/>
      <point x="83" y="191" type="curve" smooth="yes"/>
      <point x="81" y="199"/>
      <point x="74" y="202"/>
      <point x="64" y="199" type="curve" smooth="yes"/>
      <point x="55" y="196"/>
      <point x="53" y="189"/>
      <point x="55" y="181" type="curve" smooth="yes"/>
      <point x="84" y="48"/>
      <point x="134" y="-15"/>
    </contour>
  </outline>
</glyph>
<glyph name="B.dec" format="2">
  <advance width="1127"/>
  <anchor x="616" y="0" name="bottom"/>
  <anchor x="360" y="350" name="center"/>
  <anchor x="889" y="1139" name="top"/>
  <outline>
    <contour>
      <point x="672" y="-10" type="curve" smooth="yes"/>
      <point x="901" y="-10"/>
      <point x="1067" y="152"/>
      <point x="1067" y="375" type="curve" smooth="yes"/>
      <point x="1067" y="525"/>
      <point x="989" y="605"/>
      <point x="853" y="644" type="curve"/>
      <point x="854" y="646" type="line"/>
      <point x="1023" y="703"/>
      <point x="1176" y="831"/>
      <point x="1176" y="1006" type="curve" smooth="yes"/>
      <point x="1176" y="1133"/>
      <point x="1100" y="1212"/>
      <point x="974" y="1212" type="curve" smooth="yes"/>
      <point x="774" y="1212"/>
      <point x="552" y="968"/>
      <point x="425" y="570" type="curve"/>
      <point x="450" y="570" type="line"/>
      <point x="566" y="935"/>
      <point x="792" y="1182"/>
      <point x="968" y="1182" type="curve" smooth="yes"/>
      <point x="1086" y="1182"/>
      <point x="1144" y="1108"/>
      <point x="1144" y="1004" type="curve" smooth="yes"/>
      <point x="1144" y="827"/>
      <point x="968" y="711"/>
      <point x="830" y="667" type="curve"/>
      <point x="807" y="675"/>
      <point x="782" y="678"/>
      <point x="762" y="678" type="curve" smooth="yes"/>
      <point x="728" y="678"/>
      <point x="704" y="661"/>
      <point x="704" y="637" type="curve" smooth="yes"/>
      <point x="704" y="623"/>
      <point x="721" y="609"/>
      <point x="743" y="609" type="curve" smooth="yes"/>
      <point x="766" y="609"/>
      <point x="790" y="616"/>
      <point x="815" y="628" type="curve"/>
      <point x="956" y="592"/>
      <point x="1034" y="516"/>
      <point x="1034" y="375" type="curve" smooth="yes"/>
      <point x="1034" y="169"/>
      <point x="884" y="20"/>
      <point x="677" y="20" type="curve" smooth="yes"/>
      <point x="593" y="20"/>
      <point x="520" y="36"/>
      <point x="464" y="65" type="curve" smooth="yes"/>
      <point x="454" y="70"/>
      <point x="447" y="68"/>
      <point x="443" y="59" type="curve" smooth="yes"/>
      <point x="438" y="49"/>
      <point x="440" y="42"/>
      <point x="449" y="38" type="curve" smooth="yes"/>
      <point x="508" y="7"/>
      <point x="583" y="-10"/>
    </contour>
    <contour>
      <point x="247" y="-11" type="curve" smooth="yes"/>
      <point x="260" y="-11"/>
      <point x="263" y="-8"/>
      <point x="266" y="1" type="curve" smooth="yes"/>
      <point x="653" y="1200" type="line" smooth="yes"/>
      <point x="656" y="1209"/>
      <point x="651" y="1212"/>
      <point x="641" y="1212" type="curve" smooth="yes"/>
      <point x="631" y="1212"/>
      <point x="626" y="1210"/>
      <point x="621" y="1202" type="curve" smooth="yes"/>
      <point x="527" y="1057"/>
      <point x="408" y="935"/>
      <point x="268" y="841" type="curve" smooth="yes"/>
      <point x="260" y="835"/>
      <point x="259" y="828"/>
      <point x="264" y="820" type="curve" smooth="yes"/>
      <point x="269" y="812"/>
      <point x="275" y="811"/>
      <point x="283" y="817" type="curve" smooth="yes"/>
      <point x="437" y="926"/>
      <point x="554" y="1046"/>
      <point x="627" y="1171" type="curve"/>
      <point x="622" y="1178" type="line"/>
      <point x="611" y="1165" type="line"/>
      <point x="235" y="1" type="line" smooth="yes"/>
      <point x="232" y="-8"/>
      <point x="237" y="-11"/>
    </contour>
  </outline>
</glyph>
<glyph name="C.cur" format="2">
	<advance width="960"/>
	<outline>
		<contour>
			<point x="512" y="-15" type="curve" smooth="yes"/>
			<point x="660" y="-15"/>
			<point x="810" y="82"/>
			<point x="945" y="265" type="curve" smooth="yes"/>
			<point x="956" y="280"/>
			<point x="959" y="289"/>
			<point x="949" y="296" type="curve" smooth="yes"/>
			<point x="938" y="303"/>
			<point x="933" y="298"/>
			<point x="924" y="285" type="curve" smooth="yes"/>
			<point x="798" y="109"/>
			<point x="655" y="15"/>
			<point x="512" y="15" type="curve" smooth="yes"/>
			<point x="351" y="15"/>
			<point x="247" y="154"/>
			<point x="247" y="375" type="curve" smooth="yes"/>
			<point x="247" y="796"/>
			<point x="540" y="1182"/>
			<point x="861" y="1182" type="curve" smooth="yes"/>
			<point x="970" y="1182"/>
			<point x="1058" y="1148"/>
			<point x="1121" y="1063" type="curve" smooth="yes"/>
			<point x="1129" y="1053"/>
			<point x="1135" y="1046"/>
			<point x="1145" y="1052" type="curve" smooth="yes"/>
			<point x="1153" y="1057"/>
			<point x="1154" y="1065"/>
			<point x="1146" y="1077" type="curve" smooth="yes"/>
			<point x="1084" y="1168"/>
			<point x="993" y="1212"/>
			<point x="862" y="1212" type="curve" smooth="yes"/>
			<point x="521" y="1212"/>
			<point x="214" y="814"/>
			<point x="214" y="376" type="curve" smooth="yes"/>
			<point x="214" y="131"/>
			<point x="325" y="-15"/>
		</contour>
	</outline>
	<anchor name="bottom" x="477" y="0"/>
	<anchor name="top" x="831" y="1139"/>
</glyph>
<glyph name="C.cur.ini" format="2">
  <advance width="1160"/>
  <anchor x="596" y="0" name="bottom"/>
  <anchor x="1079" y="0" name="cnct"/>
  <anchor x="1039" y="1424" name="top"/>
  <outline>
    <contour>
      <point x="696" y="-17" type="curve" smooth="yes"/>
      <point x="716" y="-17"/>
      <point x="719" y="16"/>
      <point x="699" y="16" type="curve" smooth="yes"/>
      <point x="468" y="16"/>
      <point x="309" y="178"/>
      <point x="309" y="469" type="curve" smooth="yes"/>
      <point x="309" y="995"/>
      <point x="675" y="1478"/>
      <point x="1076" y="1478" type="curve" smooth="yes"/>
      <point x="1213" y="1478"/>
      <point x="1323" y="1435"/>
      <point x="1401" y="1329" type="curve" smooth="yes"/>
      <point x="1411" y="1316"/>
      <point x="1419" y="1308"/>
      <point x="1431" y="1315" type="curve" smooth="yes"/>
      <point x="1441" y="1321"/>
      <point x="1443" y="1331"/>
      <point x="1433" y="1346" type="curve" smooth="yes"/>
      <point x="1355" y="1460"/>
      <point x="1241" y="1515"/>
      <point x="1078" y="1515" type="curve" smooth="yes"/>
      <point x="651" y="1515"/>
      <point x="268" y="1018"/>
      <point x="268" y="470" type="curve" smooth="yes"/>
      <point x="268" y="165"/>
      <point x="433" y="-17"/>
    </contour>
  </outline>
</glyph>
<glyph name="D.cur" format="2">
  <advance width="1547"/>
  <guideline y="91"/>
  <anchor x="775" y="0" name="bottom"/>
  <anchor x="713" y="744" name="center"/>
  <anchor x="1176" y="1424" name="top"/>
  <outline>
    <contour>
      <point x="778" y="-19" type="curve" smooth="yes"/>
      <point x="1255" y="-19"/>
      <point x="1584" y="479"/>
      <point x="1584" y="1018" type="curve" smooth="yes"/>
      <point x="1584" y="1343"/>
      <point x="1410" y="1515"/>
      <point x="1071" y="1515" type="curve" smooth="yes"/>
      <point x="858" y="1515"/>
      <point x="620" y="1458"/>
      <point x="430" y="1356" type="curve" smooth="yes"/>
      <point x="423" y="1353"/>
      <point x="419" y="1345"/>
      <point x="424" y="1334" type="curve" smooth="yes"/>
      <point x="429" y="1323"/>
      <point x="436" y="1319"/>
      <point x="448" y="1325" type="curve" smooth="yes"/>
      <point x="628" y="1421"/>
      <point x="861" y="1478"/>
      <point x="1071" y="1478" type="curve" smooth="yes"/>
      <point x="1384" y="1478"/>
      <point x="1543" y="1318"/>
      <point x="1543" y="1018" type="curve" smooth="yes"/>
      <point x="1543" y="501"/>
      <point x="1224" y="19"/>
      <point x="783" y="19" type="curve" smooth="yes"/>
      <point x="665" y="19"/>
      <point x="570" y="70"/>
      <point x="545" y="149" type="curve" smooth="yes"/>
      <point x="541" y="161"/>
      <point x="531" y="164"/>
      <point x="520" y="159" type="curve" smooth="yes"/>
      <point x="509" y="154"/>
      <point x="508" y="145"/>
      <point x="513" y="130" type="curve" smooth="yes"/>
      <point x="544" y="40"/>
      <point x="650" y="-19"/>
    </contour>
    <contour>
      <point x="260" y="-19" type="curve" smooth="yes"/>
      <point x="353" y="-19"/>
      <point x="424" y="66"/>
      <point x="489" y="268" type="curve" smooth="yes"/>
      <point x="816" y="1284" type="line" smooth="yes"/>
      <point x="820" y="1295"/>
      <point x="814" y="1299"/>
      <point x="801" y="1299" type="curve" smooth="yes"/>
      <point x="785" y="1299"/>
      <point x="781" y="1295"/>
      <point x="778" y="1284" type="curve" smooth="yes"/>
      <point x="454" y="280" type="line" smooth="yes"/>
      <point x="396" y="101"/>
      <point x="338" y="18"/>
      <point x="264" y="18" type="curve" smooth="yes"/>
      <point x="186" y="18"/>
      <point x="134" y="89"/>
      <point x="103" y="239" type="curve" smooth="yes"/>
      <point x="100" y="249"/>
      <point x="93" y="253"/>
      <point x="80" y="249" type="curve" smooth="yes"/>
      <point x="69" y="245"/>
      <point x="66" y="236"/>
      <point x="69" y="226" type="curve" smooth="yes"/>
      <point x="105" y="60"/>
      <point x="168" y="-19"/>
    </contour>
  </outline>
</glyph>
<glyph name="D.dec" format="2">
  <advance width="1590"/>
  <anchor x="778" y="0" name="bottom"/>
  <anchor x="715" y="744" name="center"/>
  <anchor x="1179" y="1424" name="top"/>
  <outline>
    <contour>
      <point x="308" y="-21" type="curve" smooth="yes"/>
      <point x="398" y="-21"/>
      <point x="460" y="38"/>
      <point x="511" y="196" type="curve" smooth="yes"/>
      <point x="850" y="1246" type="line" smooth="yes"/>
      <point x="854" y="1258"/>
      <point x="848" y="1261"/>
      <point x="835" y="1261" type="curve" smooth="yes"/>
      <point x="819" y="1261"/>
      <point x="815" y="1258"/>
      <point x="811" y="1246" type="curve" smooth="yes"/>
      <point x="476" y="208" type="line" smooth="yes"/>
      <point x="433" y="73"/>
      <point x="385" y="16"/>
      <point x="313" y="16" type="curve" smooth="yes"/>
      <point x="248" y="16"/>
      <point x="201" y="53"/>
      <point x="201" y="104" type="curve" smooth="yes"/>
      <point x="201" y="153"/>
      <point x="235" y="188"/>
      <point x="281" y="188" type="curve" smooth="yes"/>
      <point x="381" y="188"/>
      <point x="649" y="-11"/>
      <point x="854" y="-11" type="curve" smooth="yes"/>
      <point x="1238" y="-11"/>
      <point x="1606" y="444"/>
      <point x="1606" y="916" type="curve" smooth="yes"/>
      <point x="1606" y="1295"/>
      <point x="1375" y="1515"/>
      <point x="1049" y="1515" type="curve" smooth="yes"/>
      <point x="760" y="1515"/>
      <point x="548" y="1381"/>
      <point x="418" y="1141" type="curve" smooth="yes"/>
      <point x="410" y="1130"/>
      <point x="413" y="1120"/>
      <point x="423" y="1114" type="curve" smooth="yes"/>
      <point x="435" y="1108"/>
      <point x="444" y="1110"/>
      <point x="450" y="1121" type="curve" smooth="yes"/>
      <point x="570" y="1363"/>
      <point x="780" y="1478"/>
      <point x="1048" y="1478" type="curve" smooth="yes"/>
      <point x="1344" y="1478"/>
      <point x="1565" y="1279"/>
      <point x="1565" y="910" type="curve" smooth="yes"/>
      <point x="1565" y="461"/>
      <point x="1194" y="26"/>
      <point x="860" y="26" type="curve" smooth="yes"/>
      <point x="656" y="26"/>
      <point x="394" y="225"/>
      <point x="281" y="225" type="curve" smooth="yes"/>
      <point x="211" y="225"/>
      <point x="160" y="174"/>
      <point x="160" y="104" type="curve" smooth="yes"/>
      <point x="160" y="31"/>
      <point x="223" y="-21"/>
    </contour>
  </outline>
</glyph>
